{"glyphs":{"0":{"ha":983,"x_min":40,"x_max":954,"o":"m 493 -21 l 493 -21 q 313 14 394 -21 q 180 108 232 49 q 92 245 128 168 q 48 407 56 322 q 49 577 40 492 q 94 740 57 663 q 183 876 131 817 q 315 971 235 936 q 490 1006 396 1006 l 490 1006 q 713 949 615 1006 q 859 802 810 893 q 931 601 908 711 q 930 383 954 492 q 856 183 906 274 q 710 35 806 92 q 493 -21 614 -21 z m 485 686 l 485 686 q 397 647 432 686 q 354 549 361 607 q 356 435 347 492 q 398 338 364 378 q 481 299 432 299 l 481 299 q 551 320 519 299 q 599 376 582 342 q 624 451 615 410 q 625 533 632 492 q 603 609 618 575 q 556 665 588 643 q 485 686 525 686 z "},"1":{"ha":618,"x_min":8,"x_max":565,"o":"m 26 738 l 26 738 q 51 814 10 794 l 51 814 q 128 846 76 824 q 219 884 181 868 q 304 919 257 900 q 392 951 351 938 q 464 971 432 964 l 464 971 q 503 978 486 976 q 530 976 519 979 q 547 967 540 974 q 558 949 554 960 q 563 925 561 939 q 564 894 564 911 q 564 857 564 878 l 564 857 l 553 60 q 547 32 554 44 q 527 13 540 19 q 497 7 514 7 l 497 7 l 300 7 q 259 22 275 7 q 244 60 243 36 l 244 60 l 246 572 l 156 532 q 134 528 143 529 q 115 538 125 528 q 98 556 106 547 q 83 582 90 565 q 69 613 75 599 q 57 646 64 626 q 46 679 50 665 q 36 710 42 693 q 26 738 31 728 z "},"2":{"ha":982,"x_min":49,"x_max":946,"o":"m 51 668 l 51 888 q 66 931 51 913 q 103 953 81 949 l 103 953 q 275 979 178 971 q 485 981 372 988 q 694 950 599 974 q 858 869 790 926 q 938 726 926 811 l 938 726 q 931 613 944 667 q 884 517 917 558 q 810 440 851 475 q 718 379 769 406 q 619 335 667 353 q 521 303 572 317 l 521 303 q 498 292 497 297 q 522 288 499 288 l 522 288 l 831 290 q 869 276 854 290 q 883 238 883 261 l 883 238 l 883 54 q 869 16 883 31 q 831 1 854 1 l 831 1 q 101 14 417 1 l 101 14 q 63 28 78 14 q 49 67 49 43 l 49 67 l 49 229 q 61 275 49 253 q 94 308 74 297 l 94 308 q 276 401 161 343 q 424 476 390 458 l 424 476 q 515 531 479 504 q 563 582 550 558 q 563 624 575 606 q 504 652 550 642 q 383 661 458 663 l 383 661 q 103 626 265 658 l 103 626 q 76 627 88 624 q 58 641 64 631 q 51 668 51 651 l 51 668 z "},"3":{"ha":928,"x_min":46,"x_max":907,"o":"m 235 300 l 235 300 q 352 315 306 290 q 396 381 399 340 q 336 454 393 422 l 336 454 q 313 466 326 460 q 290 476 300 472 q 271 486 281 481 q 256 499 261 492 q 249 513 250 506 l 249 513 q 267 551 244 535 q 319 578 290 568 q 368 610 347 589 q 382 661 389 632 l 382 661 q 328 701 375 690 q 219 698 282 711 q 104 654 156 685 l 104 654 q 77 656 89 646 q 65 685 65 667 l 65 685 l 65 900 q 70 923 65 913 q 84 940 75 933 q 104 950 93 947 l 104 950 q 324 972 181 967 q 599 967 467 978 l 599 967 q 753 911 692 958 q 833 804 815 864 q 835 683 851 744 q 771 583 819 621 l 771 583 q 752 572 763 576 q 722 560 742 567 q 697 551 703 554 l 697 551 q 697 518 650 535 l 697 518 q 851 389 797 481 q 875 192 906 297 l 875 192 q 781 74 854 119 q 615 11 708 28 q 416 -7 522 -6 q 227 1 310 -8 q 86 22 144 10 l 86 22 q 58 40 68 26 q 47 71 47 53 l 47 71 l 47 286 q 58 313 47 304 q 86 317 68 321 l 86 317 q 165 308 111 313 q 235 300 219 303 z "},"4":{"ha":949,"x_min":43,"x_max":897,"o":"m 535 61 l 536 111 q 556 224 538 171 q 599 313 575 278 q 654 399 624 347 q 703 496 685 450 l 703 496 q 703 524 711 514 q 683 529 696 533 q 667 508 671 525 l 667 508 q 573 338 633 406 q 444 248 513 271 q 304 234 376 225 q 174 282 232 243 q 81 390 117 321 q 44 542 44 458 l 44 542 l 47 871 q 59 953 46 931 q 101 976 72 976 l 101 976 l 306 976 q 356 955 346 976 q 364 872 365 933 l 364 872 l 361 671 q 372 615 360 640 q 402 577 383 590 q 444 558 421 564 q 490 556 467 551 q 532 574 513 561 q 564 610 551 586 q 576 667 576 635 l 576 667 l 578 871 q 589 953 575 931 q 632 976 603 976 l 632 976 l 835 976 q 886 955 876 976 q 894 872 896 933 l 894 872 l 885 61 q 869 23 885 38 q 829 8 854 8 l 829 8 l 590 8 q 550 23 565 8 q 535 61 535 38 l 535 61 z "},"5":{"ha":968,"x_min":51,"x_max":925,"o":"m 819 700 l 367 701 q 338 683 342 701 l 338 683 q 363 658 335 663 l 363 658 l 374 657 q 636 653 544 657 l 636 653 q 799 599 731 649 q 896 476 867 549 q 922 322 925 404 q 886 169 919 239 q 781 52 853 99 q 613 8 708 6 l 613 8 q 449 8 544 8 q 245 8 353 7 q 106 10 138 8 l 106 10 q 69 32 83 13 q 54 76 54 51 l 54 76 l 54 322 q 106 364 54 365 l 106 364 l 461 358 q 529 374 501 358 q 563 411 557 389 q 563 456 569 433 q 528 495 556 479 q 460 511 500 511 l 460 511 l 125 517 q 51 596 51 519 l 51 596 l 51 924 q 66 962 51 947 q 104 976 81 976 l 104 976 l 819 978 q 858 963 843 978 q 872 924 872 949 l 872 924 l 872 753 q 858 715 872 729 q 819 700 843 700 l 819 700 z "},"6":{"ha":918,"x_min":36,"x_max":894,"o":"m 790 675 l 790 675 q 661 719 735 704 q 518 733 588 735 q 399 698 449 732 q 347 601 350 664 l 347 601 q 557 683 433 683 l 557 683 q 818 547 732 682 l 818 547 q 864 285 894 431 l 864 285 q 703 57 832 133 l 703 57 q 493 6 614 6 l 493 6 q 308 38 390 6 q 172 126 225 71 q 87 253 119 181 q 46 406 54 326 q 49 568 38 486 q 91 724 60 650 q 173 858 122 797 q 289 956 224 919 l 289 956 q 510 1015 382 1008 q 790 976 639 1022 l 790 976 q 842 910 842 960 l 842 910 l 842 717 q 826 678 842 692 q 790 675 811 665 z m 607 361 l 607 361 q 583 424 607 397 q 522 456 558 450 q 450 456 486 461 q 390 424 414 450 q 365 358 365 397 l 365 358 q 404 285 367 311 q 486 261 442 260 q 568 289 531 263 q 607 361 606 315 z "},"7":{"ha":874,"x_min":35,"x_max":817,"o":"m 88 976 l 775 976 q 808 963 799 976 q 807 924 817 949 l 807 924 l 479 61 q 450 22 471 38 q 406 7 429 7 l 406 7 l 168 7 q 136 22 144 7 q 136 61 128 36 l 136 61 l 360 651 l 88 650 q 49 665 64 650 q 35 703 35 679 l 35 703 l 35 924 q 49 963 35 949 q 88 976 64 976 l 88 976 z "},"8":{"ha":950,"x_min":44,"x_max":906,"o":"m 156 490 l 156 490 q 74 584 101 531 q 45 692 46 638 q 73 801 44 747 q 153 897 101 856 q 288 965 204 939 q 474 990 371 990 l 474 990 q 663 965 578 990 q 798 899 747 940 q 876 804 849 857 q 903 697 904 751 q 874 588 901 642 q 794 494 846 535 l 794 494 q 876 401 847 454 q 904 292 904 347 q 876 183 904 236 q 797 88 849 129 q 663 20 746 46 q 476 -6 579 -6 l 476 -6 q 288 19 372 -6 q 152 86 203 44 q 74 181 101 128 q 47 288 46 233 q 75 397 47 343 q 156 490 103 450 z m 468 254 l 468 254 q 534 272 507 254 q 569 314 561 289 q 571 363 576 339 q 539 405 565 388 q 471 422 513 422 l 471 422 q 408 405 433 422 q 376 363 382 388 q 377 314 371 339 q 408 272 383 289 q 468 254 433 254 z m 469 731 l 469 731 q 421 722 442 731 q 389 698 400 713 q 373 665 378 683 q 374 629 368 647 q 390 597 379 611 q 421 572 400 582 q 467 563 442 563 l 467 563 q 533 580 506 563 q 568 622 561 597 q 569 672 575 647 q 538 713 564 696 q 469 731 511 731 z "},"9":{"ha":918,"x_min":22,"x_max":882,"o":"m 425 992 l 425 992 q 610 959 528 992 q 746 872 693 926 q 831 744 799 817 q 872 591 864 671 q 869 429 881 511 q 826 274 857 347 q 744 139 796 200 q 629 42 693 78 l 629 42 q 128 21 449 -60 l 128 21 q 90 45 104 28 q 75 88 75 63 l 75 88 l 75 281 q 82 308 75 296 q 101 324 89 321 q 128 321 113 328 l 128 321 q 228 283 171 299 q 344 265 285 268 q 453 271 403 261 q 535 313 503 281 q 571 396 568 344 l 571 396 q 360 314 485 314 l 360 314 q 99 450 186 315 l 99 450 q 54 713 24 567 l 54 713 q 215 940 85 864 l 215 940 q 425 992 304 992 z m 311 636 l 311 636 q 335 574 310 600 q 396 542 360 547 q 467 542 432 536 q 528 574 503 547 q 551 639 553 600 l 551 639 q 513 712 550 686 q 432 736 476 738 q 350 708 388 735 q 311 636 313 682 z "},"\u0000":{"ha":0,"x_min":null,"x_max":null,"o":""},"\n":{"ha":0,"x_min":null,"x_max":null,"o":""},"\r":{"ha":0,"x_min":null,"x_max":null,"o":""}," ":{"ha":511,"x_min":null,"x_max":null,"o":""},"!":{"ha":347,"x_min":51,"x_max":296,"o":"m 239 260 l 100 260 q 69 269 81 260 q 57 293 57 278 l 57 293 l 54 965 q 66 991 54 982 q 97 1000 78 1000 l 97 1000 l 251 1000 q 274 996 264 1000 q 289 984 283 992 q 294 965 294 976 l 294 965 l 283 293 q 271 269 283 278 q 239 260 258 260 l 239 260 z m 169 217 l 169 217 q 254 183 222 217 q 286 96 286 150 q 254 8 286 42 q 169 -25 222 -25 q 84 8 117 -25 q 51 96 51 42 l 51 96 q 66 159 51 132 q 108 201 81 186 q 169 217 135 217 z "},"\"":{"ha":492,"x_min":35,"x_max":456,"o":"m 54 944 l 215 944 q 233 928 233 944 l 233 928 l 201 642 q 183 625 201 625 l 183 625 l 82 625 q 64 642 67 625 l 64 642 l 36 928 q 38 934 36 931 q 41 940 39 938 q 47 943 43 942 q 54 944 51 944 l 54 944 z m 276 944 l 436 944 q 456 928 456 944 l 456 928 l 424 642 q 406 625 424 625 l 406 625 l 304 625 q 286 642 289 625 l 286 642 l 258 928 q 260 936 257 932 q 267 942 263 940 q 276 944 271 944 l 276 944 z "},"“":{"ha":492,"x_min":35,"x_max":456,"o":"m 54 944 l 215 944 q 233 928 233 944 l 233 928 l 201 642 q 183 625 201 625 l 183 625 l 82 625 q 64 642 67 625 l 64 642 l 36 928 q 38 934 36 931 q 41 940 39 938 q 47 943 43 942 q 54 944 51 944 l 54 944 z m 276 944 l 436 944 q 456 928 456 944 l 456 928 l 424 642 q 406 625 424 625 l 406 625 l 304 625 q 286 642 289 625 l 286 642 l 258 928 q 260 936 257 932 q 267 942 263 940 q 276 944 271 944 l 276 944 z "},"”":{"ha":492,"x_min":35,"x_max":456,"o":"m 54 944 l 215 944 q 233 928 233 944 l 233 928 l 201 642 q 183 625 201 625 l 183 625 l 82 625 q 64 642 67 625 l 64 642 l 36 928 q 38 934 36 931 q 41 940 39 938 q 47 943 43 942 q 54 944 51 944 l 54 944 z m 276 944 l 436 944 q 456 928 456 944 l 456 928 l 424 642 q 406 625 424 625 l 406 625 l 304 625 q 286 642 289 625 l 286 642 l 258 928 q 260 936 257 932 q 267 942 263 940 q 276 944 271 944 l 276 944 z "},"#":{"ha":1065,"x_min":42,"x_max":1022,"o":"m 865 814 l 996 814 q 1022 774 1022 814 l 1022 774 l 1022 631 q 996 590 1022 590 l 996 590 q 824 590 919 590 l 824 590 l 786 396 l 956 396 q 982 356 982 396 l 982 356 l 982 213 q 956 172 982 172 l 956 172 q 744 172 864 172 l 744 172 l 719 39 q 710 16 719 25 q 688 7 701 7 l 688 7 l 574 7 q 549 17 558 7 q 540 39 539 26 l 540 39 l 561 174 q 396 175 471 174 l 396 175 l 371 39 q 362 16 371 25 q 338 7 353 7 l 338 7 l 224 7 q 199 17 208 7 q 192 39 189 26 l 192 39 l 213 178 q 67 183 107 181 l 67 183 q 54 188 60 183 q 45 202 49 193 q 42 224 42 211 l 42 224 l 42 353 q 49 382 42 371 q 67 393 56 393 l 67 393 l 244 394 l 276 596 q 107 601 151 599 l 107 601 q 97 604 101 601 q 88 613 92 607 q 83 626 85 618 q 82 642 82 633 l 82 642 l 82 771 q 89 800 82 789 q 107 811 96 811 l 107 811 l 308 813 l 329 943 q 361 976 333 976 l 361 976 l 507 976 q 531 967 522 976 q 540 943 540 958 l 540 943 l 515 813 l 660 813 l 679 943 q 711 976 683 976 l 711 976 l 857 976 q 880 967 871 976 q 889 943 889 958 l 889 943 l 865 814 z m 438 394 l 594 394 l 625 592 q 475 593 532 592 l 475 593 l 438 394 z "},"$":{"ha":968,"x_min":43,"x_max":925,"o":"m 657 574 l 657 574 q 806 526 743 567 q 897 428 868 485 q 924 306 925 372 q 894 180 924 239 q 803 76 865 121 q 657 15 742 31 l 657 15 q 588 7 626 10 l 588 7 l 586 -86 q 574 -110 586 -101 q 543 -119 563 -119 l 543 -119 l 404 -119 q 373 -110 385 -119 q 361 -86 361 -101 l 361 -86 l 361 1 q 135 31 228 8 l 135 31 q 88 62 106 38 q 71 119 71 86 l 71 119 l 71 338 q 88 381 71 367 q 135 385 106 394 l 135 385 q 364 340 250 347 q 550 353 478 333 l 550 353 q 590 390 589 361 l 590 390 q 565 419 593 414 l 565 419 q 546 419 557 421 l 546 419 q 371 407 465 406 l 371 407 q 234 431 296 408 q 133 488 172 453 q 72 569 94 524 q 46 662 49 614 q 59 758 43 710 q 108 846 75 806 q 196 917 142 886 q 319 960 250 947 l 319 960 q 358 965 338 963 l 358 965 l 358 1074 q 370 1099 358 1089 q 401 1108 382 1108 l 401 1108 l 556 1108 q 573 1106 565 1108 q 587 1099 581 1103 q 596 1088 593 1094 q 599 1074 599 1082 l 599 1074 l 597 974 q 808 946 715 968 l 808 946 q 853 915 836 939 q 871 857 871 890 l 871 857 l 871 657 q 854 614 871 626 q 808 611 838 601 l 808 611 q 612 647 700 644 q 426 622 524 649 l 426 622 q 379 582 382 611 l 379 582 q 406 550 378 557 l 406 550 q 428 551 415 549 l 428 551 q 657 574 556 582 z "},"%":{"ha":1225,"x_min":22,"x_max":1196,"o":"m 968 494 l 968 494 q 1059 478 1018 494 q 1126 433 1100 461 q 1169 369 1151 406 q 1192 292 1188 332 q 1192 213 1196 253 q 1169 135 1188 172 q 1124 71 1150 99 q 1058 26 1097 43 q 969 10 1018 10 l 969 10 q 858 36 907 10 q 785 106 810 63 q 749 201 760 149 q 749 304 738 253 q 787 399 761 356 q 860 468 813 442 q 968 494 908 494 z m 964 160 l 964 160 q 1009 179 990 160 q 1033 226 1028 199 q 1034 279 1038 253 q 1013 325 1031 306 q 967 344 994 344 l 967 344 q 922 325 940 344 q 901 279 904 306 q 901 226 897 253 q 922 179 906 199 q 964 160 939 160 z m 254 978 l 254 978 q 366 951 317 978 q 440 881 415 924 q 476 787 464 839 q 475 683 488 735 q 438 589 463 632 q 365 519 413 546 q 256 492 317 492 l 256 492 q 144 519 193 492 q 71 589 96 546 q 35 683 46 632 q 35 787 24 735 q 72 881 47 839 q 146 951 97 924 q 254 978 194 978 z m 249 643 l 249 643 q 295 662 276 643 q 319 708 314 681 q 320 762 324 735 q 298 808 317 789 q 251 826 279 826 l 251 826 q 219 817 233 826 q 197 790 204 807 q 185 754 189 774 q 185 715 182 735 q 197 680 189 696 q 218 653 204 664 q 249 643 232 643 z m 603 978 l 796 978 q 827 968 815 978 q 839 942 839 958 l 839 942 l 642 46 q 630 21 642 31 q 599 11 618 11 l 599 11 l 446 11 q 413 21 426 11 q 403 46 400 31 l 403 46 l 558 942 q 603 978 565 978 l 603 978 z "},"&":{"ha":978,"x_min":32,"x_max":931,"o":"m 926 436 l 926 436 l 929 63 q 915 24 929 39 q 876 10 900 10 l 876 10 l 650 10 q 617 25 626 10 q 619 63 608 40 l 619 63 q 703 254 679 193 l 703 254 q 703 282 710 272 q 683 288 696 292 q 665 268 671 283 l 665 268 q 608 150 646 201 q 521 69 569 99 q 420 25 472 40 q 314 10 368 10 l 314 10 q 183 40 242 10 q 90 119 124 69 q 45 228 57 169 q 55 348 33 286 q 128 460 76 410 l 128 460 q 231 522 171 500 l 231 522 q 231 556 276 540 l 231 556 q 210 563 222 558 q 190 571 197 568 q 172 578 182 574 q 156 588 163 582 l 156 588 q 97 663 117 617 q 84 760 78 710 q 116 855 90 810 q 197 932 142 900 q 328 971 253 964 l 328 971 q 603 976 460 982 q 822 954 747 971 l 822 954 q 850 936 839 950 q 861 906 861 922 l 861 906 l 861 689 q 850 662 861 671 q 822 660 839 653 l 822 660 q 691 688 769 678 q 547 693 613 697 l 547 693 q 484 682 510 692 q 449 658 458 672 q 454 625 439 644 q 511 585 469 606 l 511 585 q 527 578 515 583 q 544 569 539 572 q 558 562 549 567 q 571 553 567 557 q 580 543 575 549 q 586 531 585 538 q 586 518 588 525 l 586 518 q 566 492 585 504 q 526 472 547 481 q 481 448 504 464 q 446 411 457 432 l 446 411 q 435 358 433 385 q 455 311 436 331 q 497 281 474 292 q 552 277 521 271 q 610 307 583 283 l 610 307 q 653 436 649 342 l 653 436 q 667 474 653 460 q 706 489 682 489 l 706 489 l 874 489 q 913 474 899 489 q 926 436 926 460 z "},"'":{"ha":271,"x_min":35,"x_max":233,"o":"m 54 944 l 215 944 q 233 928 233 944 l 233 928 l 201 642 q 183 625 201 625 l 183 625 l 82 625 q 64 642 67 625 l 64 642 l 36 928 q 38 934 36 931 q 41 940 39 938 q 47 943 43 942 q 54 944 51 944 l 54 944 z "},"‘":{"ha":271,"x_min":35,"x_max":233,"o":"m 54 944 l 215 944 q 233 928 233 944 l 233 928 l 201 642 q 183 625 201 625 l 183 625 l 82 625 q 64 642 67 625 l 64 642 l 36 928 q 38 934 36 931 q 41 940 39 938 q 47 943 43 942 q 54 944 51 944 l 54 944 z "},"’":{"ha":271,"x_min":35,"x_max":233,"o":"m 54 944 l 215 944 q 233 928 233 944 l 233 928 l 201 642 q 183 625 201 625 l 183 625 l 82 625 q 64 642 67 625 l 64 642 l 36 928 q 38 934 36 931 q 41 940 39 938 q 47 943 43 942 q 54 944 51 944 l 54 944 z "},"(":{"ha":463,"x_min":44,"x_max":438,"o":"m 425 10 l 425 10 q 417 -27 435 -11 q 372 -43 399 -43 l 372 -43 l 189 -43 q 163 -35 174 -43 q 149 -19 153 -28 q 136 10 144 -11 l 136 10 q 49 495 46 222 q 149 979 51 768 l 149 979 q 215 1032 174 1032 l 215 1032 l 369 1032 q 417 1019 399 1032 q 422 979 436 1006 l 422 979 q 328 734 358 854 q 301 494 297 614 q 336 258 306 375 q 425 10 367 140 z "},")":{"ha":463,"x_min":25,"x_max":417,"o":"m 313 979 l 313 979 q 413 495 410 768 q 326 10 415 222 l 326 10 q 313 -19 317 -11 q 298 -35 308 -28 q 274 -43 288 -43 l 274 -43 l 89 -43 q 45 -27 64 -43 q 36 10 26 -11 l 36 10 q 126 258 96 140 q 160 494 157 375 q 134 734 164 614 q 39 979 104 854 l 39 979 q 44 1019 25 1006 q 92 1032 63 1032 l 92 1032 l 246 1032 q 313 979 289 1032 z "},"*":{"ha":464,"x_min":28,"x_max":436,"o":"m 354 747 l 415 710 q 422 678 435 699 l 422 678 l 375 604 q 344 597 364 585 l 344 597 l 294 629 l 293 569 q 269 546 293 546 l 269 546 l 183 547 q 160 571 158 547 l 160 571 l 161 624 l 119 597 q 88 604 99 585 l 88 604 l 42 678 q 47 710 28 699 l 47 710 l 108 747 l 47 786 q 42 818 29 799 l 42 818 l 83 883 q 114 892 97 904 l 114 892 l 168 858 l 171 922 q 177 938 171 931 q 194 944 183 944 l 194 944 l 271 943 q 294 921 294 943 l 294 921 l 294 858 l 349 892 q 379 883 367 904 l 379 883 l 421 818 q 415 786 433 799 l 415 786 l 354 747 z "},"+":{"ha":683,"x_min":36,"x_max":646,"o":"m 458 586 l 610 588 q 635 576 626 588 q 644 544 644 564 l 644 544 l 644 390 q 635 359 644 371 q 610 347 626 347 l 610 347 q 460 347 522 347 l 460 347 l 461 197 q 449 172 461 182 q 417 163 438 163 l 417 163 l 264 163 q 231 172 243 163 q 219 197 219 182 l 219 197 q 221 351 219 288 l 221 351 q 69 358 139 354 l 69 358 q 45 370 54 358 q 36 403 36 382 l 36 403 l 36 542 q 45 573 36 561 q 69 585 54 585 l 69 585 l 225 586 q 232 738 228 668 l 232 738 q 244 762 232 753 q 275 771 256 771 l 275 771 l 414 771 q 447 762 435 771 q 458 738 458 753 l 458 738 l 458 586 z "},",":{"ha":290,"x_min":13,"x_max":260,"o":"m 101 217 l 215 217 q 233 214 225 217 q 247 207 242 211 q 256 196 253 203 q 258 182 258 189 l 258 182 l 163 -112 q 151 -135 163 -126 q 118 -144 139 -144 l 118 -144 l 60 -144 q 26 -135 39 -144 q 15 -112 14 -126 l 15 -112 l 58 182 q 101 217 63 217 l 101 217 z "},"-":{"ha":679,"x_min":35,"x_max":644,"o":"m 68 581 l 608 583 q 634 572 625 583 q 643 539 643 560 l 643 539 l 643 386 q 634 353 643 365 q 608 342 625 342 l 608 342 q 68 354 268 342 l 68 354 q 44 366 53 354 q 35 397 35 378 l 35 397 l 35 536 q 44 569 35 557 q 68 581 53 581 l 68 581 z "},".":{"ha":300,"x_min":32,"x_max":268,"o":"m 65 183 q 150 217 97 217 q 235 183 203 217 q 267 96 267 150 q 235 8 267 42 q 150 -25 203 -25 q 65 8 97 -25 q 32 96 32 42 q 65 183 32 150 z "},"/":{"ha":521,"x_min":29,"x_max":497,"o":"m 260 997 l 453 997 q 476 993 467 997 q 492 981 486 989 q 497 963 497 972 l 497 963 l 272 10 q 260 -15 272 -6 q 228 -25 247 -25 l 228 -25 l 76 -25 q 42 -15 56 -25 q 32 10 29 -6 l 32 10 l 217 963 q 260 997 224 997 l 260 997 z "},":":{"ha":317,"x_min":40,"x_max":276,"o":"m 97 201 q 158 215 124 215 q 219 201 193 215 q 260 158 246 186 q 275 94 275 131 l 275 94 q 243 8 275 40 q 158 -25 211 -25 q 73 8 106 -25 q 40 94 40 40 l 40 94 q 55 158 40 131 q 97 201 69 186 z m 243 508 q 158 475 211 475 q 73 508 106 475 q 40 594 40 540 q 73 682 40 649 q 158 715 106 715 q 243 682 211 715 q 275 594 275 649 q 243 508 275 540 z "},";":{"ha":358,"x_min":17,"x_max":324,"o":"m 106 213 l 219 213 q 242 208 232 213 q 258 197 253 204 q 263 178 263 189 l 263 178 l 167 -115 q 155 -140 167 -131 q 122 -149 143 -149 l 122 -149 l 64 -149 q 31 -140 43 -149 q 19 -115 18 -131 l 19 -115 l 63 178 q 106 213 67 213 l 106 213 z m 288 510 q 205 475 254 475 q 122 510 156 475 q 88 594 88 544 q 122 680 88 644 q 204 715 156 715 l 204 715 q 251 706 229 715 q 288 680 272 696 q 313 642 304 664 q 322 594 322 619 l 322 594 q 288 510 322 544 z "},"<":{"ha":697,"x_min":42,"x_max":651,"o":"m 288 489 l 288 489 q 288 460 240 474 l 288 460 q 615 356 439 414 l 615 356 q 650 300 650 344 l 650 300 l 650 146 q 641 118 650 126 q 615 114 632 110 l 615 114 l 75 294 q 51 314 60 299 q 42 350 42 329 l 42 350 l 42 600 q 51 635 42 619 q 75 656 60 650 l 75 656 l 615 835 q 641 832 632 840 q 650 803 650 824 l 650 803 l 650 650 q 615 594 650 606 l 615 594 q 288 489 399 522 z "},"=":{"ha":524,"x_min":40,"x_max":483,"o":"m 64 438 l 458 439 q 482 407 482 439 l 482 407 l 482 297 q 458 265 482 265 l 458 265 q 64 272 219 265 l 64 272 q 47 281 53 272 q 40 304 40 290 l 40 304 l 40 407 q 47 429 40 421 q 64 438 53 438 l 64 438 z m 64 654 l 458 656 q 482 624 482 656 l 482 624 l 482 513 q 458 481 482 481 l 458 481 q 64 489 193 481 l 64 489 q 47 497 53 489 q 40 519 40 506 l 40 519 l 40 622 q 47 645 40 636 q 64 654 53 654 l 64 654 z "},">":{"ha":697,"x_min":46,"x_max":656,"o":"m 81 822 l 621 643 q 638 632 631 640 q 650 612 646 624 q 654 588 654 600 l 654 588 l 654 338 q 645 303 654 318 q 621 282 636 288 l 621 282 l 81 101 q 55 106 64 97 q 46 133 46 114 l 46 133 l 46 288 q 81 343 46 332 l 81 343 q 408 447 258 401 l 408 447 q 408 476 456 461 l 408 476 q 81 582 297 510 l 81 582 q 46 638 46 593 l 46 638 l 46 792 q 55 819 46 811 q 81 822 64 828 l 81 822 z "},"?":{"ha":665,"x_min":31,"x_max":646,"o":"m 236 201 q 297 217 263 217 q 359 201 332 217 q 401 159 386 186 q 415 96 415 132 l 415 96 q 383 8 415 42 q 297 -25 350 -25 q 213 8 244 -25 q 181 96 181 42 l 181 96 q 195 159 181 132 q 236 201 210 186 z m 83 988 l 83 988 q 533 964 374 1071 l 533 964 q 639 789 633 897 l 639 789 q 567 628 644 688 l 567 628 q 475 588 528 597 l 475 588 q 435 567 449 583 q 421 528 421 551 l 421 528 q 408 293 419 476 l 408 293 q 403 276 408 283 q 388 264 399 268 q 365 260 378 260 l 365 260 l 226 260 q 203 264 214 260 q 188 276 193 268 q 183 293 183 283 l 183 293 q 181 633 181 554 l 181 633 q 197 667 181 654 q 233 681 213 681 l 233 681 l 342 681 q 379 706 382 681 l 379 706 q 328 754 376 735 l 328 754 q 83 731 231 792 l 83 731 q 46 732 61 721 q 31 769 31 743 l 31 769 l 31 919 q 83 988 31 972 z "},"@":{"ha":985,"x_min":39,"x_max":944,"o":"m 494 975 l 494 975 q 661 947 586 975 q 788 872 736 919 q 876 760 840 824 q 928 622 913 696 q 944 468 944 547 q 926 310 943 389 l 926 310 q 903 273 922 288 q 860 258 885 258 l 860 258 l 574 257 q 556 265 560 257 q 558 285 551 272 l 558 285 l 607 378 q 613 400 618 393 l 613 400 q 597 388 607 407 l 597 388 q 530 298 572 332 q 443 258 488 264 q 358 265 399 253 q 291 314 317 278 q 265 399 265 350 l 265 399 q 276 456 265 429 q 307 506 286 483 q 365 542 328 529 q 450 556 401 556 l 450 556 q 565 528 519 556 l 565 528 q 517 569 561 557 l 517 569 q 426 576 458 581 q 340 550 394 571 l 340 550 q 318 553 328 544 q 308 572 308 561 l 308 572 l 308 674 q 340 694 308 688 l 340 694 q 407 705 372 701 q 481 708 442 708 q 556 701 521 707 q 624 680 592 694 q 681 642 657 665 q 719 585 706 619 q 733 504 733 550 l 733 504 l 733 411 q 753 375 733 385 q 794 375 774 365 q 818 410 815 385 l 818 410 q 821 501 822 456 q 808 589 819 546 q 781 670 797 632 q 736 740 764 708 q 674 794 708 771 q 594 831 640 818 q 494 843 549 843 l 494 843 q 365 819 424 843 q 267 754 306 794 q 203 661 229 714 q 170 550 176 608 q 170 433 164 492 q 203 322 176 375 q 267 228 229 269 q 365 163 306 188 q 494 139 424 139 l 494 139 q 601 156 551 139 l 601 156 q 635 139 626 164 l 635 139 l 661 64 q 660 43 665 53 q 644 31 656 33 l 644 31 q 494 8 572 8 l 494 8 q 316 42 397 8 q 182 131 235 75 q 92 259 129 186 q 47 412 56 332 q 47 572 39 492 q 92 725 56 653 q 181 853 129 797 q 315 942 233 910 q 494 975 397 975 z m 453 363 l 453 363 q 478 377 469 364 q 487 406 488 390 q 476 435 486 422 q 451 449 467 449 l 451 449 q 426 440 436 449 q 413 418 415 431 q 414 393 411 406 q 427 372 417 381 q 453 363 438 363 z "},"A":{"ha":989,"x_min":-7,"x_max":997,"o":"m 279 1 l 279 1 l 47 1 q 8 17 24 1 q -1 54 -7 32 l -1 54 q 120 508 32 214 q 258 921 208 803 l 258 921 q 276 947 265 936 q 302 965 288 958 q 333 971 317 971 l 333 971 l 656 971 q 700 957 679 971 q 729 921 721 943 l 729 921 q 856 538 775 813 q 990 54 936 263 l 990 54 q 981 17 996 32 q 942 1 965 1 l 942 1 l 697 1 q 658 15 674 1 q 642 54 643 29 l 642 54 q 614 269 635 146 l 614 269 l 368 269 q 335 54 344 139 l 335 54 q 317 15 331 29 q 279 1 303 1 z m 524 678 l 524 678 q 499 735 508 724 q 482 735 490 747 q 458 678 474 722 l 458 678 q 418 518 440 619 l 418 518 l 565 518 q 524 678 543 617 z "},"B":{"ha":935,"x_min":40,"x_max":944,"o":"m 343 4 l 94 4 q 56 19 71 4 q 42 57 40 33 l 42 57 l 68 921 q 83 959 68 944 q 121 974 97 974 l 121 974 l 554 974 q 700 948 635 974 q 803 878 765 922 q 853 780 840 833 q 846 665 867 726 q 772 547 825 603 l 772 547 q 917 228 943 393 l 917 228 q 788 43 896 111 l 788 43 q 544 11 672 -29 l 544 11 q 317 258 390 60 l 317 258 q 292 339 301 296 l 292 339 q 265 360 286 363 l 265 360 q 253 331 244 356 l 253 331 q 254 325 254 328 l 254 325 q 308 215 256 325 q 379 53 361 106 l 379 53 q 376 17 386 31 q 343 4 367 4 l 343 4 z m 489 715 l 432 715 l 432 603 l 489 603 q 546 620 525 603 q 567 659 567 638 q 546 698 567 681 q 489 715 525 715 l 489 715 z m 515 463 l 432 463 l 432 324 l 515 324 q 572 345 551 324 q 593 393 593 367 q 572 441 593 419 q 515 463 551 463 l 515 463 z "},"C":{"ha":890,"x_min":4,"x_max":869,"o":"m 829 75 l 829 75 q 632 -22 736 6 q 431 -35 528 -50 q 252 28 335 -19 q 111 159 169 75 q 32 351 53 243 l 32 351 q 32 622 4 497 l 32 622 q 123 821 58 735 q 269 951 188 907 q 442 1007 350 996 q 615 992 533 1018 q 763 897 697 965 q 856 725 828 828 l 856 725 q 869 558 869 671 l 869 558 q 854 522 869 536 q 815 507 839 507 l 815 507 l 635 507 q 614 510 624 507 q 597 521 604 514 q 586 538 590 528 q 582 558 582 547 l 582 558 q 569 640 582 604 q 534 695 556 676 q 486 722 513 714 q 432 722 460 731 q 381 695 404 714 q 340 640 357 676 q 318 558 322 604 l 318 558 q 394 292 297 358 q 672 331 492 225 l 672 331 q 713 341 693 344 q 744 319 733 338 l 744 319 l 839 150 q 829 75 865 104 z "},"D":{"ha":924,"x_min":36,"x_max":907,"o":"m 340 0 l 92 0 q 53 15 68 0 q 39 54 38 31 l 39 54 q 65 917 63 406 l 65 917 q 80 954 65 940 q 118 969 94 968 l 118 969 q 205 975 174 974 q 294 978 236 976 q 390 977 353 979 q 480 969 426 975 q 571 951 533 963 q 653 922 608 940 q 731 880 699 904 q 795 821 764 856 q 849 743 826 786 l 849 743 q 903 474 906 619 q 850 211 901 329 l 850 211 q 794 118 828 161 q 719 46 761 75 q 632 3 678 17 q 538 3 586 -10 q 447 51 490 15 q 361 159 403 86 q 289 335 319 232 l 289 335 q 272 356 285 351 q 252 350 260 360 q 251 322 244 340 l 251 322 q 306 212 253 321 q 376 50 358 103 l 376 50 q 378 24 381 35 q 365 6 375 13 q 340 0 356 0 l 340 0 z m 618 468 l 618 468 q 544 640 626 589 q 328 658 461 690 l 328 658 l 336 451 q 354 373 339 407 q 394 322 369 339 q 447 297 418 304 q 504 300 475 290 q 558 330 533 310 q 599 386 582 350 q 618 468 615 422 z "},"E":{"ha":850,"x_min":49,"x_max":817,"o":"m 763 1 l 103 1 q 65 16 79 1 q 50 54 50 31 l 50 54 l 58 917 q 73 956 58 942 q 111 971 88 971 l 111 971 l 351 971 q 388 956 378 971 q 388 921 399 942 l 388 921 q 344 849 372 896 q 291 764 315 803 q 247 691 267 725 q 224 649 226 657 l 224 649 q 222 619 217 631 q 240 613 226 608 q 260 636 253 617 l 260 636 q 324 749 275 672 q 415 885 374 826 l 415 885 l 456 943 q 514 971 478 971 l 514 971 l 763 971 q 801 956 786 971 q 815 917 815 942 l 815 917 l 815 739 q 801 701 815 715 q 763 686 786 686 l 763 686 l 376 688 q 358 680 365 688 q 350 661 350 672 l 350 661 l 350 589 q 358 570 350 578 q 376 563 365 563 l 376 563 l 682 563 q 720 548 706 563 q 735 510 735 533 l 735 510 l 735 464 q 720 426 735 440 q 682 411 706 411 l 682 411 l 376 411 q 358 403 365 411 q 350 385 350 396 l 350 385 l 350 311 q 358 292 350 300 q 376 285 365 285 l 376 285 l 763 285 q 801 270 786 285 q 815 232 815 256 l 815 232 l 815 54 q 801 16 815 31 q 763 1 786 1 l 763 1 z "},"F":{"ha":822,"x_min":49,"x_max":817,"o":"m 303 1 l 103 1 q 65 16 79 1 q 50 54 50 31 l 50 54 l 58 917 q 73 956 58 942 q 111 971 88 971 l 111 971 l 351 971 q 388 956 378 971 q 388 921 399 942 l 388 921 q 328 824 369 890 q 258 709 288 758 q 224 649 228 660 l 224 649 q 222 619 217 631 q 240 613 226 608 q 260 636 253 617 l 260 636 q 293 699 269 658 q 344 780 317 739 q 397 858 371 821 q 439 919 422 896 l 439 919 l 456 943 q 514 971 478 971 l 514 971 l 763 971 q 801 956 786 971 q 815 917 815 942 l 815 917 l 815 739 q 801 701 815 715 q 763 686 786 686 l 763 686 l 376 688 q 358 680 365 688 q 350 661 350 672 l 350 661 l 350 589 q 358 570 350 578 q 376 563 365 563 l 376 563 l 682 563 q 720 548 706 563 q 735 510 735 533 l 735 510 l 735 464 q 720 426 735 440 q 682 411 706 411 l 682 411 l 403 411 q 365 397 379 411 q 351 358 351 382 l 351 358 l 356 54 q 341 16 356 31 q 303 1 326 1 l 303 1 z "},"G":{"ha":939,"x_min":17,"x_max":904,"o":"m 618 224 l 618 224 q 558 125 594 171 q 478 47 521 79 q 386 -3 435 14 q 290 -22 338 -21 q 199 -1 243 -24 q 119 65 154 22 q 59 185 83 108 q 26 361 35 261 l 26 361 q 40 607 17 500 l 40 607 q 129 806 64 719 q 277 937 194 892 q 455 992 360 982 q 634 976 550 1003 q 785 881 718 950 q 881 710 853 813 l 881 710 q 894 543 894 656 l 894 543 q 879 506 894 521 q 840 492 864 492 l 840 492 l 661 492 q 622 506 636 492 q 607 543 607 519 l 607 543 q 594 626 607 590 q 559 680 581 661 q 511 707 538 699 q 457 707 485 715 q 406 680 429 699 q 365 625 382 661 q 343 543 349 589 l 343 543 q 343 369 335 465 l 343 369 q 390 264 349 300 q 478 230 431 228 q 565 266 525 232 q 608 357 606 300 l 608 357 q 517 360 560 358 l 517 360 q 492 386 492 360 l 492 386 q 492 412 492 394 q 493 438 493 429 l 493 438 q 501 457 493 450 q 521 464 508 464 l 521 464 q 874 457 572 464 l 874 457 q 884 455 879 457 q 892 449 889 453 q 898 441 896 446 q 900 429 900 436 l 900 429 q 899 222 900 307 l 899 222 l 899 28 q 890 -10 904 6 q 851 -25 876 -25 l 851 -25 l 592 -25 q 557 -10 568 -25 q 554 25 546 4 l 554 25 q 589 99 572 65 q 623 165 606 133 q 647 211 640 197 l 647 211 q 651 239 654 229 q 637 244 647 249 q 618 224 626 240 z "},"H":{"ha":979,"x_min":40,"x_max":939,"o":"m 306 1 l 94 1 q 56 16 71 1 q 42 54 40 31 l 42 54 l 68 917 q 83 956 68 942 q 121 971 97 971 l 121 971 l 303 971 q 341 956 326 971 q 356 917 356 942 l 356 917 l 356 617 l 622 617 l 624 917 q 638 956 624 942 q 676 971 653 971 l 676 971 l 858 971 q 897 956 882 971 q 911 917 911 942 l 911 917 l 938 54 q 923 16 938 31 q 885 1 908 1 l 885 1 l 674 1 q 635 16 650 1 q 621 54 621 31 l 621 54 l 622 368 l 357 368 l 358 54 q 344 16 358 31 q 306 1 329 1 l 306 1 z "},"I":{"ha":425,"x_min":42,"x_max":386,"o":"m 332 1 l 94 1 q 67 8 79 1 q 48 26 54 14 q 42 54 42 38 l 42 54 l 68 917 q 83 956 68 942 q 121 971 97 971 l 121 971 l 303 971 q 340 956 326 971 q 356 917 354 942 l 356 917 l 385 54 q 370 16 385 31 q 332 1 356 1 l 332 1 z "},"J":{"ha":725,"x_min":0,"x_max":681,"o":"m 53 6 l 53 6 q 15 19 29 6 q 0 58 0 33 l 0 58 l 0 250 q 15 291 0 275 q 53 303 29 307 l 53 303 l 199 276 q 254 269 229 271 q 299 271 279 268 q 333 281 318 274 q 359 297 349 288 q 377 319 369 306 q 390 346 385 333 q 397 377 394 358 q 401 411 400 396 q 401 449 401 426 l 401 449 q 404 521 403 479 q 407 610 406 563 q 410 686 408 657 l 410 686 q 405 714 411 701 q 386 733 399 726 q 358 740 374 740 l 358 740 q 239 721 289 740 l 239 721 q 197 725 215 711 q 178 769 178 739 l 178 769 l 178 921 q 192 960 178 946 q 231 974 207 974 l 231 974 l 624 974 q 663 960 649 974 q 678 921 678 946 l 678 921 l 679 329 q 661 197 681 254 q 613 103 642 139 q 537 44 583 68 q 447 11 490 21 q 343 -1 403 1 q 240 -3 283 -4 q 140 2 197 -1 q 53 6 82 6 z "},"K":{"ha":903,"x_min":39,"x_max":879,"o":"m 303 1 l 93 1 q 54 16 69 1 q 40 54 39 31 l 40 54 q 47 222 43 115 q 54 403 51 329 q 60 569 57 476 q 65 749 63 663 q 67 917 67 836 l 67 917 q 81 956 67 942 q 119 971 96 971 l 119 971 l 456 971 q 497 955 481 971 q 508 917 514 939 l 508 917 q 420 657 461 740 q 265 426 379 574 l 265 426 q 266 388 249 401 q 303 401 283 375 l 303 401 q 465 655 417 561 q 565 917 514 749 l 565 917 q 621 971 581 971 l 621 971 l 826 971 q 865 956 850 971 q 878 917 879 942 l 878 917 q 811 648 869 750 q 643 494 753 546 l 643 494 q 811 329 753 436 q 878 54 869 222 l 878 54 q 872 26 878 38 q 853 8 865 14 q 826 1 842 1 l 826 1 l 621 1 q 583 15 599 1 q 565 54 568 29 l 565 54 q 356 361 539 297 l 356 361 l 356 54 q 341 16 356 31 q 303 1 326 1 l 303 1 z "},"L":{"ha":710,"x_min":39,"x_max":711,"o":"m 658 3 l 93 3 q 54 17 69 3 q 40 56 39 32 l 40 56 q 49 265 43 117 q 57 494 54 413 q 63 698 60 576 q 67 919 67 819 l 67 919 q 81 958 67 943 q 119 972 96 972 l 119 972 l 288 972 q 326 958 311 972 q 340 919 340 943 l 340 919 l 343 300 l 658 300 q 697 285 682 300 q 711 247 711 271 l 711 247 l 711 56 q 697 17 711 32 q 658 3 682 3 l 658 3 z "},"M":{"ha":1326,"x_min":39,"x_max":1286,"o":"m 276 3 l 93 3 q 54 17 69 3 q 40 56 39 32 l 40 56 q 49 265 43 117 q 57 494 54 413 q 63 698 60 576 q 67 919 67 819 l 67 919 q 81 958 67 943 q 119 972 96 972 l 119 972 l 396 972 q 464 919 443 972 l 464 919 l 663 417 l 858 919 q 926 972 879 972 l 926 972 l 1206 972 q 1244 958 1229 972 q 1258 919 1258 943 l 1258 919 q 1262 698 1258 819 q 1268 494 1265 576 q 1276 265 1271 413 q 1285 56 1282 117 l 1285 56 q 1271 17 1286 32 q 1232 3 1256 3 l 1232 3 l 1049 3 q 1010 17 1025 3 q 996 56 996 32 l 996 56 l 997 468 q 796 56 957 382 l 796 56 q 728 3 769 3 l 728 3 l 594 3 q 526 56 554 3 l 526 56 q 329 461 386 338 l 329 461 l 331 56 q 316 17 331 32 q 276 3 301 3 l 276 3 z "},"N":{"ha":942,"x_min":39,"x_max":903,"o":"m 276 3 l 93 3 q 54 17 69 3 q 40 56 39 32 l 40 56 q 49 265 43 117 q 57 494 54 413 q 63 698 60 576 q 67 919 67 819 l 67 919 q 81 958 67 943 q 119 972 96 972 l 119 972 l 396 972 q 438 958 419 972 q 464 919 457 943 l 464 919 q 519 727 496 799 q 553 626 542 656 q 597 526 565 597 q 656 396 629 456 l 656 396 q 681 374 661 372 q 697 400 701 376 l 697 400 q 693 408 696 404 l 693 408 q 649 505 674 453 q 616 578 624 557 q 597 626 608 599 q 581 694 586 653 q 571 778 576 736 q 553 919 565 819 l 553 919 q 566 958 550 943 q 607 972 582 972 l 607 972 l 822 972 q 860 958 846 972 q 875 919 875 943 l 875 919 q 878 698 875 819 q 885 494 882 576 q 893 265 888 413 q 901 56 899 117 l 901 56 q 888 17 903 32 q 849 3 872 3 l 849 3 l 594 3 q 526 56 553 3 l 526 56 q 329 461 386 338 l 329 461 l 331 56 q 316 17 331 32 q 276 3 301 3 l 276 3 z "},"O":{"ha":921,"x_min":6,"x_max":917,"o":"m 444 -33 l 444 -33 q 231 24 324 -33 q 92 172 138 81 q 26 375 46 264 q 31 597 6 486 q 107 800 57 708 q 249 950 157 892 q 457 1008 342 1008 l 457 1008 q 667 953 574 1010 q 812 804 761 896 q 889 601 863 713 q 894 378 915 490 q 824 174 874 267 q 675 24 775 82 q 444 -33 575 -33 z m 463 710 l 463 710 q 400 665 425 713 q 368 547 375 617 q 367 408 361 478 q 397 288 372 338 q 457 235 421 238 l 457 235 q 520 281 494 233 q 553 397 546 328 q 555 537 560 467 q 525 657 550 607 q 463 710 500 707 z "},"P":{"ha":867,"x_min":35,"x_max":864,"o":"m 393 3 l 90 3 q 51 17 67 3 q 38 56 36 32 l 38 56 q 64 918 61 372 l 64 918 q 78 956 64 942 q 117 971 93 971 l 117 971 q 273 973 153 974 q 433 972 393 972 l 433 972 q 621 944 536 975 q 758 862 706 914 q 836 744 810 810 q 858 611 863 679 l 858 611 q 823 463 851 529 q 751 356 794 397 q 653 292 708 314 q 543 271 599 269 q 431 298 488 272 q 331 372 375 324 l 331 372 q 289 388 304 401 l 289 388 q 294 353 276 376 l 294 353 q 395 206 368 257 q 446 56 422 154 l 446 56 q 434 17 450 32 q 393 3 418 3 l 393 3 z m 413 714 l 413 714 l 413 593 q 539 536 482 511 l 539 536 q 576 601 579 553 l 576 601 q 501 694 574 663 l 501 694 q 413 714 463 710 z "},"Q":{"ha":885,"x_min":13,"x_max":869,"o":"m 401 -32 l 401 -32 q 154 76 254 -32 q 33 337 54 183 q 40 644 13 490 q 177 904 68 797 q 443 1008 286 1011 l 443 1008 q 638 953 551 1007 q 773 814 724 899 q 845 622 822 729 q 860 412 868 515 q 816 215 853 308 q 718 63 779 121 l 718 63 l 746 -7 q 731 -51 756 -35 l 731 -51 l 628 -112 q 579 -107 601 -129 l 579 -107 q 519 -12 547 -56 q 478 49 490 31 q 422 124 465 67 q 361 207 379 181 l 361 207 q 324 225 342 233 l 324 225 q 324 190 306 217 l 324 190 q 326 186 325 188 l 326 186 q 384 121 329 183 q 446 49 439 58 l 446 49 q 467 -10 475 13 q 401 -32 458 -32 z m 449 710 l 449 710 q 385 665 411 713 q 353 547 360 617 q 353 408 347 478 q 383 288 358 338 q 443 235 407 238 l 443 235 q 506 281 479 233 q 538 397 532 328 q 540 537 544 467 q 510 657 535 607 q 449 710 485 707 z "},"R":{"ha":939,"x_min":36,"x_max":917,"o":"m 394 1 l 92 1 q 53 16 68 1 q 39 54 38 31 l 39 54 q 65 918 63 371 l 65 918 q 72 945 65 933 q 91 963 79 957 q 118 971 103 969 l 118 971 q 294 972 154 972 q 474 972 435 971 l 474 972 q 630 953 557 974 q 755 899 703 933 q 844 817 807 864 q 899 717 882 769 q 911 609 915 665 q 882 501 907 553 q 806 403 857 450 q 682 325 754 357 l 682 325 q 690 321 685 324 q 713 313 696 318 q 748 303 731 307 q 790 301 765 300 q 839 311 815 303 l 839 311 q 874 314 863 319 q 885 285 885 308 l 885 285 l 885 54 q 870 14 885 31 q 832 -4 856 -3 l 832 -4 q 763 -9 793 -8 q 705 -6 733 -10 q 656 1 676 -1 q 613 18 636 4 q 575 40 589 32 q 539 73 561 49 q 504 112 517 97 q 467 163 492 126 q 428 221 442 199 q 382 292 414 243 l 382 292 q 376 302 378 299 q 369 313 374 306 q 362 324 365 319 q 355 334 358 328 q 347 346 351 340 l 347 346 q 332 371 336 363 l 332 371 q 294 390 314 401 l 294 390 q 296 351 278 376 l 296 351 q 397 204 369 256 q 447 54 424 153 l 447 54 q 435 17 450 32 q 394 1 419 1 l 394 1 z m 414 713 l 414 713 l 414 592 q 540 535 483 510 l 540 535 q 578 600 581 551 l 578 600 q 503 693 575 661 l 503 693 q 414 713 464 710 z "},"S":{"ha":926,"x_min":25,"x_max":907,"o":"m 353 407 l 353 407 q 216 431 278 408 q 115 488 154 453 q 53 568 76 522 q 28 662 31 614 q 41 758 25 710 q 90 846 57 806 q 178 917 124 886 q 301 960 232 947 l 301 960 q 535 975 392 978 q 789 944 679 972 l 789 944 q 835 914 818 939 q 853 857 853 889 l 853 857 l 853 657 q 836 613 853 625 q 789 611 819 601 l 789 611 q 593 647 682 644 q 408 622 504 649 l 408 622 q 361 582 364 611 l 361 582 q 388 550 360 557 l 388 550 q 410 551 397 549 l 410 551 q 639 574 538 582 l 639 574 q 788 525 725 565 q 878 428 850 485 q 906 306 907 372 q 876 180 906 239 q 785 76 847 121 q 639 15 724 31 l 639 15 q 388 0 549 -3 q 117 31 228 3 l 117 31 q 70 62 88 38 q 53 118 53 86 l 53 118 l 53 336 q 70 381 53 367 q 117 385 88 394 l 117 385 q 346 340 232 347 q 532 353 460 333 l 532 353 q 572 390 571 361 l 572 390 q 547 419 575 414 l 547 419 q 528 419 539 421 l 528 419 q 353 407 447 406 z "},"T":{"ha":842,"x_min":-1,"x_max":842,"o":"m 53 649 l 53 649 q 15 663 29 649 q 0 701 0 678 l 0 701 l 0 917 q 15 957 0 942 q 53 972 29 972 l 53 972 l 789 972 q 827 957 813 972 q 842 917 842 942 l 842 917 l 842 701 q 827 663 842 678 q 789 649 813 649 l 789 649 q 553 657 731 649 l 553 657 l 582 56 q 568 17 583 32 q 529 3 553 3 l 529 3 l 275 3 q 230 17 247 3 q 213 56 213 32 l 213 56 q 246 656 242 592 l 246 656 q 53 649 110 649 z "},"U":{"ha":888,"x_min":21,"x_max":869,"o":"m 846 485 l 851 382 q 714 50 868 168 l 714 50 q 410 -37 586 -49 l 410 -37 q 126 90 232 -26 l 126 90 q 36 382 22 204 l 36 382 q 60 911 57 775 l 60 911 q 79 956 60 939 q 129 972 99 972 l 129 972 l 307 972 q 347 958 332 972 q 361 921 361 944 l 361 921 l 363 372 q 384 288 363 319 q 440 250 406 257 l 440 250 q 513 204 499 239 l 513 204 q 554 86 544 121 l 554 86 q 579 65 560 61 l 579 65 q 592 94 600 69 l 592 94 q 590 100 592 97 l 590 100 q 561 169 576 136 q 541 211 546 201 q 531 243 536 221 q 525 289 525 265 q 525 367 525 313 l 525 367 l 525 372 l 528 921 q 542 958 528 944 q 581 972 556 972 l 581 972 l 758 972 q 808 956 789 972 q 828 911 828 939 l 828 911 q 835 719 829 851 q 846 485 840 586 l 846 485 z "},"V":{"ha":947,"x_min":-8,"x_max":956,"o":"m 639 0 l 308 0 q 272 15 289 0 q 246 53 254 29 l 246 53 q 0 915 115 439 l 0 915 q -1 955 -8 940 q 25 969 6 969 l 25 969 l 257 969 q 299 954 278 969 q 326 915 319 939 l 326 915 l 474 371 l 621 915 q 648 954 626 939 q 690 969 669 969 l 690 969 l 922 969 q 949 955 942 969 q 947 915 956 940 l 947 915 q 701 53 828 421 l 701 53 q 676 14 693 28 q 639 0 660 0 l 639 0 z "},"W":{"ha":1482,"x_min":-8,"x_max":1490,"o":"m 246 57 l 246 57 q 0 919 115 443 l 0 919 q -1 959 -8 944 q 25 974 6 974 l 25 974 l 257 974 q 299 958 278 974 q 326 919 319 943 l 326 919 q 380 723 350 835 q 432 525 410 611 l 432 525 q 442 440 446 471 q 403 299 438 408 l 403 299 q 410 264 393 267 l 410 264 q 432 285 424 263 l 432 285 q 489 460 467 365 q 536 696 511 556 q 581 919 561 836 l 581 919 q 607 958 585 943 q 651 974 629 974 l 651 974 l 831 974 q 874 958 851 974 q 901 919 896 943 l 901 919 q 933 779 917 849 q 964 642 949 710 q 996 501 979 575 l 996 501 q 1001 459 1000 474 q 996 421 1001 444 q 985 383 990 397 q 971 343 981 369 q 956 296 961 317 l 956 296 q 956 266 950 276 q 972 260 961 256 q 988 283 982 264 l 988 283 q 1085 635 1029 401 q 1154 919 1140 869 l 1154 919 q 1171 947 1160 935 q 1197 967 1182 960 q 1225 974 1211 974 l 1225 974 l 1456 974 q 1483 959 1476 974 q 1482 919 1489 944 l 1482 919 q 1235 57 1365 443 l 1235 57 q 1210 19 1228 33 q 1174 4 1193 4 l 1174 4 l 896 4 q 858 18 875 4 q 833 57 842 32 l 833 57 q 763 360 790 189 l 763 360 q 715 360 739 506 l 715 360 q 649 57 685 178 l 649 57 q 634 28 643 40 q 613 10 625 17 q 586 4 600 4 l 586 4 l 308 4 q 272 19 289 4 q 246 57 254 33 z "},"X":{"ha":1039,"x_min":-8,"x_max":1050,"o":"m 11 919 l 11 919 q -3 959 -7 944 q 26 974 1 974 l 26 974 l 313 974 q 347 968 329 974 q 380 950 364 963 q 404 919 396 938 l 404 919 q 467 783 433 863 l 467 783 q 480 747 479 756 q 472 704 481 738 l 472 704 q 438 633 461 676 q 415 588 415 589 l 415 588 q 415 568 410 576 q 428 561 419 560 q 443 571 438 563 l 443 571 q 503 685 465 611 q 572 813 542 760 q 636 919 601 867 l 636 919 q 661 949 646 936 q 694 967 676 961 q 726 974 711 974 l 726 974 l 1014 974 q 1042 959 1038 974 q 1028 919 1046 944 l 1028 919 q 703 453 875 696 l 703 453 q 1029 57 861 235 l 1029 57 q 1045 20 1050 36 q 1017 4 1040 4 l 1017 4 l 714 4 q 664 19 690 4 q 621 57 638 33 l 621 57 q 521 197 532 182 l 521 197 q 418 57 476 136 l 418 57 q 376 19 401 33 q 326 4 350 4 l 326 4 l 24 4 q -3 19 0 4 q 10 57 -7 33 l 10 57 l 317 481 q 11 919 132 742 z "},"Y":{"ha":1007,"x_min":-24,"x_max":1031,"o":"m 451 574 l 606 919 q 644 960 618 947 q 697 974 671 974 l 697 974 l 997 974 q 1025 959 1021 974 q 1013 919 1029 944 l 1013 919 q 686 453 858 696 l 686 453 l 697 57 q 682 14 699 24 q 636 4 665 4 l 636 4 l 357 4 q 306 57 306 4 l 306 57 l 300 453 l -6 919 q -18 959 -22 944 q 10 974 -14 974 l 10 974 l 322 974 q 356 968 339 974 q 390 950 374 963 q 414 919 406 938 l 414 919 q 476 783 443 863 l 476 783 q 490 746 489 754 q 482 704 492 738 l 482 704 q 462 657 475 683 q 438 611 449 631 q 425 588 426 592 l 425 588 q 430 564 417 569 q 451 574 443 558 l 451 574 z "},"Z":{"ha":933,"x_min":4,"x_max":957,"o":"m 849 4 l 64 1 q 19 8 35 1 q 5 33 4 14 q 28 86 6 53 l 28 86 l 396 658 l 93 660 q 59 674 72 660 q 47 713 46 689 l 47 713 l 47 919 q 64 959 50 944 q 100 974 78 974 l 100 974 l 836 975 q 893 865 956 972 l 893 865 q 681 526 822 750 q 474 194 539 303 l 474 194 q 475 161 458 167 l 475 161 q 506 179 492 157 l 506 179 q 522 210 514 196 q 534 233 529 224 q 547 255 539 242 q 563 283 554 268 l 563 283 q 576 304 569 294 q 591 319 583 314 q 605 328 599 325 q 619 334 611 332 q 632 337 626 336 q 646 338 638 338 l 646 338 l 868 336 q 904 322 892 336 q 915 283 917 307 l 915 283 l 901 57 q 886 19 901 33 q 849 4 871 4 l 849 4 z "},"[":{"ha":519,"x_min":53,"x_max":475,"o":"m 422 744 l 388 744 q 353 731 365 744 q 340 696 340 718 l 340 696 l 343 293 q 356 258 343 271 q 390 246 368 246 l 390 246 l 422 246 q 460 231 446 246 q 475 192 475 217 l 475 192 l 475 11 q 460 -27 475 -12 q 422 -42 446 -42 l 422 -42 l 106 -43 q 67 -28 82 -43 q 53 10 53 -14 l 53 10 q 67 979 53 664 l 67 979 q 81 1017 67 1003 q 119 1032 94 1032 l 119 1032 l 422 1032 q 460 1017 446 1032 q 475 979 475 1003 l 475 979 l 475 799 q 460 759 475 774 q 422 744 446 744 l 422 744 z "},"\\":{"ha":521,"x_min":24,"x_max":492,"o":"m 304 963 l 488 10 q 477 -15 490 -6 q 444 -25 464 -25 l 444 -25 l 292 -25 q 269 -20 279 -25 q 254 -8 260 -15 q 249 10 249 0 l 249 10 l 24 963 q 35 988 24 978 q 67 997 47 997 l 67 997 l 260 997 q 304 963 297 997 l 304 963 z "},"]":{"ha":519,"x_min":44,"x_max":467,"o":"m 453 979 l 453 979 q 467 10 467 664 l 467 10 q 452 -28 467 -14 q 414 -43 438 -43 l 414 -43 l 97 -42 q 59 -27 74 -42 q 44 11 44 -12 l 44 11 l 44 192 q 59 231 44 217 q 97 244 74 244 l 97 244 l 129 244 q 164 258 151 244 q 176 293 176 271 l 176 293 l 179 696 q 174 722 179 711 q 157 739 168 733 q 132 744 146 744 l 132 744 l 97 744 q 59 759 74 744 q 44 799 44 774 l 44 799 l 44 979 q 59 1017 44 1003 q 97 1032 74 1032 l 97 1032 l 400 1032 q 438 1017 424 1032 q 453 979 453 1003 z "},"^":{"ha":640,"x_min":21,"x_max":618,"o":"m 467 913 l 606 614 q 593 582 618 589 l 593 582 l 449 547 q 418 558 428 540 l 418 558 l 321 758 l 221 558 q 190 547 213 540 l 190 547 l 47 582 q 33 614 22 589 l 33 614 l 176 919 q 213 942 186 942 l 213 942 l 428 942 q 467 913 454 942 l 467 913 z "},"_":{"ha":679,"x_min":35,"x_max":644,"o":"m 68 246 l 608 249 q 634 237 625 249 q 643 204 643 225 l 643 204 l 643 51 q 634 19 643 31 q 608 7 625 7 l 608 7 q 68 19 268 7 l 68 19 q 44 31 53 19 q 35 63 35 43 l 35 63 l 35 201 q 39 225 35 215 q 51 240 43 235 q 68 246 58 246 l 68 246 z "},"`":{"ha":315,"x_min":26,"x_max":285,"o":"m 228 957 l 279 671 q 264 656 283 656 l 264 656 l 164 656 q 142 671 149 656 l 142 671 l 31 957 q 32 969 28 965 q 44 974 36 974 l 44 974 l 204 974 q 228 957 224 974 l 228 957 z "},"a":{"ha":840,"x_min":17,"x_max":803,"o":"m 143 733 l 143 733 q 256 751 199 744 q 380 755 314 757 q 505 742 446 753 q 619 707 564 732 q 714 644 674 682 q 778 547 754 607 q 803 413 803 488 l 803 413 l 803 54 q 788 16 803 31 q 750 1 774 1 l 750 1 l 533 1 q 503 14 511 1 q 506 47 496 26 l 506 47 l 589 201 q 599 240 611 232 l 599 240 q 574 218 588 249 l 574 218 q 482 86 539 139 q 364 14 425 33 q 240 -1 303 -6 q 129 33 178 4 q 49 116 81 63 q 18 236 18 169 l 18 236 q 28 314 18 276 q 61 385 38 351 q 119 444 85 419 q 207 485 154 469 q 326 501 260 501 l 326 501 q 521 453 442 501 l 521 453 q 439 522 514 501 l 439 522 q 333 538 382 538 q 243 526 285 538 q 143 489 201 514 l 143 489 q 106 494 122 481 q 89 525 89 507 l 89 525 l 89 697 q 102 720 89 713 q 143 733 115 728 z m 331 178 l 331 178 q 383 214 368 178 q 381 285 397 250 q 329 321 365 321 l 329 321 q 271 285 288 321 q 272 213 254 249 q 331 178 289 176 z "},"b":{"ha":854,"x_min":43,"x_max":858,"o":"m 507 740 l 507 740 q 788 556 703 722 l 788 556 q 822 251 857 417 l 822 251 q 686 32 789 97 l 686 32 q 574 -1 635 0 l 574 -1 q 417 50 496 -3 q 272 213 339 103 l 272 213 q 246 231 253 242 l 246 231 q 256 194 238 221 l 256 194 q 335 50 297 126 l 335 50 q 336 15 344 28 q 304 1 328 1 l 304 1 l 97 1 q 58 16 74 1 q 44 54 43 31 l 44 54 l 58 921 q 73 959 58 944 q 111 974 88 974 l 111 974 l 279 974 q 317 959 303 974 q 332 921 332 944 l 332 921 l 332 713 q 507 740 421 749 z m 508 258 l 508 258 q 556 292 539 258 q 572 364 572 325 q 553 435 571 403 q 507 468 536 468 l 507 468 q 462 447 481 468 q 439 394 443 425 q 440 331 435 363 q 463 278 444 300 q 508 258 482 257 z "},"c":{"ha":789,"x_min":15,"x_max":776,"o":"m 563 313 l 735 269 q 767 247 758 264 q 765 208 776 229 l 765 208 q 617 51 717 108 q 406 -7 518 -7 l 406 -7 q 239 26 314 -7 q 117 111 164 58 q 45 231 71 164 q 18 369 19 299 q 40 508 17 440 q 108 631 64 576 q 227 721 153 686 q 393 760 301 756 l 393 760 q 613 713 510 764 q 764 563 715 661 l 764 563 q 766 524 775 542 q 733 501 757 507 l 733 501 l 563 458 q 517 465 539 453 q 468 494 494 478 q 414 513 442 511 l 414 513 q 310 439 336 514 l 310 439 q 322 308 286 369 l 322 308 q 421 257 356 249 l 421 257 q 462 269 442 258 q 494 292 482 281 q 525 310 507 303 q 563 313 543 317 l 563 313 z "},"d":{"ha":854,"x_min":18,"x_max":811,"o":"m 796 921 l 796 921 l 810 54 q 796 16 811 31 q 757 1 781 1 l 757 1 l 550 1 q 518 15 526 1 q 519 49 510 28 l 519 49 q 542 94 531 71 q 564 134 554 117 q 581 165 574 151 q 593 188 589 179 l 593 188 l 597 194 q 608 232 618 224 l 608 232 q 582 213 599 239 l 582 213 q 432 47 513 100 q 271 -1 351 -7 l 271 -1 q 178 26 222 1 q 105 91 135 51 q 53 181 75 131 q 26 289 32 232 q 23 403 19 346 q 49 516 26 461 q 105 615 71 571 q 194 692 139 660 q 317 736 249 724 l 317 736 q 522 713 417 754 l 522 713 l 522 921 q 537 959 522 944 q 575 974 551 974 l 575 974 l 743 974 q 781 959 767 974 q 796 921 796 944 z m 346 258 l 346 258 q 391 278 372 257 q 415 331 410 300 q 415 394 419 363 q 392 447 411 425 q 347 468 374 468 l 347 468 q 301 435 318 468 q 283 364 283 403 q 299 292 282 325 q 346 258 315 258 z "},"e":{"ha":815,"x_min":15,"x_max":803,"o":"m 800 443 l 800 443 q 788 406 803 421 q 750 390 774 390 l 750 390 l 303 390 q 324 322 304 353 q 370 276 343 292 q 428 262 397 261 q 481 282 458 263 l 481 282 q 563 313 526 322 l 563 313 l 735 271 q 767 247 758 264 q 767 208 776 229 l 767 208 q 606 44 715 103 q 378 -6 497 -14 l 378 -6 q 219 35 289 0 q 106 125 149 71 q 40 246 63 179 q 18 382 17 313 q 44 517 19 451 q 115 636 69 583 q 232 722 160 689 q 393 760 304 756 l 393 760 q 576 731 490 764 q 725 624 663 699 q 800 443 788 549 z m 314 456 l 314 456 l 507 456 q 449 506 489 492 q 371 506 410 519 q 314 456 332 493 z "},"f":{"ha":696,"x_min":-7,"x_max":707,"o":"m 236 971 l 653 971 q 681 964 668 971 q 699 945 693 957 q 706 918 706 933 l 706 918 l 706 736 q 639 678 706 678 l 639 678 l 421 679 q 385 689 403 679 q 356 713 368 699 q 333 744 343 728 q 315 777 322 760 q 305 805 308 794 q 300 821 301 815 l 300 821 q 276 842 294 846 l 276 842 q 268 808 258 836 l 268 808 q 283 773 272 794 q 316 717 294 751 q 369 658 338 682 q 433 633 400 633 l 433 633 l 615 633 q 629 628 624 633 q 635 615 635 622 l 635 615 l 635 588 q 629 574 635 579 q 615 568 624 568 l 615 568 l 450 568 q 433 550 433 568 l 433 550 l 460 54 q 446 16 461 31 q 407 1 431 1 l 407 1 l 171 1 q 131 16 146 1 q 117 54 117 31 l 117 54 l 113 550 q 107 563 113 558 q 93 568 101 568 l 93 568 l 22 568 q 9 574 14 568 q 4 588 4 579 l 4 588 l 4 615 q 9 628 4 622 q 22 633 14 633 l 22 633 l 126 633 q 48 682 79 650 q 5 751 17 714 q 2 827 -7 788 q 38 899 11 867 q 117 951 65 931 q 236 971 168 971 l 236 971 z "},"g":{"ha":890,"x_min":1,"x_max":842,"o":"m 533 740 l 789 740 q 827 726 813 740 q 842 688 842 711 l 842 688 l 842 56 q 810 -103 842 -32 q 724 -218 778 -174 q 603 -293 671 -262 q 460 -335 535 -324 q 315 -345 386 -346 q 182 -332 244 -344 l 182 -332 q 141 -319 154 -326 q 128 -296 128 -311 l 128 -296 l 128 -72 q 144 -41 128 -54 q 182 -36 161 -28 l 182 -36 q 292 -58 228 -56 q 419 -45 357 -60 q 532 8 482 -31 q 597 101 582 47 l 597 101 q 593 135 606 133 l 593 135 q 576 117 583 136 l 576 117 l 575 114 q 510 38 557 65 q 399 6 463 10 l 399 6 q 83 151 185 -8 l 83 151 q 26 446 1 278 l 26 446 q 153 689 49 607 l 153 689 q 306 742 219 742 l 306 742 q 453 687 382 742 q 572 524 524 632 l 572 524 q 596 500 585 497 l 596 500 q 594 532 610 504 l 594 532 q 589 540 592 536 l 589 540 q 506 694 538 635 l 506 694 q 502 728 494 715 q 533 740 510 740 l 533 740 z m 381 282 l 381 282 q 424 313 408 288 q 440 372 440 339 q 432 435 440 404 q 401 485 424 467 q 351 500 379 504 l 351 500 q 303 470 321 496 q 284 411 285 444 q 292 347 283 378 q 326 297 301 315 q 381 282 350 278 z "},"h":{"ha":836,"x_min":47,"x_max":803,"o":"m 752 567 q 793 414 783 500 q 803 54 803 328 l 803 54 q 776 17 803 32 q 724 1 750 1 l 724 1 l 565 1 q 525 15 540 1 q 513 54 510 29 l 513 54 q 513 222 513 54 l 513 222 q 422 536 500 535 l 422 536 q 339 54 319 533 l 339 54 q 332 26 339 39 q 313 8 325 14 q 285 1 301 1 l 285 1 l 101 1 q 63 16 78 1 q 49 54 47 31 l 49 54 l 51 918 q 66 956 51 942 q 104 971 81 971 l 104 971 l 358 971 q 393 911 419 971 l 393 911 q 321 778 368 860 q 238 642 274 697 l 238 642 l 203 586 q 199 544 182 557 l 199 544 q 225 560 213 536 l 225 560 q 228 567 226 563 l 228 567 q 284 656 246 617 q 370 714 322 694 q 472 739 418 733 q 579 726 526 744 q 676 670 632 707 q 752 567 721 633 z "},"i":{"ha":378,"x_min":42,"x_max":342,"o":"m 329 581 l 329 581 q 328 442 329 524 q 328 313 328 360 q 331 195 328 265 q 339 53 333 125 l 339 53 q 333 25 340 38 q 313 6 326 13 q 283 0 300 0 l 283 0 l 99 0 q 58 15 74 0 q 43 53 42 29 l 43 53 q 45 317 46 147 q 49 581 44 486 l 49 581 q 65 618 50 604 q 106 633 79 632 l 106 633 q 272 633 188 638 l 272 633 q 302 626 289 633 q 322 608 315 619 q 329 581 329 596 z m 302 869 q 332 789 332 836 q 302 710 332 742 q 231 670 272 678 q 147 670 189 663 q 75 710 104 678 q 46 789 46 742 q 75 869 46 836 q 147 908 104 901 q 231 908 189 915 q 302 869 272 901 z "},"j":{"ha":379,"x_min":-232,"x_max":340,"o":"m 328 589 l 328 589 q 335 242 329 507 q 339 -140 340 -24 l 339 -140 q 319 -222 339 -186 q 269 -281 299 -258 q 196 -318 240 -303 q 112 -340 151 -333 q 21 -347 72 -346 q -60 -348 -31 -349 q -131 -344 -90 -347 q -174 -342 -171 -342 l -174 -342 q -212 -326 -199 -342 q -228 -285 -226 -311 l -228 -285 q -228 -108 -231 -199 l -228 -108 q -223 -85 -226 -96 q -212 -67 -219 -74 q -196 -56 -206 -60 q -174 -51 -186 -51 l -174 -51 l -8 -51 q 30 -37 15 -51 q 44 0 44 -24 l 44 0 q 47 589 44 483 l 47 589 q 64 626 49 613 q 104 642 79 640 l 104 642 q 271 642 186 646 l 271 642 q 313 626 297 640 q 328 589 328 613 z m 182 668 l 182 668 q 113 685 144 668 q 64 730 82 701 q 46 792 46 758 l 46 792 q 85 878 46 842 q 182 914 125 914 l 182 914 q 250 897 218 914 q 300 853 282 881 q 318 792 318 825 l 318 792 q 278 704 318 740 q 182 668 238 668 z "},"k":{"ha":803,"x_min":46,"x_max":768,"o":"m 703 303 l 703 303 q 745 293 731 303 q 760 260 760 283 l 760 260 l 767 42 q 757 13 768 24 q 726 1 746 1 l 726 1 l 481 1 q 472 1 479 1 q 463 1 465 1 q 456 2 461 1 q 447 4 450 3 q 440 7 444 6 q 432 12 435 8 q 424 20 429 15 q 415 31 419 25 q 406 46 411 38 l 406 46 q 308 263 358 125 l 308 263 q 281 283 299 286 l 281 283 q 271 249 260 276 l 271 249 q 299 189 283 222 q 322 140 315 156 q 340 98 329 125 q 363 35 350 71 l 363 35 q 360 10 367 19 q 338 1 353 1 l 338 1 l 103 1 q 62 16 78 1 q 47 54 46 31 l 47 54 q 49 486 50 149 q 53 918 49 824 l 53 918 q 69 956 54 942 q 110 971 83 969 l 110 971 l 276 971 q 317 956 301 969 q 333 918 333 942 l 333 918 q 326 739 333 876 q 318 518 318 601 l 318 518 q 419 574 383 533 q 464 696 454 615 l 464 696 q 506 736 468 736 l 506 736 l 726 736 q 756 725 744 736 q 767 696 768 714 l 767 696 q 747 535 763 599 q 693 427 731 472 q 601 356 656 382 q 461 311 547 331 l 461 311 q 437 303 436 306 q 463 300 438 300 l 463 300 q 703 303 583 303 z "},"l":{"ha":386,"x_min":46,"x_max":346,"o":"m 333 918 l 333 918 q 333 667 333 876 q 334 302 332 458 q 343 54 336 146 l 343 54 q 330 16 346 31 q 288 1 314 1 l 288 1 l 103 1 q 62 16 78 1 q 47 54 46 31 l 47 54 q 49 486 50 149 q 53 918 49 824 l 53 918 q 60 945 53 933 q 79 963 67 957 q 110 971 92 969 l 110 971 l 276 971 q 306 963 293 969 q 326 945 319 957 q 333 918 333 933 z "},"m":{"ha":1303,"x_min":46,"x_max":1268,"o":"m 1258 414 l 1258 414 q 1268 54 1268 329 l 1268 54 q 1242 17 1268 32 q 1189 1 1215 1 l 1189 1 l 1032 1 q 991 15 1007 1 q 978 54 975 29 l 978 54 q 978 222 978 54 l 978 222 q 888 536 967 536 l 888 536 q 801 222 803 533 l 801 222 q 801 138 801 218 q 801 54 801 57 l 801 54 q 775 17 801 32 q 722 1 749 1 l 722 1 l 564 1 q 524 15 539 1 q 511 54 508 29 l 511 54 q 511 222 511 54 l 511 222 q 421 536 499 535 l 421 536 q 338 54 318 533 l 338 54 q 323 16 338 31 q 283 1 308 1 l 283 1 l 100 1 q 61 16 76 1 q 47 54 46 31 l 47 54 l 50 682 q 65 722 50 707 q 103 736 79 736 l 103 736 l 331 736 q 347 717 346 736 q 339 676 349 697 l 339 676 q 288 574 314 624 q 247 499 263 524 l 247 499 l 233 474 q 231 433 213 444 l 231 433 q 257 449 244 424 l 257 449 q 258 454 258 451 l 258 454 q 335 600 289 538 q 430 694 381 663 q 532 732 479 726 q 631 715 585 738 q 716 640 678 693 q 775 508 754 588 l 775 508 q 859 641 811 588 q 956 717 907 694 q 1056 731 1006 739 q 1147 688 1106 724 q 1218 582 1188 653 q 1258 414 1249 511 z "},"n":{"ha":836,"x_min":46,"x_max":801,"o":"m 792 414 l 792 414 q 801 54 801 328 l 801 54 q 775 17 801 32 q 722 1 749 1 l 722 1 l 564 1 q 524 15 539 1 q 511 54 508 29 l 511 54 q 511 222 511 54 l 511 222 q 421 536 499 535 l 421 536 q 338 54 318 533 l 338 54 q 331 26 338 39 q 312 8 324 14 q 283 1 300 1 l 283 1 l 100 1 q 61 16 76 1 q 47 54 46 31 l 47 54 l 50 682 q 65 722 50 707 q 103 736 79 736 l 103 736 l 331 736 q 347 717 346 736 q 339 676 349 697 l 339 676 q 307 610 324 643 q 278 554 290 578 q 255 512 265 531 q 239 483 244 493 l 239 483 l 233 474 q 231 433 213 444 l 231 433 q 257 449 244 424 l 257 449 q 258 454 258 451 l 258 454 q 342 611 292 546 q 448 706 393 676 q 560 733 503 735 q 664 696 617 731 q 746 588 711 661 q 792 414 781 515 z "},"o":{"ha":790,"x_min":17,"x_max":772,"o":"m 392 751 l 392 751 q 542 727 474 753 q 655 658 611 701 q 729 557 699 614 q 766 437 760 500 q 765 310 772 374 q 728 189 758 247 q 656 86 699 131 q 548 14 613 42 q 406 -15 483 -14 l 406 -15 q 255 8 324 -17 q 142 77 186 33 q 65 178 97 121 q 26 299 33 236 q 23 426 18 363 q 58 549 28 490 q 131 652 88 607 q 242 724 174 697 q 392 751 310 751 z m 394 264 l 394 264 q 449 301 431 265 q 467 379 468 336 q 447 458 467 422 q 394 493 428 493 l 394 493 q 346 469 365 493 q 322 412 326 446 q 323 344 318 378 q 347 288 328 311 q 394 264 367 264 z "},"p":{"ha":856,"x_min":44,"x_max":840,"o":"m 575 744 l 575 744 q 701 701 644 742 q 789 596 757 660 q 831 452 821 532 q 825 296 840 372 q 762 150 810 219 q 640 40 714 81 l 640 40 q 464 4 553 -7 q 333 82 375 15 l 333 82 l 333 -290 q 319 -328 333 -314 q 281 -343 304 -343 l 281 -343 l 113 -343 q 74 -328 89 -343 q 60 -290 60 -314 l 60 -290 l 46 689 q 60 727 44 713 q 99 742 75 742 l 99 742 l 306 742 q 338 728 329 742 q 336 693 346 715 l 336 693 q 300 623 319 660 q 269 568 281 586 l 269 568 l 257 549 q 247 511 238 519 l 247 511 q 272 528 256 504 l 272 528 q 274 531 272 529 l 274 531 q 419 693 340 640 q 575 744 497 746 z m 508 275 l 508 275 q 555 308 538 275 q 573 379 572 340 q 557 451 574 418 q 510 485 540 485 l 510 485 q 465 464 483 485 q 441 412 446 443 q 440 349 436 381 q 463 297 444 318 q 508 275 482 275 z "},"q":{"ha":856,"x_min":15,"x_max":811,"o":"m 550 743 l 757 743 q 796 728 781 743 q 810 690 811 714 l 810 690 l 796 -289 q 781 -327 796 -312 q 743 -342 767 -342 l 743 -342 l 575 -342 q 537 -327 551 -342 q 522 -289 522 -312 l 522 -289 l 522 85 q 392 6 481 17 q 215 42 303 -6 l 215 42 q 94 151 142 82 q 31 297 46 219 q 25 453 15 374 q 67 597 35 533 q 155 703 99 661 q 281 746 211 744 l 281 746 q 437 694 358 747 q 582 532 515 642 l 582 532 q 608 514 600 503 l 608 514 q 597 550 615 524 l 597 550 q 519 696 557 618 l 519 696 q 518 730 510 717 q 550 743 526 743 l 550 743 z m 347 276 l 347 276 q 392 298 374 276 q 415 351 411 319 q 415 413 419 382 q 391 466 410 444 q 346 486 372 488 l 346 486 q 299 453 315 486 q 283 381 282 419 q 301 309 283 342 q 347 276 318 276 z "},"r":{"ha":713,"x_min":49,"x_max":710,"o":"m 683 710 l 683 710 q 698 694 692 704 q 706 672 704 683 q 706 649 708 660 l 706 649 l 651 436 q 625 398 643 399 q 568 418 607 397 l 568 418 q 501 444 528 436 q 444 453 475 453 q 396 436 414 453 q 365 379 378 419 q 353 275 353 339 l 353 275 l 353 58 q 338 20 353 35 q 300 6 324 6 l 300 6 l 103 6 q 65 20 79 6 q 50 58 50 35 l 50 58 q 49 690 49 131 l 49 690 q 56 719 49 707 q 74 736 63 731 q 101 742 86 742 l 101 742 l 379 740 q 413 726 403 740 q 415 688 424 711 l 415 688 q 356 528 383 593 q 321 440 329 463 l 321 440 q 321 415 313 415 l 321 415 q 346 447 329 415 l 346 447 q 360 472 351 456 l 360 472 q 405 557 390 531 q 444 624 419 583 q 481 681 468 665 q 515 717 494 696 q 551 741 536 739 q 589 745 567 743 q 633 737 611 747 q 683 710 656 726 z "},"s":{"ha":743,"x_min":25,"x_max":721,"o":"m 510 447 l 510 447 q 627 410 578 442 q 698 336 676 379 q 719 242 719 293 q 697 146 719 192 q 625 65 674 100 q 510 19 576 31 l 510 19 q 311 8 438 6 q 97 31 185 10 l 97 31 q 61 55 75 36 q 47 99 47 74 l 47 99 l 47 265 q 61 299 47 289 q 97 301 75 308 l 97 301 q 425 278 272 246 l 425 278 q 457 308 457 285 l 457 308 q 432 329 457 329 l 432 329 q 422 328 426 329 l 422 328 q 285 319 356 318 l 285 319 q 147 350 206 321 q 60 422 89 379 q 28 515 32 464 q 47 613 25 567 q 120 694 69 658 q 243 743 171 731 l 243 743 q 428 755 315 757 q 628 732 540 753 l 628 732 q 665 708 651 726 q 678 664 678 689 l 678 664 l 678 511 q 665 478 678 488 q 628 475 651 468 l 628 475 q 474 503 543 501 q 328 485 404 504 l 328 485 q 290 451 290 475 l 290 451 q 314 429 292 432 l 314 429 q 329 431 321 428 l 329 431 q 510 447 426 454 z "},"t":{"ha":621,"x_min":-36,"x_max":614,"o":"m 610 242 l 610 242 q 610 64 613 151 l 610 64 q 605 41 608 51 q 594 24 601 31 q 578 13 588 17 q 557 8 568 8 l 557 8 l 131 8 q 58 27 72 8 q 43 118 43 46 l 43 118 q 47 367 43 193 q 51 618 51 542 l 51 618 q 71 691 51 664 q 120 727 90 718 q 196 736 150 736 l 196 736 q 213 747 214 736 l 213 747 q 192 758 211 758 l 192 758 l -22 758 q -36 774 -36 758 l -36 774 l -36 810 q -22 824 -36 824 l -22 824 l 53 824 q 53 863 53 838 q 54 899 54 888 l 54 899 q 69 937 54 922 q 111 951 85 951 l 111 951 q 278 951 196 956 l 278 951 q 318 938 303 951 q 335 899 333 924 l 335 899 q 338 824 338 853 l 338 824 l 424 824 q 439 810 439 824 l 439 810 l 440 774 q 425 758 440 758 l 425 758 l 338 758 q 338 350 338 636 l 338 350 q 352 313 338 326 q 392 299 367 299 l 392 299 l 557 299 q 594 283 581 299 q 610 242 608 268 z "},"u":{"ha":749,"x_min":42,"x_max":704,"o":"m 694 693 l 694 693 q 697 535 694 651 q 701 279 699 418 q 703 58 703 140 l 703 58 q 688 20 703 35 q 650 6 674 6 l 650 6 l 378 6 q 348 17 354 6 q 354 50 342 29 l 354 50 q 402 133 374 81 q 449 219 431 185 l 449 219 l 467 256 q 478 294 488 286 l 478 294 q 450 272 468 301 l 450 272 q 320 98 383 164 q 208 16 257 32 q 120 24 158 0 q 62 115 82 47 q 43 285 42 182 l 43 285 q 44 693 44 408 l 44 693 q 100 746 44 746 l 100 746 l 265 746 q 303 731 289 746 q 318 693 318 717 l 318 693 l 318 376 q 334 295 318 325 q 369 265 350 265 q 405 295 389 265 q 421 376 421 325 l 421 376 l 421 693 q 435 731 421 717 q 474 746 450 746 l 474 746 l 639 746 q 679 731 664 746 q 694 693 694 717 z "},"v":{"ha":775,"x_min":-3,"x_max":778,"o":"m 550 746 l 731 746 q 766 731 756 744 q 769 693 776 717 l 769 693 q 589 60 593 75 l 589 60 q 562 22 582 36 q 517 7 542 7 l 517 7 l 254 7 q 209 22 229 7 q 182 60 189 36 l 182 60 q 125 253 153 154 q 62 484 97 353 q 6 693 26 615 l 6 693 q 9 731 -1 717 q 46 746 19 744 l 46 746 l 225 746 q 274 731 253 744 q 299 693 296 717 l 299 693 q 381 289 325 531 l 381 289 q 476 693 443 500 l 476 693 q 502 731 481 717 q 550 746 524 744 l 550 746 z "},"w":{"ha":1193,"x_min":-1,"x_max":1200,"o":"m 951 739 l 1167 740 q 1186 699 1199 740 l 1186 699 q 1146 542 1175 658 q 1101 367 1117 426 q 1058 214 1086 307 q 1004 46 1031 121 l 1004 46 q 985 17 999 28 q 957 6 972 6 l 957 6 l 707 6 q 661 46 674 6 l 661 46 q 610 274 629 147 l 610 274 q 574 274 593 385 l 574 274 q 522 46 549 129 l 522 46 q 510 26 518 35 q 493 11 503 17 q 474 6 483 6 l 474 6 l 239 6 q 210 17 224 6 q 192 46 197 28 l 192 46 q 6 697 93 336 l 6 697 q 5 726 0 715 q 25 738 10 738 l 25 738 l 253 738 q 285 726 269 738 q 307 697 301 715 l 307 697 l 369 393 q 372 367 375 386 q 368 338 369 347 q 360 309 367 329 q 350 280 353 289 q 340 252 347 271 q 329 226 332 233 l 329 226 q 335 201 321 206 q 358 215 350 196 l 358 215 q 401 347 383 275 q 438 528 418 419 q 474 697 458 636 l 474 697 q 493 727 476 715 q 528 739 510 739 l 528 739 l 664 739 q 697 728 681 739 q 718 699 714 717 l 718 699 l 793 401 q 799 335 803 357 q 767 229 794 314 l 767 229 q 767 208 761 217 q 781 203 772 200 q 794 217 790 206 l 794 217 q 824 306 811 260 q 848 405 838 353 q 865 497 858 457 q 882 599 872 536 q 897 699 892 663 l 897 699 q 919 728 903 717 q 951 739 935 739 l 951 739 z "},"x":{"ha":808,"x_min":-4,"x_max":814,"o":"m 631 374 l 797 36 q 799 19 801 26 q 785 8 796 13 q 758 3 775 4 l 758 3 l 560 3 q 489 36 496 6 l 489 36 l 397 246 l 319 36 q 295 13 315 21 q 247 3 275 4 l 247 3 l 50 3 q 15 13 25 4 q 11 36 4 22 l 11 36 l 172 372 l 22 688 q 50 743 -4 740 l 50 743 l 247 743 q 283 741 269 743 q 305 731 296 739 q 319 710 314 724 l 319 710 l 372 567 q 376 518 382 549 q 362 467 369 488 q 343 425 354 447 q 331 400 332 403 l 331 400 q 339 368 319 372 l 339 368 q 364 390 357 367 l 364 390 l 476 679 q 484 696 478 683 q 492 712 490 708 q 501 724 494 715 q 514 735 507 732 q 533 740 521 738 q 560 743 544 743 l 560 743 l 758 743 q 786 686 814 740 l 786 686 l 631 374 z "},"y":{"ha":836,"x_min":32,"x_max":788,"o":"m 550 743 l 733 743 q 772 728 757 743 q 786 690 788 714 l 786 690 l 786 58 q 754 -100 786 -29 q 669 -215 722 -171 q 547 -290 615 -260 q 405 -332 479 -321 q 260 -342 331 -343 q 126 -329 189 -342 l 126 -329 q 86 -316 99 -324 q 74 -293 74 -308 l 74 -293 l 74 -69 q 81 -48 74 -58 q 99 -33 88 -37 q 126 -33 111 -28 l 126 -33 q 248 -62 182 -58 q 375 -49 314 -67 q 487 0 436 -32 q 568 84 538 32 q 600 199 599 136 l 600 199 q 591 218 600 213 q 574 218 582 224 q 565 200 565 213 l 565 200 q 465 28 565 83 l 465 28 q 256 15 369 -25 l 256 15 q 68 210 124 63 l 68 210 q 42 331 49 265 l 42 331 q 32 678 32 417 l 32 678 q 85 743 32 743 l 85 743 l 269 743 q 322 690 322 743 l 322 690 q 322 522 322 690 l 322 522 q 413 208 333 208 l 413 208 q 440 217 429 208 q 463 255 451 226 q 481 335 474 283 q 492 476 488 386 q 496 690 496 565 l 496 690 q 510 728 496 714 q 550 743 525 743 l 550 743 z "},"z":{"ha":765,"x_min":35,"x_max":728,"o":"m 701 490 l 701 490 q 619 420 671 464 q 540 352 568 376 q 474 285 513 328 q 403 193 436 242 l 403 193 q 395 172 394 181 q 405 164 396 163 q 424 178 414 165 l 424 178 q 486 254 431 188 l 486 254 q 546 289 515 289 l 546 289 l 672 290 q 725 238 725 290 l 725 238 l 726 61 q 710 20 726 36 q 668 6 694 4 l 668 6 l 83 6 q 48 19 61 6 q 35 56 35 33 l 35 56 l 36 189 q 79 267 36 235 l 79 267 l 346 461 l 94 464 q 53 481 68 465 q 36 521 38 496 l 36 521 l 36 683 q 53 725 38 710 q 94 740 68 740 l 94 740 l 668 739 q 710 724 694 739 q 726 683 726 708 l 726 683 l 726 549 q 701 490 726 514 z "},"{":{"ha":538,"x_min":18,"x_max":513,"o":"m 501 11 l 501 11 q 492 -26 510 -10 q 447 -42 474 -42 l 447 -42 l 264 -42 q 238 -34 249 -42 q 224 -18 228 -26 q 211 11 219 -10 l 211 11 q 124 410 129 207 l 124 410 q 97 437 124 419 q 44 473 71 454 q 18 506 18 492 l 18 506 q 45 541 18 521 q 99 579 72 561 q 126 607 126 597 l 126 607 q 225 981 140 801 l 225 981 q 290 1033 249 1033 l 290 1033 l 446 1033 q 492 1020 474 1033 q 499 981 511 1007 l 499 981 q 382 617 401 793 l 382 617 q 353 581 381 601 q 298 542 325 561 q 271 508 271 524 l 271 508 q 326 460 271 489 q 382 418 381 432 l 382 418 q 501 11 400 236 z "},"|":{"ha":397,"x_min":53,"x_max":343,"o":"m 340 979 l 340 979 l 343 10 q 328 -28 343 -14 q 289 -43 314 -43 l 289 -43 l 106 -43 q 67 -28 82 -43 q 53 10 53 -14 l 53 10 q 67 979 53 664 l 67 979 q 81 1017 67 1003 q 119 1032 94 1032 l 119 1032 l 288 1032 q 326 1017 311 1032 q 340 979 340 1003 z "},"}":{"ha":538,"x_min":25,"x_max":519,"o":"m 411 607 l 411 607 q 422 590 411 600 q 449 570 433 581 q 481 549 465 560 q 508 527 497 539 q 519 506 519 515 l 519 506 q 493 473 519 492 q 440 437 467 454 q 413 410 414 419 l 413 410 q 326 11 408 207 l 326 11 q 313 -18 317 -10 q 298 -34 308 -26 q 274 -42 288 -42 l 274 -42 l 89 -42 q 45 -26 64 -42 q 36 11 26 -10 l 36 11 q 156 418 138 236 l 156 418 q 185 446 157 431 q 240 477 213 461 q 267 508 267 493 q 240 542 267 524 q 185 581 213 561 q 156 617 157 601 l 156 617 q 39 981 135 793 l 39 981 q 44 1020 25 1007 q 92 1033 63 1033 l 92 1033 l 246 1033 q 313 981 289 1033 l 313 981 q 411 607 396 801 z "},"~":{"ha":682,"x_min":36,"x_max":646,"o":"m 115 476 l 115 476 q 199 452 144 453 q 310 465 253 451 q 428 492 367 479 q 536 512 489 506 q 614 502 583 518 q 644 442 644 486 l 644 442 l 644 289 q 626 249 644 263 q 583 250 607 236 l 583 250 q 540 274 563 264 q 492 289 518 285 q 447 297 465 293 q 399 297 429 300 q 355 293 368 293 q 308 285 342 293 q 267 275 274 276 q 223 263 260 274 q 186 251 186 251 l 186 251 q 135 239 154 243 q 95 233 117 235 q 63 238 74 232 q 44 260 51 244 q 36 300 36 275 l 36 300 l 36 439 q 61 489 36 478 q 115 476 86 500 z "}," ":{"ha":511,"x_min":null,"x_max":null,"o":""},"¡":{"ha":347,"x_min":51,"x_max":296,"o":"m 169 792 l 169 792 q 84 824 117 792 q 51 911 51 857 q 84 999 51 965 q 169 1032 117 1032 q 254 999 222 1032 q 286 911 286 965 l 286 911 q 278 863 286 885 q 254 824 269 840 q 217 800 239 808 q 169 792 194 792 z m 283 714 l 283 714 l 294 42 q 283 16 294 25 q 251 7 271 7 l 251 7 l 97 7 q 66 16 78 7 q 54 42 54 25 l 54 42 l 57 714 q 69 738 57 729 q 100 747 81 747 l 100 747 l 239 747 q 263 743 253 747 q 278 732 272 739 q 283 714 283 725 z "},"¢":{"ha":938,"x_min":28,"x_max":894,"o":"m 606 565 l 606 565 q 592 647 606 611 q 558 702 579 683 q 510 729 536 721 q 456 728 483 738 q 404 701 428 719 q 363 647 381 683 q 342 565 346 611 l 342 565 q 418 298 321 365 q 696 338 515 231 l 696 338 q 737 348 717 351 q 768 326 757 344 l 768 326 l 863 157 q 853 81 889 110 l 853 81 q 588 -29 729 -11 l 588 -29 l 588 -93 q 576 -117 588 -108 q 544 -126 564 -126 l 544 -126 l 406 -126 q 382 -122 392 -126 q 367 -110 372 -118 q 361 -93 361 -103 l 361 -93 l 361 -7 q 163 129 244 35 q 56 357 81 224 l 56 357 q 56 629 28 504 l 56 629 q 123 793 76 719 q 228 915 169 867 q 360 989 288 963 l 360 989 l 358 1067 q 370 1092 358 1082 q 403 1101 382 1101 l 403 1101 l 556 1101 q 579 1097 569 1101 q 594 1085 589 1093 q 600 1067 600 1076 l 600 1067 l 599 1008 q 774 917 699 988 q 879 732 849 846 l 879 732 q 893 565 893 678 l 893 565 q 878 528 893 542 q 839 514 863 514 l 839 514 l 660 514 q 638 517 647 514 q 621 527 628 521 q 610 543 614 533 q 606 565 606 553 z "},"£":{"ha":874,"x_min":36,"x_max":828,"o":"m 774 693 l 578 693 q 479 607 501 693 l 479 607 l 474 588 l 619 588 q 649 576 639 588 q 660 546 660 565 l 660 546 l 660 444 q 649 414 660 425 q 619 403 639 403 l 619 403 l 425 403 l 396 292 l 774 292 q 812 278 797 292 q 826 239 826 264 l 826 239 l 826 61 q 812 23 826 38 q 774 8 797 8 l 774 8 l 161 8 q 99 32 121 8 q 85 94 78 56 l 85 94 l 149 403 l 78 403 q 47 414 58 403 q 36 444 36 425 l 36 444 l 36 546 q 47 576 36 565 q 78 588 58 588 l 78 588 l 185 588 l 204 679 q 323 896 232 814 q 547 978 414 978 l 547 978 l 774 978 q 812 963 797 978 q 826 925 826 949 l 826 925 l 826 746 q 812 708 826 722 q 774 693 797 693 l 774 693 z "},"¤":{"ha":892,"x_min":31,"x_max":858,"o":"m 746 201 l 746 201 l 831 36 q 828 10 839 21 q 794 0 817 0 l 794 0 l 635 0 q 610 4 622 0 q 590 17 599 8 q 581 36 582 25 l 581 36 l 551 88 q 349 86 446 64 l 349 86 l 321 36 q 301 10 317 19 q 265 0 286 0 l 265 0 l 106 0 q 72 10 83 0 q 69 36 61 21 l 69 36 l 151 194 q 56 380 79 272 q 63 594 32 488 q 171 772 93 700 l 171 772 l 78 938 q 83 965 74 954 q 114 975 93 975 l 114 975 l 317 975 q 372 938 353 975 l 372 938 l 407 871 q 494 869 443 874 l 494 869 l 529 938 q 585 975 547 975 l 585 975 l 786 975 q 817 965 807 975 q 822 938 826 954 l 822 938 l 728 767 q 830 592 801 696 q 836 384 858 489 q 746 201 814 279 z m 447 249 l 447 249 q 557 274 508 249 q 631 338 606 299 q 667 426 656 378 q 667 522 679 474 q 631 609 656 569 q 557 674 606 649 q 447 699 508 699 l 447 699 q 347 679 392 699 q 276 628 303 660 q 233 557 249 597 q 218 474 218 517 q 233 392 218 432 q 276 319 249 351 q 347 268 303 288 q 447 249 392 249 z "},"¥":{"ha":1060,"x_min":57,"x_max":1001,"o":"m 729 440 l 729 440 q 690 414 717 421 l 690 414 l 693 372 l 747 372 q 776 354 776 372 l 776 354 l 776 283 q 747 264 776 264 l 747 264 l 699 264 l 700 228 l 749 228 q 776 207 776 228 l 776 207 l 776 144 q 749 124 776 124 l 749 124 q 707 122 735 124 l 707 122 l 710 61 q 699 22 711 36 q 663 7 686 7 l 663 7 l 399 7 q 363 22 375 7 q 351 61 350 36 l 351 61 q 357 118 354 86 l 357 118 l 300 118 q 271 139 271 118 l 271 139 l 271 208 q 300 228 271 228 l 300 228 l 363 228 q 364 267 364 253 l 364 267 q 299 268 326 267 l 299 268 q 278 274 286 268 q 271 289 271 281 l 271 289 l 271 353 q 299 372 271 372 l 299 372 l 372 372 q 378 413 375 394 l 378 413 q 333 440 349 417 l 333 440 q 65 949 128 799 l 65 949 q 64 970 57 963 q 89 978 71 978 l 89 978 l 329 978 q 369 969 349 978 q 396 949 389 961 l 396 949 l 531 692 l 664 949 q 690 969 669 961 q 729 978 710 978 l 729 978 l 971 978 q 995 970 989 978 q 994 949 1001 963 l 994 949 q 729 440 921 774 z "},"§":{"ha":647,"x_min":42,"x_max":601,"o":"m 432 354 l 432 354 q 525 324 486 349 q 581 265 564 300 q 599 190 599 231 q 581 115 599 150 q 524 51 563 79 q 432 14 485 24 l 432 14 q 276 5 376 3 q 106 24 175 7 l 106 24 q 76 42 88 28 q 65 78 65 57 l 65 78 l 65 210 q 71 231 65 222 q 85 241 76 239 q 106 239 93 243 l 106 239 q 365 221 246 193 l 365 221 q 392 244 392 226 l 392 244 q 371 261 392 261 l 371 261 l 364 260 q 254 251 310 250 l 254 251 q 145 276 192 253 q 76 333 99 299 q 51 408 54 367 q 66 485 49 449 q 124 550 83 521 q 222 589 165 579 l 222 589 l 364 610 q 386 622 381 611 q 384 640 392 632 q 360 646 376 649 l 360 646 q 251 638 307 636 l 251 638 q 154 656 197 639 q 88 701 111 674 q 53 760 65 728 q 49 827 42 793 q 76 892 57 861 q 132 944 94 922 q 218 975 169 967 l 218 975 q 364 984 274 986 q 524 967 454 982 l 524 967 q 552 947 542 963 q 563 913 563 932 l 563 913 l 563 790 q 552 765 563 772 q 524 763 542 757 l 524 763 q 401 784 456 783 q 285 769 346 785 l 285 769 q 256 742 254 763 l 256 742 q 279 725 257 724 l 279 725 q 286 726 283 726 l 286 726 q 429 740 361 744 l 429 740 q 512 717 476 736 q 566 671 547 699 q 593 610 585 643 q 592 544 601 578 q 565 481 583 511 q 510 430 546 451 q 429 400 475 408 l 429 400 l 288 383 q 258 357 257 376 l 258 357 q 282 340 260 339 l 282 340 q 289 340 286 340 l 289 340 q 432 354 363 358 z "},"©":{"ha":1076,"x_min":42,"x_max":1035,"o":"m 539 979 l 539 979 q 897 842 761 979 q 1033 483 1033 706 q 897 124 1033 260 q 539 -12 761 -12 l 539 -12 q 178 124 315 -12 q 42 483 42 260 q 178 842 42 706 q 539 979 315 979 z m 539 90 l 539 90 q 823 199 715 90 q 931 483 931 307 l 931 483 q 822 767 931 658 q 539 875 714 875 l 539 875 q 333 826 422 875 q 195 688 244 776 q 146 483 146 599 l 146 483 q 254 199 146 307 q 539 90 363 90 z m 253 574 l 253 574 q 310 698 269 644 q 401 780 350 751 q 509 815 451 808 q 618 805 567 821 q 710 746 669 789 q 768 639 751 703 l 768 639 q 775 535 775 613 l 775 535 q 766 512 775 521 q 743 503 757 503 l 743 503 l 631 503 q 606 511 615 503 q 597 535 597 519 l 597 535 q 581 602 597 575 q 542 635 565 629 q 496 635 519 642 q 454 601 472 628 q 432 535 436 574 l 432 535 q 479 367 418 410 q 653 392 540 325 l 653 392 q 697 385 682 411 l 697 385 l 757 279 q 750 232 774 250 l 750 232 q 597 165 679 178 q 444 177 514 153 q 322 261 375 201 q 253 404 269 321 l 253 404 q 253 574 236 500 z "},"«":{"ha":650,"x_min":36,"x_max":608,"o":"m 592 517 l 438 418 q 428 412 428 413 q 438 404 428 411 l 438 404 l 592 307 q 607 281 607 300 l 607 281 l 607 176 q 603 160 607 165 q 592 160 599 156 l 592 160 l 338 328 q 322 353 322 339 l 322 353 l 322 471 q 338 496 322 485 l 338 496 l 592 664 q 603 663 599 668 q 607 649 607 658 l 607 649 l 607 543 q 592 517 607 524 l 592 517 z m 151 404 l 306 307 q 322 281 322 300 l 322 281 l 322 176 q 317 160 322 165 q 306 160 313 156 l 306 160 l 51 328 q 36 353 36 339 l 36 353 l 36 471 q 51 496 36 485 l 51 496 l 306 664 q 317 663 313 668 q 322 649 322 658 l 322 649 l 322 543 q 306 517 322 524 l 306 517 l 151 418 q 142 412 142 413 q 151 404 142 411 l 151 404 z "},"­":{"ha":0,"x_min":null,"x_max":null,"o":""},"®":{"ha":321,"x_min":33,"x_max":288,"o":"m 68 942 q 160 976 103 976 q 253 942 218 976 q 288 849 288 907 q 253 757 288 792 q 160 722 218 722 q 68 757 103 722 q 33 849 33 792 q 68 942 33 907 z m 160 749 l 160 749 q 233 776 206 749 q 261 850 261 804 l 261 850 q 233 922 261 894 q 160 950 206 950 l 160 950 q 88 922 115 950 q 60 850 60 894 l 60 850 q 88 776 60 804 q 160 749 115 749 z m 164 929 l 164 929 q 215 911 197 929 q 228 869 233 893 q 194 833 224 846 l 194 833 q 198 832 196 833 q 207 829 200 831 q 218 831 214 828 l 218 831 q 225 828 225 832 l 225 828 l 225 794 q 217 785 225 785 l 217 785 q 206 784 211 783 q 198 784 201 785 q 190 785 194 783 q 184 788 186 788 q 178 793 182 789 q 172 798 174 797 q 167 805 171 799 q 161 813 163 811 q 154 824 160 815 q 146 836 149 832 l 146 836 q 144 840 144 838 l 144 840 q 139 843 142 844 l 139 843 q 139 838 136 842 l 139 838 q 161 794 157 814 l 161 794 q 154 786 161 786 l 154 786 l 108 786 q 101 794 101 786 l 101 794 q 104 921 104 838 l 104 921 q 113 929 104 929 l 113 929 q 127 929 117 929 q 150 929 138 929 q 164 929 163 929 z m 157 890 l 157 874 q 178 867 171 856 q 169 888 186 879 l 169 888 q 157 890 164 890 l 157 890 z "},"°":{"ha":388,"x_min":36,"x_max":351,"o":"m 79 933 q 193 976 122 976 q 308 933 264 976 q 351 817 351 889 q 308 700 351 744 q 193 656 264 656 l 193 656 q 129 667 158 656 q 79 700 100 679 q 47 751 58 721 q 36 817 36 781 l 36 817 q 79 933 36 889 z m 140 763 q 193 743 160 743 q 247 763 226 743 q 267 817 267 782 l 267 817 q 247 870 267 850 q 194 890 226 890 q 140 870 161 890 q 119 817 119 850 l 119 817 q 140 763 119 782 z "},"±":{"ha":700,"x_min":44,"x_max":654,"o":"m 78 246 l 618 249 q 644 237 635 249 q 653 204 653 225 l 653 204 l 653 51 q 644 19 653 31 q 618 7 635 7 l 618 7 q 78 19 278 7 l 78 19 q 53 31 63 19 q 44 63 44 43 l 44 63 l 44 201 q 49 225 44 215 q 60 240 53 235 q 78 246 68 246 l 78 246 z m 467 753 l 618 753 q 644 741 635 753 q 653 710 653 729 l 653 710 l 653 557 q 644 524 653 536 q 618 513 635 513 l 618 513 q 468 514 531 513 l 468 514 l 469 364 q 464 345 469 353 q 449 333 458 338 q 425 329 439 329 l 425 329 l 272 329 q 240 338 251 329 q 228 364 228 347 l 228 364 q 229 518 228 454 l 229 518 q 78 525 147 521 l 78 525 q 53 537 63 525 q 44 568 44 549 l 44 568 l 44 707 q 53 739 44 726 q 78 751 63 751 l 78 751 l 233 751 q 240 904 236 835 l 240 904 q 246 922 240 914 q 261 933 251 929 q 283 938 271 938 l 283 938 l 422 938 q 455 928 443 938 q 467 904 467 919 l 467 904 l 467 753 z "},"¶":{"ha":1231,"x_min":32,"x_max":1176,"o":"m 1172 925 l 1172 925 l 1175 63 q 1160 24 1175 39 q 1122 10 1146 10 l 1122 10 l 939 10 q 899 24 914 10 q 886 63 883 39 l 886 63 q 911 719 907 347 l 911 719 l 824 719 l 813 64 q 798 26 813 40 q 760 11 783 11 l 760 11 l 592 11 q 553 26 568 11 q 539 64 539 40 l 539 64 l 539 319 q 408 240 497 250 q 232 276 319 229 l 232 276 q 110 385 158 317 q 47 531 63 454 q 42 688 32 607 q 83 832 51 768 q 172 937 115 896 q 297 981 228 978 l 297 981 q 453 929 375 982 q 599 767 532 876 l 599 767 q 625 747 617 738 l 625 747 q 614 785 632 758 l 614 785 q 536 929 574 853 l 536 929 q 535 965 526 951 q 567 978 543 978 l 567 978 l 1119 978 q 1158 963 1143 978 q 1172 925 1172 949 z m 364 511 l 364 511 q 409 533 390 511 q 432 585 428 554 q 431 648 436 617 q 408 701 426 679 q 363 721 389 722 l 363 721 q 315 688 332 721 q 299 615 299 654 q 317 544 300 576 q 364 511 335 511 z "},"»":{"ha":669,"x_min":42,"x_max":633,"o":"m 57 664 l 311 496 q 328 471 328 485 l 328 471 l 328 353 q 311 328 328 339 l 311 328 l 57 160 q 47 160 51 156 q 42 176 42 165 l 42 176 l 42 281 q 57 307 42 300 l 57 307 l 213 404 q 221 412 221 411 q 213 418 221 413 l 213 418 l 57 517 q 42 543 42 524 l 42 543 l 42 649 q 47 663 42 658 q 57 664 51 668 l 57 664 z m 364 664 l 617 496 q 633 471 633 485 l 633 471 l 633 353 q 617 328 633 339 l 617 328 l 364 160 q 357 158 360 158 q 352 160 354 158 q 349 167 350 163 q 347 176 347 171 l 347 176 l 347 281 q 364 307 347 300 l 364 307 l 518 404 q 526 412 526 411 q 518 418 526 413 l 518 418 l 364 517 q 347 543 347 524 l 347 543 l 347 649 q 352 663 347 658 q 364 664 357 668 l 364 664 z "},"¿":{"ha":668,"x_min":21,"x_max":636,"o":"m 368 782 l 368 782 q 283 815 315 782 q 250 903 250 849 q 283 990 250 957 q 368 1024 315 1024 q 453 990 421 1024 q 486 903 486 957 l 486 903 q 477 853 486 876 q 453 815 468 831 q 416 791 438 800 q 368 782 394 782 z m 582 268 l 582 268 q 619 266 604 278 q 635 229 635 254 l 635 229 l 635 79 q 582 11 635 26 l 582 11 q 132 35 293 -74 l 132 35 q 26 210 33 101 l 26 210 q 99 371 21 311 l 99 371 q 190 411 138 400 l 190 411 q 219 422 207 414 q 238 443 232 431 q 244 469 244 456 l 244 469 q 257 706 246 522 l 257 706 q 263 723 257 715 q 278 735 268 731 q 300 739 288 739 l 300 739 l 439 739 q 472 730 460 739 q 483 706 483 721 l 483 706 q 486 364 486 444 l 486 364 q 478 340 486 350 q 458 324 469 329 q 432 318 446 318 l 432 318 l 324 318 q 286 292 283 318 l 286 292 q 338 244 289 264 l 338 244 q 582 268 436 206 z "},"À":{"ha":989,"x_min":-7,"x_max":997,"o":"m 554 1021 l 453 1021 q 439 1038 435 1021 l 439 1038 l 490 1322 q 513 1340 494 1340 l 513 1340 l 672 1340 q 685 1335 681 1340 q 688 1322 690 1331 l 688 1322 l 576 1038 q 554 1021 569 1021 l 554 1021 z m 990 56 l 990 56 q 981 18 996 33 q 942 3 965 3 l 942 3 l 697 3 q 658 17 674 3 q 642 56 643 32 l 642 56 q 614 271 635 147 l 614 271 l 368 271 q 335 56 344 142 l 335 56 q 317 17 331 32 q 279 3 303 3 l 279 3 l 47 3 q 8 18 24 3 q -1 56 -7 33 l -1 56 q 120 510 32 215 q 258 924 208 806 l 258 924 q 276 949 265 938 q 302 966 288 960 q 333 972 317 972 l 333 972 l 656 972 q 700 959 679 972 q 729 924 721 946 l 729 924 q 815 673 761 849 q 914 338 869 497 q 990 56 958 178 z m 418 519 l 418 519 l 565 519 q 524 681 543 619 l 524 681 q 499 738 508 726 q 482 738 490 750 q 458 681 474 725 l 458 681 q 418 519 440 622 z "},"Á":{"ha":989,"x_min":-7,"x_max":997,"o":"m 990 56 l 990 56 q 981 18 996 33 q 942 3 965 3 l 942 3 l 697 3 q 658 17 674 3 q 642 56 643 32 l 642 56 q 614 271 635 147 l 614 271 l 368 271 q 335 56 344 142 l 335 56 q 325 28 332 40 q 306 10 318 17 q 279 3 294 3 l 279 3 l 47 3 q 8 18 24 3 q -1 56 -7 33 l -1 56 q 120 510 32 215 q 258 924 208 806 l 258 924 q 276 949 265 938 q 302 966 288 960 q 333 972 317 972 l 333 972 l 656 972 q 700 959 679 972 q 729 924 721 946 l 729 924 q 856 540 775 815 q 990 56 936 264 z m 418 519 l 418 519 l 565 519 q 524 681 543 619 l 524 681 q 499 738 508 726 q 482 738 490 750 q 458 681 474 725 l 458 681 q 418 519 440 622 z m 432 1038 l 432 1038 l 321 1322 q 323 1335 318 1331 q 336 1340 328 1340 l 336 1340 l 496 1340 q 518 1322 514 1340 l 518 1322 l 569 1038 q 556 1021 574 1021 l 556 1021 l 454 1021 q 432 1038 439 1021 z "},"Â":{"ha":989,"x_min":-7,"x_max":997,"o":"m 425 1028 l 338 1050 q 331 1069 324 1056 l 331 1069 l 417 1253 q 438 1267 422 1267 l 438 1267 l 567 1267 q 590 1249 582 1267 l 590 1249 l 674 1069 q 667 1050 681 1054 l 667 1050 l 581 1028 q 561 1036 568 1025 l 561 1036 l 504 1156 l 444 1036 q 425 1028 438 1024 l 425 1028 z m 990 56 l 990 56 q 981 18 996 33 q 942 3 965 3 l 942 3 l 697 3 q 658 17 674 3 q 642 56 643 32 l 642 56 q 614 271 635 147 l 614 271 l 368 271 q 335 56 344 142 l 335 56 q 328 35 333 44 q 317 18 324 25 q 300 7 310 11 q 279 3 290 3 l 279 3 l 47 3 q 8 18 24 3 q -1 56 -7 33 l -1 56 q 120 510 32 215 q 258 924 208 806 l 258 924 q 276 949 265 938 q 302 966 288 960 q 333 972 317 972 l 333 972 l 656 972 q 700 959 679 972 q 729 924 721 946 l 729 924 q 856 540 775 815 q 990 56 936 264 z m 418 519 l 418 519 l 565 519 q 524 681 543 619 l 524 681 q 499 738 508 726 q 482 738 490 750 q 458 681 474 725 l 458 681 q 418 519 440 622 z "},"Ã":{"ha":989,"x_min":-7,"x_max":997,"o":"m 990 56 l 990 56 q 981 18 996 33 q 942 3 965 3 l 942 3 l 697 3 q 658 17 674 3 q 642 56 643 32 l 642 56 q 614 271 635 147 l 614 271 l 368 271 q 335 56 344 142 l 335 56 q 325 28 332 40 q 306 10 318 17 q 279 3 294 3 l 279 3 l 47 3 q 8 18 24 3 q -1 56 -7 33 l -1 56 q 120 510 32 215 q 258 924 208 806 l 258 924 q 276 949 265 938 q 302 966 288 960 q 333 972 317 972 l 333 972 l 656 972 q 700 959 679 972 q 729 924 721 946 l 729 924 q 856 540 775 815 q 990 56 936 264 z m 418 519 l 418 519 l 565 519 q 524 681 543 619 l 524 681 q 499 738 508 726 q 482 738 490 750 q 458 681 474 725 l 458 681 q 418 519 440 622 z m 339 1026 l 339 1026 q 290 1014 308 1018 q 249 1008 271 1010 q 217 1013 228 1007 q 198 1035 206 1019 q 190 1075 190 1050 l 190 1075 l 190 1214 q 215 1264 190 1253 q 269 1251 240 1275 l 269 1251 q 338 1228 294 1232 q 430 1234 382 1225 q 531 1256 478 1243 q 631 1278 583 1268 q 716 1288 678 1288 q 776 1272 754 1289 q 799 1217 799 1256 l 799 1217 l 799 1064 q 780 1024 799 1038 q 738 1025 761 1011 l 738 1025 q 697 1047 718 1038 q 656 1063 675 1057 q 613 1070 638 1068 q 573 1073 589 1072 q 531 1070 557 1074 q 491 1065 504 1067 q 449 1057 478 1064 q 412 1047 421 1050 q 374 1036 403 1044 q 339 1026 344 1028 z "},"Ä":{"ha":989,"x_min":-7,"x_max":997,"o":"m 457 1053 q 383 1025 429 1025 q 310 1053 338 1025 q 282 1128 282 1082 l 282 1128 q 310 1205 282 1176 q 383 1233 338 1233 l 383 1233 q 437 1220 414 1233 q 472 1183 460 1207 q 485 1128 485 1160 l 485 1128 q 457 1053 485 1082 z m 692 1053 q 618 1025 664 1025 q 544 1053 572 1025 q 517 1128 517 1082 l 517 1128 q 544 1205 517 1176 q 618 1233 572 1233 l 618 1233 q 672 1220 649 1233 q 708 1183 694 1207 q 721 1128 721 1160 l 721 1128 q 692 1053 721 1082 z m 990 56 l 990 56 q 981 18 996 33 q 942 3 965 3 l 942 3 l 697 3 q 658 17 674 3 q 642 56 643 32 l 642 56 q 614 271 635 147 l 614 271 l 368 271 q 335 56 344 142 l 335 56 q 325 28 332 40 q 306 10 318 17 q 279 3 294 3 l 279 3 l 47 3 q 8 18 24 3 q -1 56 -7 33 l -1 56 q 120 510 32 215 q 258 924 208 806 l 258 924 q 276 949 265 938 q 302 966 288 960 q 333 972 317 972 l 333 972 l 656 972 q 700 959 679 972 q 729 924 721 946 l 729 924 q 856 540 775 815 q 990 56 936 264 z m 418 519 l 418 519 l 565 519 q 524 681 543 619 l 524 681 q 499 738 508 726 q 482 738 490 750 q 458 681 474 725 l 458 681 q 418 519 440 622 z "},"Å":{"ha":989,"x_min":-7,"x_max":997,"o":"m 990 51 l 990 51 q 981 14 996 29 q 942 -1 965 -1 l 942 -1 l 697 -1 q 658 13 674 -1 q 642 51 643 28 l 642 51 q 614 268 635 143 l 614 268 l 368 268 q 335 51 344 138 l 335 51 q 317 13 331 28 q 279 -1 303 -1 l 279 -1 l 47 -1 q 8 14 24 -1 q -1 51 -7 29 l -1 51 q 120 507 32 213 q 258 919 208 801 l 258 919 q 289 955 268 942 q 333 968 310 968 l 333 968 l 375 968 q 342 1074 342 1011 l 342 1074 q 362 1157 342 1121 q 417 1213 382 1193 q 500 1233 453 1233 l 500 1233 q 614 1190 571 1233 q 657 1074 657 1146 l 657 1074 q 624 968 657 1011 l 624 968 l 656 968 q 700 955 679 968 q 729 919 721 942 l 729 919 q 856 536 775 811 q 990 51 936 261 z m 536 1111 q 499 1125 522 1125 q 463 1110 476 1125 q 449 1073 449 1096 q 463 1035 449 1050 q 500 1021 476 1021 l 500 1021 q 526 1027 515 1021 q 544 1045 538 1033 q 550 1074 550 1057 l 550 1074 q 536 1111 550 1097 z m 418 517 l 418 517 l 565 517 q 524 676 543 615 l 524 676 q 499 734 508 722 q 482 733 490 746 q 458 676 474 721 l 458 676 q 418 517 440 618 z "},"Æ":{"ha":1646,"x_min":-7,"x_max":1613,"o":"m 1558 690 l 1172 692 q 1159 688 1165 692 q 1149 679 1153 685 q 1146 665 1146 674 l 1146 665 l 1146 594 q 1153 575 1146 582 q 1172 568 1161 568 l 1172 568 l 1478 568 q 1517 553 1503 568 q 1531 515 1531 539 l 1531 515 l 1531 468 q 1517 430 1531 444 q 1478 415 1503 415 l 1478 415 l 1172 415 q 1153 408 1161 415 q 1146 389 1146 401 l 1146 389 l 1146 317 q 1153 297 1146 304 q 1172 290 1161 290 l 1172 290 l 1558 290 q 1598 276 1583 290 q 1613 238 1613 261 l 1613 238 l 1613 58 q 1598 20 1613 35 q 1558 6 1583 6 l 1558 6 l 697 6 q 658 20 674 6 q 642 58 643 35 l 642 58 q 615 274 633 156 l 615 274 l 368 274 q 335 58 342 122 l 335 58 q 325 31 332 43 q 306 12 318 18 q 279 6 294 6 l 279 6 l 47 6 q 8 21 24 6 q -1 58 -7 36 l -1 58 q 120 513 32 218 q 258 926 208 807 l 258 926 q 289 961 268 947 q 333 975 310 975 l 333 975 l 656 975 q 700 961 679 975 q 729 926 721 947 l 729 926 q 850 560 771 828 l 850 560 l 854 922 q 869 960 854 946 q 907 975 883 975 l 907 975 l 1147 975 q 1185 960 1174 975 q 1183 926 1196 946 l 1183 926 q 1124 830 1165 896 q 1053 714 1083 764 q 1019 654 1024 664 l 1019 654 q 1017 624 1013 635 q 1035 617 1022 613 q 1057 640 1049 621 l 1057 640 q 1121 753 1072 676 q 1211 890 1169 831 l 1211 890 l 1251 949 q 1310 975 1274 975 l 1310 975 l 1558 975 q 1597 960 1582 975 q 1611 922 1611 946 l 1611 922 l 1611 743 q 1597 705 1611 719 q 1558 690 1582 690 l 1558 690 z m 418 522 l 418 522 l 565 522 q 524 682 542 628 l 524 682 q 499 740 508 729 q 482 739 490 751 q 458 682 474 726 l 458 682 q 418 522 438 613 z "},"Ç":{"ha":892,"x_min":4,"x_max":871,"o":"m 582 569 l 582 569 q 569 652 582 617 q 534 706 556 688 q 486 734 513 725 q 432 734 460 743 q 381 706 404 725 q 340 651 357 688 q 318 569 322 615 l 318 569 q 394 303 297 369 q 672 343 492 236 l 672 343 q 713 353 693 356 q 744 331 733 350 l 744 331 l 839 161 q 829 86 865 115 l 829 86 q 540 -26 694 -14 l 540 -26 l 514 -68 q 574 -139 554 -96 q 589 -222 594 -182 q 555 -295 583 -262 q 469 -335 526 -328 q 326 -319 411 -343 l 326 -319 q 303 -283 292 -310 l 303 -283 l 326 -233 q 374 -221 336 -208 l 374 -221 q 469 -211 433 -242 l 469 -211 q 465 -135 506 -179 l 465 -135 q 404 -90 444 -111 l 404 -90 q 397 -78 397 -86 q 401 -65 397 -69 l 401 -65 l 418 -22 q 167 103 274 1 q 32 363 61 206 l 32 363 q 32 633 4 508 l 32 633 q 123 832 58 746 q 269 963 188 918 q 442 1019 350 1008 q 615 1003 533 1029 q 763 908 697 976 q 856 736 828 839 l 856 736 q 869 569 869 683 l 869 569 q 854 533 869 547 q 815 518 839 518 l 815 518 l 636 518 q 614 522 624 518 q 597 533 604 526 q 586 549 590 539 q 582 569 582 558 z "},"È":{"ha":850,"x_min":50,"x_max":817,"o":"m 763 689 l 376 690 q 358 683 365 690 q 350 664 350 675 l 350 664 l 350 592 q 358 573 350 581 q 376 565 365 565 l 376 565 l 682 565 q 720 551 706 565 q 735 513 735 536 l 735 513 l 735 467 q 720 428 735 443 q 682 414 706 414 l 682 414 l 376 414 q 358 406 365 414 q 350 388 350 399 l 350 388 l 350 314 q 358 295 350 303 q 376 288 365 288 l 376 288 l 763 288 q 801 273 786 288 q 815 235 815 258 l 815 235 l 815 57 q 801 18 815 32 q 763 4 786 4 l 763 4 l 103 4 q 65 18 79 4 q 50 57 50 32 l 50 57 l 58 919 q 73 959 58 944 q 111 974 88 974 l 111 974 l 351 974 q 388 959 378 974 q 388 924 399 944 l 388 924 q 328 827 369 893 q 258 712 288 761 q 224 651 228 663 l 224 651 q 222 622 217 633 q 240 615 226 611 q 260 639 253 619 l 260 639 q 293 701 269 661 q 344 783 317 742 q 397 861 371 824 q 439 922 422 899 l 439 922 l 456 946 q 514 974 478 974 l 514 974 l 763 974 q 801 959 786 974 q 815 919 815 944 l 815 919 l 815 742 q 801 703 815 718 q 763 689 786 689 l 763 689 z m 378 1038 l 378 1038 l 267 1324 q 269 1335 264 1331 q 282 1340 274 1340 l 282 1340 l 442 1340 q 464 1324 460 1340 l 464 1324 l 515 1038 q 501 1022 519 1022 l 501 1022 l 400 1022 q 378 1038 385 1022 z "},"É":{"ha":850,"x_min":50,"x_max":817,"o":"m 763 685 l 376 686 q 358 678 365 686 q 350 660 350 671 l 350 660 l 350 588 q 358 569 350 576 q 376 561 365 561 l 376 561 l 682 561 q 720 547 706 561 q 735 508 735 532 l 735 508 l 735 463 q 720 424 735 439 q 682 410 706 410 l 682 410 l 376 410 q 358 402 365 410 q 350 383 350 394 l 350 383 l 350 310 q 358 291 350 299 q 376 283 365 283 l 376 283 l 763 283 q 801 269 786 283 q 815 231 815 256 l 815 231 l 815 53 q 801 15 815 29 q 763 0 786 0 l 763 0 l 103 0 q 65 15 79 0 q 50 53 50 29 l 50 53 l 58 917 q 73 955 58 940 q 111 969 88 969 l 111 969 l 351 969 q 388 955 378 969 q 388 919 399 940 l 388 919 q 328 824 369 890 q 258 708 288 757 q 224 647 228 658 l 224 647 q 222 618 217 629 q 240 611 226 607 q 260 635 253 615 l 260 635 q 293 697 269 657 q 344 778 317 738 q 397 857 371 819 q 439 919 422 894 l 439 919 l 456 943 q 514 969 478 969 l 514 969 l 763 969 q 801 955 786 969 q 815 917 815 940 l 815 917 l 815 738 q 801 699 815 714 q 763 685 786 685 l 763 685 z m 478 1006 l 378 1006 q 364 1022 358 1006 l 364 1022 l 415 1307 q 438 1325 419 1325 l 438 1325 l 597 1325 q 610 1320 606 1325 q 613 1307 615 1315 l 613 1307 l 501 1022 q 478 1006 494 1006 l 478 1006 z "},"Ê":{"ha":850,"x_min":50,"x_max":817,"o":"m 763 685 l 376 686 q 358 678 365 686 q 350 660 350 671 l 350 660 l 350 588 q 358 569 350 576 q 376 561 365 561 l 376 561 l 682 561 q 720 547 706 561 q 735 508 735 532 l 735 508 l 735 463 q 720 424 735 439 q 682 410 706 410 l 682 410 l 376 410 q 358 402 365 410 q 350 383 350 394 l 350 383 l 350 310 q 358 291 350 299 q 376 283 365 283 l 376 283 l 763 283 q 801 269 786 283 q 815 231 815 256 l 815 231 l 815 53 q 801 15 815 29 q 763 0 786 0 l 763 0 l 103 0 q 65 15 79 0 q 50 53 50 29 l 50 53 l 58 917 q 73 955 58 940 q 111 969 88 969 l 111 969 l 351 969 q 388 955 378 969 q 388 919 399 940 l 388 919 q 328 824 369 890 q 258 708 288 757 q 224 647 228 658 l 224 647 q 222 618 217 629 q 240 611 226 607 q 260 635 253 615 l 260 635 q 293 697 269 657 q 344 778 317 738 q 397 857 371 819 q 439 919 422 894 l 439 919 l 456 943 q 514 969 478 969 l 514 969 l 763 969 q 801 955 786 969 q 815 917 815 940 l 815 917 l 815 738 q 801 699 815 714 q 763 685 786 685 l 763 685 z m 339 1031 l 251 1054 q 243 1072 238 1058 l 243 1072 l 329 1256 q 350 1269 335 1269 l 350 1269 l 479 1269 q 504 1251 494 1269 l 504 1251 l 588 1072 q 579 1054 593 1058 l 579 1054 l 493 1031 q 475 1039 481 1028 l 475 1039 l 417 1158 l 357 1039 q 339 1031 351 1026 l 339 1031 z "},"Ë":{"ha":850,"x_min":50,"x_max":817,"o":"m 394 1053 q 319 1025 365 1025 q 246 1053 274 1025 q 218 1128 218 1082 l 218 1128 q 246 1205 218 1176 q 319 1233 274 1233 l 319 1233 q 373 1220 350 1233 q 409 1183 396 1207 q 422 1128 422 1160 l 422 1128 q 394 1053 422 1082 z m 621 1053 q 547 1025 593 1025 q 474 1053 501 1025 q 446 1128 446 1082 l 446 1128 q 474 1205 446 1176 q 547 1233 501 1233 l 547 1233 q 601 1220 578 1233 q 636 1183 624 1207 q 649 1128 649 1160 l 649 1128 q 621 1053 649 1082 z m 763 688 l 376 689 q 358 682 365 689 q 350 663 350 675 l 350 663 l 350 592 q 358 572 350 579 q 376 565 365 565 l 376 565 l 682 565 q 720 551 706 565 q 735 513 735 536 l 735 513 l 735 465 q 720 427 735 442 q 682 413 706 413 l 682 413 l 376 413 q 358 406 365 413 q 350 386 350 399 l 350 386 l 350 314 q 358 294 350 301 q 376 288 365 288 l 376 288 l 763 288 q 801 273 786 288 q 815 235 815 258 l 815 235 l 815 56 q 801 17 815 32 q 763 3 786 3 l 763 3 l 103 3 q 65 17 79 3 q 50 56 50 32 l 50 56 l 58 919 q 73 958 58 943 q 111 972 88 972 l 111 972 l 351 972 q 388 958 378 972 q 388 924 399 943 l 388 924 q 328 827 369 893 q 258 712 288 761 q 224 651 228 663 l 224 651 q 222 622 217 632 q 240 615 226 611 q 260 638 253 618 l 260 638 q 293 701 269 661 q 344 783 317 742 q 397 861 371 824 q 439 922 422 899 l 439 922 l 456 946 q 514 972 478 972 l 514 972 l 763 972 q 801 958 786 972 q 815 919 815 943 l 815 919 l 815 742 q 801 702 815 717 q 763 688 786 688 l 763 688 z "},"Ì":{"ha":428,"x_min":40,"x_max":389,"o":"m 276 1025 l 176 1025 q 154 1042 161 1025 l 154 1042 l 43 1326 q 42 1336 40 1332 q 48 1342 44 1340 q 57 1344 51 1344 l 57 1344 l 217 1344 q 240 1326 236 1344 l 240 1326 l 292 1042 q 276 1025 296 1025 l 276 1025 z m 357 919 l 357 919 l 386 56 q 373 17 388 32 q 333 3 358 3 l 333 3 l 97 3 q 59 17 74 3 q 44 56 44 32 l 44 56 l 71 919 q 85 958 71 943 q 124 972 100 972 l 124 972 l 304 972 q 342 958 328 972 q 357 919 357 943 z "},"Í":{"ha":444,"x_min":42,"x_max":407,"o":"m 228 1325 l 389 1325 q 401 1320 397 1325 q 403 1307 406 1315 l 403 1307 l 292 1022 q 269 1006 285 1006 l 269 1006 l 168 1006 q 154 1022 150 1006 l 154 1022 l 206 1307 q 228 1325 210 1325 l 228 1325 z m 121 969 l 303 969 q 330 963 318 969 q 348 944 342 956 q 356 917 354 932 l 356 917 l 385 53 q 370 15 385 29 q 332 0 356 0 l 332 0 l 94 0 q 56 15 71 0 q 42 53 42 29 l 42 53 l 68 917 q 83 955 68 940 q 121 969 97 969 l 121 969 z "},"Î":{"ha":429,"x_min":36,"x_max":394,"o":"m 139 1022 l 51 1044 q 43 1063 38 1049 l 43 1063 l 129 1247 q 150 1260 135 1260 l 150 1260 l 281 1260 q 304 1243 296 1260 l 304 1243 l 388 1063 q 379 1044 393 1049 l 379 1044 l 293 1022 q 275 1029 281 1018 l 275 1029 l 217 1149 l 157 1029 q 139 1022 151 1018 l 139 1022 z m 124 969 l 306 969 q 333 963 321 969 q 351 944 344 956 q 358 917 357 932 l 358 917 l 388 53 q 373 15 388 29 q 335 0 358 0 l 335 0 l 97 0 q 59 15 74 0 q 44 53 44 29 l 44 53 l 71 917 q 85 955 71 940 q 124 969 100 969 l 124 969 z "},"Ï":{"ha":514,"x_min":42,"x_max":474,"o":"m 246 1129 l 246 1129 q 233 1074 246 1097 q 197 1038 219 1051 q 143 1025 174 1025 l 143 1025 q 69 1053 97 1025 q 42 1129 42 1082 l 42 1129 q 69 1205 42 1176 q 143 1233 97 1233 l 143 1233 q 172 1230 158 1233 q 197 1220 186 1226 q 217 1205 208 1214 q 233 1184 226 1196 q 242 1158 239 1172 q 246 1129 246 1144 z m 161 972 l 342 972 q 380 958 365 972 q 394 919 394 943 l 394 919 l 424 56 q 418 28 425 40 q 399 10 411 17 q 371 3 386 3 l 371 3 l 135 3 q 96 17 110 3 q 82 56 82 32 l 82 56 l 108 919 q 123 958 108 943 q 161 972 138 972 l 161 972 z m 371 1233 l 371 1233 q 424 1220 401 1233 q 460 1183 447 1207 q 472 1129 472 1160 l 472 1129 q 444 1053 472 1082 q 371 1025 417 1025 l 371 1025 q 317 1038 340 1025 q 282 1074 294 1051 q 269 1129 269 1097 l 269 1129 q 297 1205 269 1176 q 371 1233 325 1233 z "},"Ð":{"ha":1014,"x_min":0,"x_max":997,"o":"m 939 744 l 939 744 q 994 477 996 622 q 940 214 992 332 l 940 214 q 885 119 918 163 q 810 48 851 76 q 723 6 768 19 q 630 4 678 -8 q 538 52 582 17 q 451 160 493 88 q 379 338 410 233 l 379 338 q 363 358 375 354 q 342 352 350 363 q 343 325 335 342 l 343 325 q 371 266 346 317 q 425 153 396 215 q 467 51 454 90 l 467 51 q 464 17 474 31 q 431 3 454 3 l 431 3 l 182 3 q 143 17 158 3 q 129 56 128 32 l 129 56 q 147 424 142 226 l 147 424 l 33 425 q 16 429 24 425 q 4 440 8 433 q 0 457 0 447 l 0 457 l 0 556 q 9 578 0 569 q 33 588 18 588 l 33 588 l 153 588 q 156 919 156 736 l 156 919 q 170 957 156 943 q 208 972 185 971 l 208 972 q 296 978 264 976 q 385 981 328 979 q 480 979 443 982 q 571 971 517 976 q 662 954 625 965 q 744 925 699 943 q 822 883 789 907 q 885 823 854 858 q 939 744 917 788 z m 708 469 l 708 469 q 634 641 717 590 q 418 660 551 692 l 418 660 l 421 589 l 574 589 q 592 585 585 589 q 604 575 600 582 q 608 558 608 568 l 608 558 l 608 447 q 599 425 608 433 q 574 417 590 417 l 574 417 l 431 419 q 456 354 438 382 q 499 314 475 326 q 550 298 522 301 q 605 306 578 294 q 654 337 632 317 q 691 392 676 357 q 708 469 706 426 z "},"Ñ":{"ha":942,"x_min":39,"x_max":903,"o":"m 875 919 l 875 919 q 878 698 875 819 q 885 495 882 576 q 893 265 888 414 q 901 56 899 115 l 901 56 q 888 17 903 32 q 849 3 872 3 l 849 3 l 594 3 q 526 56 554 3 l 526 56 q 329 463 386 338 l 329 463 l 331 56 q 316 17 331 32 q 276 3 301 3 l 276 3 l 93 3 q 54 17 69 3 q 40 56 39 32 l 40 56 q 49 265 43 117 q 57 494 54 413 q 63 698 60 576 q 67 919 67 819 l 67 919 q 81 958 67 943 q 119 972 96 972 l 119 972 l 396 972 q 438 958 419 972 q 464 919 457 943 l 464 919 q 519 727 496 799 q 553 626 542 656 q 597 526 565 597 q 656 396 629 456 l 656 396 q 681 374 661 372 q 697 400 701 376 l 697 400 q 693 408 696 404 l 693 408 q 653 497 675 450 q 624 558 632 544 q 605 606 617 571 q 590 653 593 642 q 579 714 588 665 q 567 797 571 763 q 553 919 564 832 l 553 919 q 566 958 550 943 q 607 972 582 972 l 607 972 l 822 972 q 860 958 846 972 q 875 919 875 943 z m 279 1026 l 279 1026 q 230 1014 249 1018 q 190 1008 211 1010 q 157 1013 168 1007 q 138 1035 146 1019 q 131 1075 131 1050 l 131 1075 l 131 1214 q 156 1264 131 1253 q 210 1251 181 1275 l 210 1251 q 292 1228 239 1229 q 403 1240 346 1226 q 522 1267 461 1254 q 630 1288 582 1281 q 708 1278 678 1294 q 739 1217 739 1261 l 739 1217 l 739 1064 q 720 1024 739 1038 q 678 1025 701 1011 l 678 1025 q 633 1049 656 1039 q 585 1064 611 1060 q 542 1072 560 1068 q 493 1072 524 1075 q 449 1068 463 1068 q 402 1060 436 1068 q 361 1050 368 1051 q 317 1038 354 1049 q 279 1026 281 1026 z "},"Ò":{"ha":921,"x_min":6,"x_max":904,"o":"m 457 1015 l 457 1015 q 793 839 668 1017 l 793 839 q 901 469 904 683 l 901 469 q 772 110 899 250 l 772 110 q 444 -26 649 -26 l 444 -26 q 231 31 324 -26 q 92 179 138 88 q 26 382 46 271 q 31 604 6 493 q 107 807 57 715 q 249 956 157 899 q 457 1015 342 1014 z m 457 242 l 457 242 q 520 286 494 239 q 553 403 546 333 q 555 542 560 472 q 525 663 550 613 q 463 717 500 714 l 463 717 q 400 671 425 718 q 368 554 375 624 q 367 415 361 485 q 397 294 372 344 q 457 242 421 244 z m 381 1088 l 381 1088 l 269 1374 q 271 1385 267 1381 q 285 1390 275 1390 l 285 1390 l 444 1390 q 467 1374 463 1390 l 467 1374 l 518 1088 q 504 1072 522 1072 l 504 1072 l 403 1072 q 381 1088 388 1072 z "},"Ó":{"ha":921,"x_min":6,"x_max":917,"o":"m 501 1061 l 400 1061 q 386 1076 382 1061 l 386 1076 l 438 1363 q 460 1379 442 1379 l 460 1379 l 619 1379 q 633 1374 628 1379 q 635 1363 638 1369 l 635 1363 l 524 1076 q 501 1061 517 1061 l 501 1061 z m 457 1015 l 457 1015 q 667 958 574 1015 q 812 810 761 901 q 889 607 863 718 q 894 384 915 496 q 824 180 874 272 q 675 30 775 88 q 444 -28 575 -28 l 444 -28 q 231 30 324 -28 q 92 179 138 88 q 26 381 46 271 q 31 603 6 492 q 107 806 57 714 q 249 956 157 899 q 457 1015 342 1014 z m 457 240 l 457 240 q 520 286 494 239 q 553 403 546 333 q 555 542 560 472 q 525 663 550 613 q 463 715 500 714 l 463 715 q 400 671 425 718 q 368 554 375 624 q 367 415 361 485 q 397 294 372 344 q 457 240 421 243 z "},"Ô":{"ha":921,"x_min":6,"x_max":917,"o":"m 457 1015 l 457 1015 q 667 958 574 1015 q 812 810 761 901 q 889 607 863 718 q 894 384 915 496 q 824 180 874 272 q 675 30 775 88 q 444 -28 575 -28 l 444 -28 q 231 30 324 -28 q 92 179 138 88 q 26 381 46 271 q 31 603 6 492 q 107 806 57 714 q 249 956 157 899 q 457 1015 342 1014 z m 457 240 l 457 240 q 520 286 494 239 q 553 403 546 333 q 555 542 560 472 q 525 663 550 613 q 463 715 500 714 l 463 715 q 400 671 425 718 q 368 554 375 624 q 367 415 361 485 q 397 294 372 344 q 457 240 421 243 z m 383 1063 l 296 1085 q 288 1103 282 1089 l 288 1103 l 374 1288 q 394 1300 379 1300 l 394 1300 l 525 1300 q 549 1283 540 1300 l 549 1283 l 632 1103 q 624 1085 638 1089 l 624 1085 l 538 1063 q 519 1071 525 1058 l 519 1071 l 461 1189 l 401 1071 q 383 1063 396 1058 l 383 1063 z "},"Õ":{"ha":921,"x_min":6,"x_max":904,"o":"m 457 1004 l 457 1004 q 793 828 668 1006 l 793 828 q 901 458 904 672 l 901 458 q 772 99 899 238 l 772 99 q 444 -39 649 -39 l 444 -39 q 231 19 324 -39 q 92 168 138 76 q 26 371 46 260 q 31 592 6 482 q 107 795 57 703 q 249 945 157 888 q 457 1004 342 1003 z m 457 231 l 457 231 q 520 275 494 228 q 553 392 546 322 q 555 531 560 461 q 525 652 550 601 q 463 706 500 703 l 463 706 q 400 660 425 707 q 368 543 375 613 q 367 403 361 474 q 397 283 372 333 q 457 231 421 232 z m 268 1022 l 268 1022 q 218 1010 238 1014 q 178 1004 199 1006 q 145 1009 157 1003 q 126 1031 133 1015 q 118 1071 118 1046 l 118 1071 l 118 1210 q 144 1260 118 1249 q 199 1247 169 1271 l 199 1247 q 257 1224 221 1229 q 334 1226 293 1219 q 421 1242 375 1232 q 510 1263 467 1251 q 593 1279 553 1274 q 663 1283 633 1285 q 709 1263 692 1281 q 726 1213 726 1246 l 726 1213 l 726 1060 q 708 1020 726 1033 q 667 1021 690 1007 l 667 1021 q 622 1045 644 1035 q 574 1060 600 1056 q 529 1067 547 1064 q 481 1067 511 1071 q 438 1064 450 1064 q 391 1056 425 1064 q 350 1046 357 1047 q 306 1033 343 1044 q 268 1022 269 1022 z "},"Ö":{"ha":921,"x_min":6,"x_max":917,"o":"m 640 1067 q 565 1039 611 1039 q 492 1067 519 1039 q 464 1142 464 1094 l 464 1142 q 492 1217 464 1189 q 565 1246 519 1246 l 565 1246 q 619 1233 596 1246 q 655 1197 642 1221 q 668 1142 668 1172 l 668 1142 q 640 1067 668 1094 z m 457 1004 l 457 1004 q 667 949 574 1006 q 812 799 761 892 q 889 596 863 707 q 894 373 915 485 q 824 169 874 261 q 675 19 775 78 q 444 -39 575 -39 l 444 -39 q 231 19 324 -39 q 92 168 138 76 q 26 371 46 260 q 31 592 6 482 q 107 795 57 703 q 249 945 157 888 q 457 1004 342 1003 z m 457 231 l 457 231 q 520 275 494 228 q 553 392 546 322 q 555 531 560 461 q 525 652 550 601 q 463 706 500 703 l 463 706 q 400 660 425 707 q 368 543 375 613 q 367 403 361 474 q 397 283 372 333 q 457 231 421 232 z m 412 1067 q 338 1039 383 1039 q 265 1067 293 1039 q 236 1142 236 1094 l 236 1142 q 265 1217 236 1189 q 339 1246 293 1246 q 413 1217 385 1246 q 440 1142 440 1189 l 440 1142 q 412 1067 440 1094 z "},"×":{"ha":650,"x_min":22,"x_max":625,"o":"m 492 497 l 600 390 q 593 335 625 365 l 593 335 l 485 226 q 429 219 454 196 l 429 219 q 324 326 372 278 l 324 326 l 218 219 q 163 226 193 196 l 163 226 l 54 335 q 47 390 22 365 l 47 390 q 157 500 110 453 l 157 500 q 56 611 103 557 l 56 611 q 63 665 32 635 l 63 665 l 161 764 q 215 771 190 793 l 215 771 l 326 661 q 439 764 386 718 l 439 764 q 493 757 463 788 l 493 757 l 590 658 q 599 604 621 629 l 599 604 l 492 497 z "},"Ø":{"ha":921,"x_min":11,"x_max":910,"o":"m 697 1100 l 669 951 q 810 807 753 899 q 888 611 867 715 q 896 397 910 507 q 837 195 882 286 q 701 42 792 104 q 492 -32 611 -21 l 492 -32 l 472 -136 q 460 -168 472 -156 q 428 -181 447 -181 l 428 -181 l 276 -181 q 242 -168 256 -181 q 232 -136 229 -156 l 232 -136 l 254 10 q 108 145 165 56 q 31 339 50 235 q 26 556 11 443 q 85 762 40 668 q 213 923 131 856 q 403 1004 296 990 l 403 1004 l 417 1100 q 460 1146 422 1146 l 460 1146 l 653 1146 q 685 1133 672 1146 q 697 1100 697 1121 l 697 1100 z m 457 235 l 457 235 q 520 280 494 232 q 553 397 546 328 q 555 537 560 467 q 525 657 550 607 q 463 710 500 707 l 463 710 q 400 665 425 713 q 368 547 375 617 q 367 408 361 478 q 397 288 372 338 q 457 235 421 238 z "},"Ù":{"ha":888,"x_min":21,"x_max":869,"o":"m 357 1044 l 357 1044 l 246 1331 q 247 1344 243 1339 q 260 1349 251 1349 l 260 1349 l 419 1349 q 443 1331 438 1349 l 443 1331 l 494 1044 q 479 1029 499 1029 l 479 1029 l 379 1029 q 357 1044 364 1029 z m 850 400 l 851 386 q 714 53 868 172 l 714 53 q 410 -33 586 -44 l 410 -33 q 126 93 232 -22 l 126 93 q 36 386 22 208 l 36 386 q 60 915 57 779 l 60 915 q 79 959 60 942 q 129 976 99 976 l 129 976 l 307 976 q 347 963 332 976 q 361 925 361 949 l 361 925 l 363 376 q 373 314 363 340 q 400 273 383 288 q 440 254 417 258 l 440 254 q 513 208 499 243 l 513 208 q 554 90 544 125 l 554 90 q 579 69 560 65 l 579 69 q 592 99 600 72 l 592 99 q 590 103 592 101 l 590 103 q 561 172 576 139 q 541 215 546 206 q 531 247 536 224 q 525 293 525 269 q 525 371 525 317 l 525 371 l 525 376 l 528 925 q 534 952 528 940 q 552 970 540 964 q 581 976 564 976 l 581 976 l 758 976 q 808 959 789 976 q 828 915 828 942 l 828 915 q 829 861 828 893 q 832 794 831 829 q 835 718 833 758 q 838 639 836 678 q 842 563 840 600 q 846 493 844 525 q 849 438 847 461 q 850 400 850 414 l 850 400 z "},"Ú":{"ha":888,"x_min":21,"x_max":869,"o":"m 846 489 l 851 388 q 714 54 868 172 l 714 54 q 410 -32 586 -43 l 410 -32 q 126 94 232 -21 l 126 94 q 36 388 22 208 l 36 388 q 60 917 57 781 l 60 917 q 79 960 60 943 q 129 976 99 976 l 129 976 l 307 976 q 347 963 332 976 q 361 925 361 949 l 361 925 l 363 376 q 384 293 363 324 q 440 256 406 263 l 440 256 q 513 208 499 243 l 513 208 q 554 90 544 126 l 554 90 q 579 69 560 67 l 579 69 q 592 100 600 74 l 592 100 q 590 104 592 101 l 590 104 q 565 164 578 136 q 546 204 551 192 q 535 231 540 217 q 528 262 529 244 q 526 303 526 279 q 525 371 525 326 l 525 371 l 525 376 l 528 925 q 534 953 528 942 q 552 970 540 964 q 581 976 564 976 l 581 976 l 758 976 q 808 960 789 976 q 828 917 828 943 l 828 917 q 835 724 829 856 q 846 489 840 592 l 846 489 z m 482 1032 l 382 1032 q 367 1049 363 1032 l 367 1049 l 418 1335 q 442 1351 424 1351 l 442 1351 l 601 1351 q 614 1347 610 1351 q 615 1335 618 1342 l 615 1335 l 504 1049 q 482 1032 497 1032 l 482 1032 z "},"Û":{"ha":888,"x_min":21,"x_max":869,"o":"m 846 489 l 851 388 q 714 54 868 172 l 714 54 q 410 -32 586 -43 l 410 -32 q 126 94 232 -21 l 126 94 q 36 388 22 208 l 36 388 q 60 917 57 781 l 60 917 q 79 960 60 943 q 129 976 99 976 l 129 976 l 307 976 q 347 963 332 976 q 361 925 361 949 l 361 925 l 363 376 q 384 293 363 324 q 440 256 406 263 l 440 256 q 513 208 499 243 l 513 208 q 554 90 544 126 l 554 90 q 579 69 560 67 l 579 69 q 592 100 600 74 l 592 100 q 590 104 592 101 l 590 104 q 565 164 578 136 q 546 204 551 192 q 535 231 540 217 q 528 262 529 244 q 526 303 526 279 q 525 371 525 326 l 525 371 l 525 376 l 528 925 q 534 953 528 942 q 552 970 540 964 q 581 976 564 976 l 581 976 l 758 976 q 808 960 789 976 q 828 917 828 943 l 828 917 q 835 724 829 856 q 846 489 840 592 l 846 489 z m 364 1022 l 278 1044 q 269 1063 264 1049 l 269 1063 l 356 1247 q 376 1260 361 1260 l 376 1260 l 506 1260 q 529 1243 521 1260 l 529 1243 l 613 1063 q 606 1044 619 1049 l 606 1044 l 519 1022 q 500 1029 507 1018 l 500 1029 l 443 1149 l 383 1029 q 364 1022 376 1018 l 364 1022 z "},"Ü":{"ha":888,"x_min":21,"x_max":869,"o":"m 406 1060 q 332 1032 378 1032 q 258 1060 286 1032 q 229 1135 229 1089 l 229 1135 q 258 1210 229 1182 q 332 1239 286 1239 l 332 1239 q 385 1226 361 1239 q 421 1190 408 1214 q 433 1135 433 1167 l 433 1135 q 406 1060 433 1089 z m 846 490 l 851 388 q 714 54 868 174 l 714 54 q 410 -32 586 -43 l 410 -32 q 126 94 232 -21 l 126 94 q 36 388 22 210 l 36 388 q 60 917 57 781 l 60 917 q 79 960 60 943 q 129 978 99 978 l 129 978 l 307 978 q 347 964 332 978 q 361 926 361 950 l 361 926 l 363 376 q 373 315 363 342 q 401 274 383 289 q 440 256 418 260 l 440 256 q 513 210 499 244 l 513 210 q 554 92 544 126 l 554 92 q 579 71 560 67 l 579 71 q 592 100 600 74 l 592 100 q 590 104 592 103 l 590 104 q 561 174 576 140 q 541 216 546 207 q 531 248 536 225 q 525 294 525 271 q 525 372 525 318 l 525 372 l 525 376 l 528 926 q 534 953 528 942 q 552 972 540 965 q 581 978 564 978 l 581 978 l 758 978 q 808 960 789 978 q 828 917 828 943 l 828 917 q 835 724 829 856 q 846 490 840 592 l 846 490 z m 633 1060 q 558 1032 604 1032 q 485 1060 513 1032 q 457 1135 457 1089 l 457 1135 q 485 1210 457 1182 q 558 1239 513 1239 l 558 1239 q 612 1226 589 1239 q 648 1190 635 1214 q 661 1135 661 1167 l 661 1135 q 633 1060 661 1089 z "},"Ý":{"ha":1007,"x_min":-24,"x_max":1031,"o":"m 697 978 l 997 978 q 1025 964 1021 978 q 1013 925 1029 950 l 1013 925 q 686 458 860 701 l 686 458 l 697 63 q 688 28 697 40 q 667 13 679 15 q 636 10 656 10 l 636 10 l 357 10 q 306 63 306 10 l 306 63 l 300 458 l -6 925 q -18 965 -22 950 q 10 979 -14 979 l 10 979 l 322 979 q 356 974 339 979 q 390 956 374 968 q 414 925 406 943 l 414 925 q 476 789 443 868 l 476 789 q 490 751 489 760 q 482 710 492 743 l 482 710 q 462 663 475 689 q 438 617 449 636 q 425 593 426 597 l 425 593 q 430 569 417 575 q 451 579 443 564 l 451 579 l 606 925 q 631 956 615 943 q 664 973 647 968 q 697 978 681 978 l 697 978 z m 544 1032 l 443 1032 q 429 1049 425 1032 l 429 1049 l 481 1335 q 503 1351 485 1351 l 503 1351 l 663 1351 q 676 1347 671 1351 q 678 1335 681 1342 l 678 1335 l 567 1049 q 544 1032 560 1032 l 544 1032 z "},"ß":{"ha":935,"x_min":46,"x_max":924,"o":"m 785 518 l 785 518 q 887 389 851 481 q 903 192 922 297 l 903 192 q 851 74 889 119 q 766 11 813 28 q 663 -7 719 -6 q 562 0 606 -8 q 478 22 518 8 l 478 22 q 453 71 453 32 l 453 71 l 453 286 q 460 313 453 304 q 478 317 468 321 l 478 317 q 639 338 588 286 l 639 338 q 649 413 674 374 l 649 413 q 550 454 621 451 l 550 454 q 490 481 508 457 q 482 531 471 504 q 531 571 493 558 l 531 571 q 582 635 576 588 l 582 635 q 533 714 589 688 l 533 714 q 333 701 464 747 l 333 701 q 343 58 331 225 l 343 58 q 338 31 344 43 q 317 12 331 18 q 288 6 304 6 l 288 6 l 103 6 q 62 20 78 6 q 47 58 46 35 l 47 58 q 49 490 50 151 q 53 922 49 828 l 53 922 q 60 949 53 938 q 79 967 67 961 q 110 975 92 974 l 110 975 l 540 975 q 694 953 628 975 q 799 895 761 931 q 857 816 836 860 q 878 728 878 772 q 868 647 879 685 q 835 583 857 608 l 835 583 q 822 572 829 576 q 802 560 815 567 q 785 551 789 553 l 785 551 q 785 518 756 535 z "},"à":{"ha":840,"x_min":18,"x_max":803,"o":"m 143 736 l 143 736 q 256 753 199 747 q 380 758 314 760 q 505 745 446 756 q 619 710 564 735 q 714 647 674 685 q 778 550 754 610 q 803 415 803 490 l 803 415 l 803 57 q 788 19 803 33 q 750 4 774 4 l 750 4 l 533 4 q 503 17 511 4 q 506 50 496 29 l 506 50 l 589 204 q 599 243 611 235 l 599 243 q 574 221 588 251 l 574 221 q 482 89 539 142 q 364 17 425 36 q 240 2 303 -3 q 129 36 178 7 q 49 118 81 65 q 18 239 18 171 l 18 239 q 35 335 18 290 q 86 419 51 381 q 183 481 121 458 q 326 504 244 503 l 326 504 q 521 456 442 504 l 521 456 q 439 525 514 504 l 439 525 q 333 540 382 540 q 243 528 285 540 q 143 492 201 517 l 143 492 q 106 497 122 483 q 89 528 89 510 l 89 528 l 89 700 q 102 723 89 715 q 143 736 115 731 z m 331 179 l 331 179 q 383 217 368 181 q 381 288 397 253 q 329 324 365 324 l 329 324 q 271 288 288 324 q 272 215 254 251 q 331 179 289 179 z m 332 811 l 332 811 l 221 1096 q 222 1109 218 1104 q 235 1114 226 1114 l 235 1114 l 394 1114 q 418 1096 413 1114 l 418 1096 l 469 811 q 454 794 474 794 l 454 794 l 354 794 q 332 811 339 794 z "},"á":{"ha":840,"x_min":18,"x_max":803,"o":"m 451 796 l 351 796 q 338 813 332 796 l 338 813 l 389 1097 q 411 1115 393 1115 l 411 1115 l 571 1115 q 584 1110 579 1115 q 586 1097 589 1106 l 586 1097 l 475 813 q 451 796 468 796 l 451 796 z m 143 736 l 143 736 q 256 753 199 747 q 380 758 314 760 q 505 745 446 756 q 619 710 564 735 q 714 647 674 685 q 778 550 754 610 q 803 415 803 490 l 803 415 l 803 57 q 788 19 803 33 q 750 4 774 4 l 750 4 l 533 4 q 503 17 511 4 q 506 50 496 29 l 506 50 l 589 204 q 599 243 611 235 l 599 243 q 574 221 588 251 l 574 221 q 482 89 539 142 q 364 17 425 36 q 240 2 303 -3 q 129 36 178 7 q 49 119 81 65 q 18 239 18 172 l 18 239 q 35 335 18 290 q 86 419 51 381 q 183 481 121 458 q 326 504 244 503 l 326 504 q 521 456 442 504 l 521 456 q 439 525 514 504 l 439 525 q 333 540 382 540 q 243 528 285 540 q 143 492 201 517 l 143 492 q 106 497 122 483 q 89 528 89 510 l 89 528 l 89 700 q 102 723 89 715 q 143 736 115 731 z m 331 179 l 331 179 q 383 217 368 181 q 381 288 397 253 q 329 324 365 324 l 329 324 q 271 288 288 324 q 272 215 254 251 q 331 179 289 179 z "},"â":{"ha":840,"x_min":18,"x_max":803,"o":"m 342 788 l 254 810 q 247 828 240 814 l 247 828 l 333 1011 q 354 1025 339 1025 l 354 1025 l 483 1025 q 507 1008 499 1025 l 507 1008 l 590 828 q 583 810 597 814 l 583 810 l 497 788 q 478 794 485 783 l 478 794 l 421 914 l 361 794 q 342 788 354 783 l 342 788 z m 143 736 l 143 736 q 256 753 199 747 q 380 758 314 760 q 505 745 446 756 q 619 710 564 735 q 714 647 674 685 q 778 550 754 610 q 803 415 803 490 l 803 415 l 803 57 q 788 19 803 33 q 750 4 774 4 l 750 4 l 533 4 q 503 17 511 4 q 506 50 496 29 l 506 50 l 589 204 q 599 243 611 235 l 599 243 q 574 221 588 251 l 574 221 q 482 89 539 142 q 364 17 425 36 q 240 2 303 -3 q 129 36 178 7 q 49 118 81 65 q 18 239 18 171 l 18 239 q 35 335 18 290 q 86 419 51 381 q 183 481 121 458 q 326 504 244 503 l 326 504 q 521 456 442 504 l 521 456 q 439 525 514 504 l 439 525 q 333 540 382 540 q 243 528 285 540 q 143 492 201 517 l 143 492 q 106 497 122 483 q 89 528 89 510 l 89 528 l 89 700 q 102 723 89 715 q 143 736 115 731 z m 331 179 l 331 179 q 383 217 368 181 q 381 288 397 253 q 329 324 365 324 l 329 324 q 271 288 288 324 q 272 215 254 251 q 331 179 289 179 z "},"ã":{"ha":840,"x_min":18,"x_max":803,"o":"m 143 743 l 143 743 q 241 758 190 753 q 349 764 292 763 q 458 758 406 765 q 563 737 511 751 q 658 695 615 722 q 733 632 700 668 q 784 542 765 596 q 803 421 803 488 l 803 421 l 803 63 q 788 24 803 39 q 750 10 774 10 l 750 10 l 533 10 q 503 22 511 10 q 506 56 496 35 l 506 56 l 589 210 q 599 249 611 240 l 599 249 q 574 226 588 257 l 574 226 q 482 94 539 147 q 364 22 425 42 q 240 8 303 3 q 129 42 178 13 q 49 124 81 71 q 18 246 18 178 l 18 246 q 35 341 18 296 q 86 425 51 386 q 183 487 121 464 q 326 510 244 510 l 326 510 q 521 461 442 510 l 521 461 q 439 531 514 510 l 439 531 q 359 545 396 542 q 287 543 322 549 q 219 527 251 538 q 143 497 186 517 l 143 497 q 106 502 122 489 q 89 533 89 515 l 89 533 l 89 706 q 102 729 89 721 q 143 743 115 738 z m 331 186 l 331 186 q 383 222 368 186 q 381 294 397 258 q 329 329 365 329 l 329 329 q 271 293 288 329 q 272 221 254 257 q 331 186 289 185 z m 256 807 l 256 807 q 206 794 225 799 q 166 789 188 790 q 133 794 144 788 q 115 816 122 801 q 107 856 107 831 l 107 856 l 107 994 q 132 1044 107 1033 q 186 1032 157 1056 l 186 1032 q 269 1008 215 1010 q 380 1021 322 1007 q 498 1048 438 1035 q 606 1068 558 1061 q 685 1058 654 1075 q 715 997 715 1042 l 715 997 l 715 844 q 697 805 715 818 q 654 806 678 792 l 654 806 q 610 830 632 819 q 562 844 588 840 q 518 852 536 849 q 469 852 500 856 q 426 849 439 849 q 378 840 413 849 q 338 831 344 832 q 294 818 331 829 q 256 807 257 807 z "},"ä":{"ha":840,"x_min":18,"x_max":803,"o":"m 143 740 l 143 740 q 256 757 199 751 q 380 761 314 763 q 505 749 446 760 q 619 713 564 738 q 714 650 674 688 q 778 553 754 613 q 803 418 803 493 l 803 418 l 803 60 q 788 22 803 36 q 750 7 774 7 l 750 7 l 533 7 q 503 19 511 7 q 506 53 496 32 l 506 53 l 589 207 q 599 246 611 238 l 599 246 q 574 224 588 254 l 574 224 q 482 92 539 144 q 364 19 425 39 q 240 5 303 0 q 129 39 178 10 q 49 122 81 68 q 18 242 18 175 l 18 242 q 35 338 18 293 q 86 422 51 383 q 183 484 121 461 q 326 507 244 507 l 326 507 q 521 458 442 507 l 521 458 q 439 528 514 507 l 439 528 q 333 543 382 543 q 243 531 285 543 q 143 494 201 519 l 143 494 q 106 499 122 486 q 89 531 89 513 l 89 531 l 89 703 q 102 726 89 718 q 143 740 115 733 z m 331 183 l 331 183 q 383 219 368 183 q 381 291 397 256 q 329 326 365 326 l 329 326 q 271 290 288 326 q 272 218 254 254 q 331 183 289 182 z m 307 788 l 307 788 q 233 816 261 788 q 204 890 204 844 l 204 890 q 233 966 204 938 q 307 994 261 994 q 381 966 353 994 q 408 890 408 938 l 408 890 q 396 836 408 860 q 360 800 383 813 q 307 788 336 788 z m 533 788 l 533 788 q 460 816 488 788 q 432 890 432 844 l 432 890 q 460 966 432 938 q 533 994 488 994 q 608 966 579 994 q 636 890 636 938 l 636 890 q 623 836 636 860 q 587 800 610 813 q 533 788 564 788 z "},"å":{"ha":840,"x_min":17,"x_max":803,"o":"m 526 736 l 526 736 q 727 630 651 708 q 803 411 803 551 l 803 411 l 803 53 q 788 15 803 29 q 750 0 774 0 l 750 0 l 533 0 q 503 13 511 0 q 506 46 496 25 l 506 46 l 589 200 q 599 239 611 231 l 599 239 q 574 217 588 247 l 574 217 q 482 85 539 138 q 364 13 425 32 q 240 -2 303 -7 q 129 32 178 3 q 49 115 81 61 q 18 235 18 168 l 18 235 q 35 331 18 286 q 86 415 51 376 q 183 476 121 454 q 326 500 244 499 l 326 500 q 521 451 442 500 l 521 451 q 439 521 514 500 l 439 521 q 333 536 382 536 q 243 524 285 536 q 143 488 201 513 l 143 488 q 106 492 122 479 q 89 524 89 506 l 89 524 l 89 696 q 97 714 89 707 q 115 725 104 721 q 143 732 125 729 l 143 732 q 272 751 207 746 l 272 751 q 247 844 247 790 l 247 844 q 267 929 247 893 q 322 985 286 965 q 404 1006 358 1006 l 404 1006 q 518 961 475 1006 q 561 844 561 917 l 561 844 q 526 736 561 781 z m 367 807 q 404 793 381 793 q 441 807 428 793 q 454 844 454 821 q 441 883 454 868 q 404 897 428 897 q 367 883 381 897 q 353 844 353 868 q 367 807 353 821 z m 331 176 l 331 176 q 383 213 368 176 q 381 284 397 249 q 329 319 365 319 l 329 319 q 271 283 288 319 q 272 211 254 247 q 331 176 289 175 z "},"æ":{"ha":1381,"x_min":18,"x_max":1369,"o":"m 1365 414 l 1365 414 q 1354 376 1368 392 q 1315 361 1340 361 l 1315 361 l 868 361 q 890 297 871 324 q 937 261 910 271 q 994 256 964 251 q 1047 279 1025 260 l 1047 279 q 1129 310 1093 319 l 1129 310 l 1301 268 q 1334 244 1325 261 q 1332 206 1343 226 l 1332 206 q 1236 76 1297 128 q 1102 7 1175 25 q 951 -3 1029 -11 q 800 39 872 4 l 800 39 q 750 3 789 3 l 750 3 l 533 3 q 503 15 511 3 q 506 49 496 28 l 506 49 l 589 203 q 599 242 611 233 l 599 242 q 574 219 588 250 l 574 219 q 482 88 539 140 q 364 15 425 35 q 240 1 303 -4 q 129 35 178 7 q 49 117 81 64 q 18 239 18 171 l 18 239 q 35 334 18 289 q 86 418 51 379 q 183 480 121 457 q 326 503 244 503 l 326 503 q 521 454 442 503 l 521 454 q 439 524 514 504 l 439 524 q 333 539 382 539 q 243 528 285 539 q 143 492 201 517 l 143 492 q 106 497 122 483 q 89 526 89 510 l 89 526 l 89 699 q 102 722 89 714 q 143 736 115 731 l 143 736 q 339 758 240 756 q 544 733 438 761 q 715 644 651 706 l 715 644 q 867 735 782 708 q 1033 750 951 763 q 1187 697 1115 738 q 1307 582 1258 657 q 1365 414 1356 507 z m 331 179 l 331 179 q 383 215 368 179 q 381 288 397 251 q 329 324 365 324 l 329 324 q 271 287 288 324 q 272 214 254 250 q 331 179 289 178 z m 881 426 l 881 426 l 1074 426 q 1015 476 1054 463 q 938 476 976 490 q 881 426 899 463 z "},"ç":{"ha":788,"x_min":18,"x_max":776,"o":"m 561 315 l 733 271 q 766 247 757 265 q 765 206 775 228 l 765 206 q 631 56 721 111 q 435 -4 542 1 l 435 -4 l 407 -49 q 467 -124 447 -79 q 482 -212 488 -169 q 448 -288 476 -254 q 362 -330 419 -322 q 219 -314 304 -337 l 219 -314 q 197 -275 186 -303 l 197 -275 l 219 -222 q 267 -210 229 -196 l 267 -210 q 361 -200 326 -232 l 361 -200 q 360 -121 397 -168 l 360 -121 q 297 -72 339 -96 l 297 -72 q 290 -60 290 -69 q 294 -46 290 -51 l 294 -46 l 314 4 q 102 128 186 32 q 18 376 18 225 l 18 376 q 44 524 18 457 q 114 635 71 590 q 215 710 157 681 q 334 751 272 740 q 460 753 396 761 q 582 722 525 746 q 688 654 639 699 q 764 550 736 610 l 764 550 q 765 510 774 528 q 732 486 756 493 l 732 486 l 561 442 q 517 449 539 436 q 468 479 494 463 q 414 497 442 496 l 414 497 q 311 435 339 500 q 317 310 283 371 q 419 257 350 249 l 419 257 q 470 278 446 260 q 516 309 494 296 q 561 315 538 322 l 561 315 z "},"è":{"ha":817,"x_min":10,"x_max":804,"o":"m 750 379 l 750 379 l 303 379 q 301 324 297 349 q 317 280 306 299 q 343 249 328 261 q 377 230 358 236 q 415 223 396 224 q 451 228 433 222 q 481 244 468 233 l 481 244 q 563 275 526 285 l 563 275 l 735 233 q 767 209 758 226 q 767 171 776 192 l 767 171 q 625 31 721 76 q 410 -15 529 -15 l 410 -15 q 156 65 258 -15 q 32 258 54 144 q 36 485 10 372 q 168 676 63 599 q 425 749 274 753 l 425 749 q 596 711 517 746 q 732 604 675 676 q 800 433 789 532 l 800 433 q 789 394 803 410 q 750 379 775 379 z m 314 444 l 507 444 q 450 495 489 481 q 372 496 411 510 q 314 444 332 482 l 314 444 z m 356 807 l 356 807 l 244 1093 q 246 1105 242 1100 q 260 1110 250 1110 l 260 1110 l 419 1110 q 442 1093 438 1110 l 442 1093 l 493 807 q 479 792 497 792 l 479 792 l 378 792 q 356 807 363 792 z "},"é":{"ha":815,"x_min":17,"x_max":803,"o":"m 799 432 l 799 432 q 788 394 801 408 q 749 379 774 379 l 749 379 l 301 379 q 319 292 300 328 q 366 244 338 257 q 426 234 394 231 q 481 257 457 238 l 481 257 q 563 288 526 297 l 563 288 l 735 246 q 767 222 758 239 q 765 183 776 204 l 765 183 q 619 33 718 85 q 404 -18 519 -19 l 404 -18 q 236 16 311 -17 q 115 101 161 49 q 44 222 69 154 q 17 361 18 290 q 41 500 17 432 q 111 622 65 568 q 231 710 157 676 q 399 747 306 744 l 399 747 q 580 717 494 750 q 726 610 665 685 q 799 432 788 536 z m 314 443 l 314 443 l 507 443 q 449 494 488 481 q 371 494 410 508 q 314 443 332 481 z m 481 778 l 379 778 q 365 794 361 778 l 365 794 l 417 1079 q 439 1097 421 1097 l 439 1097 l 599 1097 q 612 1092 607 1097 q 614 1079 617 1088 l 614 1079 l 503 794 q 481 778 496 778 l 481 778 z "},"ê":{"ha":815,"x_min":17,"x_max":803,"o":"m 799 432 l 799 432 q 788 394 801 408 q 749 379 774 379 l 749 379 l 301 379 q 319 294 300 329 q 366 245 338 258 q 426 235 394 232 q 481 257 457 238 l 481 257 q 563 288 526 297 l 563 288 l 735 246 q 767 222 758 239 q 765 183 776 204 l 765 183 q 619 33 718 85 q 404 -18 519 -19 l 404 -18 q 236 16 311 -17 q 115 101 161 49 q 44 222 69 154 q 17 361 18 290 q 41 500 17 432 q 111 622 65 568 q 231 710 157 676 q 399 747 306 744 l 399 747 q 580 717 494 750 q 726 610 665 685 q 799 432 788 536 z m 314 443 l 314 443 l 507 443 q 449 494 488 481 q 371 494 410 508 q 314 443 332 481 z m 333 772 l 246 794 q 238 813 232 799 l 238 813 l 324 997 q 346 1010 331 1010 l 346 1010 l 475 1010 q 499 993 490 1010 l 499 993 l 582 813 q 574 794 589 799 l 574 794 l 488 772 q 469 779 475 768 l 469 779 l 411 899 l 351 779 q 333 772 346 768 l 333 772 z "},"ë":{"ha":815,"x_min":17,"x_max":803,"o":"m 799 432 l 799 432 q 788 394 801 408 q 749 379 774 379 l 749 379 l 301 379 q 319 289 300 325 q 367 241 339 253 q 426 233 394 229 q 481 257 457 238 l 481 257 q 563 288 526 297 l 563 288 l 735 246 q 767 222 758 239 q 765 183 776 204 l 765 183 q 619 33 718 85 q 404 -18 519 -19 l 404 -18 q 236 16 311 -17 q 115 101 161 49 q 44 222 69 154 q 17 361 18 290 q 41 500 17 432 q 111 622 65 568 q 231 710 157 676 q 399 747 306 744 l 399 747 q 580 717 494 750 q 726 610 665 685 q 799 432 788 536 z m 314 443 l 314 443 l 507 443 q 449 494 488 481 q 371 494 410 508 q 314 443 332 481 z m 299 771 l 299 771 q 245 783 268 771 q 209 819 222 796 q 196 874 196 843 l 196 874 q 224 950 196 921 q 299 979 253 979 l 299 979 q 351 966 328 979 q 388 929 375 953 q 400 874 400 906 l 400 874 q 372 799 400 828 q 299 771 344 771 z m 599 799 q 525 771 571 771 q 451 799 479 771 q 424 874 424 828 l 424 874 q 451 950 424 921 q 525 979 479 979 l 525 979 q 578 966 556 979 q 615 929 601 953 q 628 874 628 906 l 628 874 q 599 799 628 828 z "},"ì":{"ha":415,"x_min":42,"x_max":381,"o":"m 278 776 l 178 776 q 156 793 163 776 l 156 793 l 44 1078 q 44 1088 42 1083 q 49 1094 46 1092 q 58 1096 53 1096 l 58 1096 l 218 1096 q 242 1078 238 1096 l 242 1078 l 293 793 q 278 776 297 776 l 278 776 z m 367 681 l 367 681 q 366 487 367 632 q 367 244 365 342 q 378 53 369 146 l 378 53 q 363 15 379 29 q 322 0 347 0 l 322 0 l 136 0 q 96 15 111 0 q 81 53 81 29 l 81 53 q 83 367 83 147 q 86 681 82 586 l 86 681 q 103 718 88 704 q 143 733 118 732 l 143 733 q 310 733 225 736 l 310 733 q 351 718 336 732 q 367 681 367 704 z "},"í":{"ha":408,"x_min":42,"x_max":372,"o":"m 329 681 l 329 681 q 328 487 329 632 q 330 244 328 342 q 339 53 332 146 l 339 53 q 333 26 340 38 q 313 7 326 14 q 283 0 300 0 l 283 0 l 99 0 q 58 15 74 0 q 43 53 42 29 l 43 53 q 45 367 46 147 q 49 681 44 586 l 49 681 q 65 718 50 704 q 106 733 79 732 l 106 733 q 272 733 188 736 l 272 733 q 313 718 297 732 q 329 681 329 704 z m 194 1099 l 354 1099 q 367 1094 363 1099 q 368 1081 371 1089 l 368 1081 l 257 794 q 235 779 250 779 l 235 779 l 135 779 q 119 794 115 779 l 119 794 l 171 1081 q 194 1099 175 1099 l 194 1099 z "},"î":{"ha":429,"x_min":38,"x_max":396,"o":"m 306 1006 l 389 825 q 381 807 394 811 l 381 807 l 294 785 q 276 793 282 781 l 276 793 l 218 911 l 158 793 q 140 785 153 781 l 140 785 l 53 807 q 44 825 39 811 l 44 825 l 131 1010 q 151 1022 136 1022 l 151 1022 l 282 1022 q 306 1006 297 1022 l 306 1006 z m 363 681 l 363 681 q 362 487 363 632 q 363 244 361 342 q 372 53 365 146 l 372 53 q 359 15 375 29 q 317 0 343 0 l 317 0 l 132 0 q 91 15 107 0 q 76 53 75 29 l 76 53 q 78 367 79 147 q 82 681 78 586 l 82 681 q 89 708 82 696 q 108 726 96 719 q 139 733 121 732 l 139 733 q 306 733 219 736 l 306 733 q 347 718 331 732 q 363 681 363 704 z "},"ï":{"ha":513,"x_min":43,"x_max":475,"o":"m 400 681 l 400 681 q 400 526 400 625 q 400 362 400 426 q 402 211 400 297 q 411 53 404 125 l 411 53 q 397 15 413 29 q 356 0 381 0 l 356 0 l 169 0 q 129 15 144 0 q 114 53 114 29 l 114 53 q 116 367 117 147 q 119 681 115 586 l 119 681 q 136 718 121 704 q 176 733 151 732 l 176 733 q 343 733 258 736 l 343 733 q 385 718 369 732 q 400 681 400 704 z m 372 983 l 372 983 q 426 970 403 983 q 461 933 449 957 q 474 878 474 910 l 474 878 q 446 803 474 832 q 372 775 418 775 q 299 803 326 775 q 271 878 271 832 l 271 878 q 299 955 271 926 q 372 983 326 983 z m 247 878 l 247 878 q 219 803 247 832 q 144 775 190 775 q 71 803 99 775 q 43 878 43 832 l 43 878 q 71 955 43 926 q 144 983 99 983 q 219 955 190 983 q 247 878 247 926 z "},"ñ":{"ha":836,"x_min":46,"x_max":801,"o":"m 792 413 l 792 413 q 801 53 801 326 l 801 53 q 775 15 801 31 q 722 0 749 0 l 722 0 l 564 0 q 524 14 539 0 q 511 53 508 28 l 511 53 q 511 221 511 53 l 511 221 q 421 535 499 533 l 421 535 q 338 53 318 533 l 338 53 q 331 26 338 38 q 312 7 324 14 q 283 0 300 0 l 283 0 l 100 0 q 61 15 76 0 q 47 53 46 29 l 47 53 l 50 682 q 65 720 50 706 q 103 735 79 735 l 103 735 l 331 735 q 347 716 346 735 q 339 675 349 697 l 339 675 q 288 573 314 624 q 247 497 263 522 l 247 497 l 233 472 q 231 432 213 443 l 231 432 q 257 447 244 422 l 257 447 q 258 453 258 450 l 258 453 q 342 610 292 544 q 448 705 393 675 q 560 732 503 735 q 664 695 617 729 q 746 588 711 661 q 792 413 781 515 z m 232 792 l 232 792 q 183 778 201 782 q 142 773 164 774 q 110 778 121 772 q 91 800 99 785 q 83 840 83 815 l 83 840 l 83 979 q 108 1028 83 1017 q 163 1015 133 1039 l 163 1015 q 245 992 192 993 q 356 1004 299 990 q 474 1031 414 1018 q 583 1051 535 1044 q 661 1042 631 1058 q 692 982 692 1025 l 692 982 l 692 828 q 673 790 692 803 q 631 790 654 776 l 631 790 q 586 815 608 804 q 538 829 564 825 q 494 837 513 833 q 446 837 476 840 q 402 833 415 833 q 355 824 389 832 q 314 814 321 815 q 270 802 307 813 q 232 792 233 792 z "},"ò":{"ha":790,"x_min":17,"x_max":772,"o":"m 392 764 l 392 764 q 542 738 474 764 q 655 669 611 713 q 729 568 699 625 q 766 448 760 511 q 765 322 772 385 q 728 201 758 258 q 656 98 699 143 q 548 26 613 53 q 406 -3 483 -1 l 406 -3 q 255 19 324 -6 q 142 88 186 44 q 65 190 97 132 q 26 311 33 247 q 23 439 18 375 q 58 561 28 503 q 131 664 88 619 q 242 735 174 708 q 392 764 310 763 z m 394 263 l 394 263 q 442 288 424 263 q 465 349 461 314 q 465 420 469 385 q 440 480 460 456 q 394 504 421 504 l 394 504 q 346 479 365 504 q 322 419 326 454 q 323 347 318 383 q 347 287 328 311 q 394 263 367 263 z m 315 819 l 315 819 l 204 1104 q 206 1117 201 1113 q 219 1122 211 1122 l 219 1122 l 379 1122 q 401 1104 397 1122 l 401 1104 l 453 819 q 439 803 458 803 l 439 803 l 339 803 q 315 819 322 803 z "},"ó":{"ha":790,"x_min":17,"x_max":772,"o":"m 436 814 l 336 814 q 321 829 317 814 l 321 829 l 372 1115 q 394 1132 376 1132 l 394 1132 l 556 1132 q 568 1127 564 1132 q 569 1115 572 1122 l 569 1115 l 458 829 q 436 814 451 814 l 436 814 z m 392 768 l 392 768 q 542 742 474 768 q 655 673 611 717 q 729 572 699 629 q 766 452 760 515 q 765 326 772 389 q 728 204 758 263 q 656 101 699 146 q 548 29 613 57 q 406 0 483 1 l 406 0 q 255 24 324 -1 q 142 92 186 49 q 65 194 97 136 q 26 315 33 251 q 23 442 18 378 q 58 565 28 507 q 131 667 88 622 q 242 740 174 713 q 392 768 310 767 z m 394 267 l 394 267 q 449 305 431 267 q 467 388 468 343 q 447 471 467 433 q 394 508 428 508 l 394 508 q 346 483 365 508 q 322 422 326 458 q 323 351 318 386 q 347 290 328 315 q 394 267 367 265 z "},"ô":{"ha":790,"x_min":17,"x_max":772,"o":"m 317 803 l 229 825 q 222 844 215 831 l 222 844 l 308 1028 q 329 1042 314 1042 l 329 1042 l 458 1042 q 482 1024 474 1042 l 482 1024 l 565 844 q 558 825 572 829 l 558 825 l 472 803 q 453 811 460 800 l 453 811 l 396 931 l 336 811 q 317 803 329 799 l 317 803 z m 392 768 l 392 768 q 542 742 474 768 q 655 673 611 717 q 729 572 699 629 q 766 452 760 515 q 765 326 772 389 q 728 204 758 263 q 656 101 699 146 q 548 29 613 57 q 406 0 483 1 l 406 0 q 255 24 324 -1 q 142 92 186 49 q 65 194 97 136 q 26 315 33 251 q 23 442 18 378 q 58 565 28 507 q 131 667 88 622 q 242 740 174 713 q 392 768 310 767 z m 394 267 l 394 267 q 442 292 424 267 q 465 353 461 318 q 465 424 469 389 q 440 483 460 458 q 394 508 421 508 l 394 508 q 346 483 365 508 q 322 422 326 458 q 323 351 318 386 q 347 290 328 315 q 394 267 367 265 z "},"õ":{"ha":790,"x_min":17,"x_max":772,"o":"m 392 767 l 392 767 q 542 742 474 768 q 655 673 611 717 q 729 572 699 629 q 766 452 760 515 q 765 325 772 389 q 728 203 758 261 q 656 101 699 146 q 548 28 613 56 q 406 0 483 1 l 406 0 q 255 24 324 -1 q 142 92 186 49 q 65 193 97 136 q 26 314 33 250 q 23 442 18 378 q 58 564 28 506 q 131 667 88 622 q 242 740 174 713 q 392 767 310 767 z m 394 279 l 394 279 q 449 316 431 281 q 467 394 468 351 q 447 473 467 438 q 394 508 428 508 l 394 508 q 346 485 365 508 q 322 427 326 461 q 323 359 318 393 q 347 302 328 325 q 394 279 367 279 z m 203 781 l 203 781 q 153 767 172 771 q 113 762 135 763 q 81 767 92 761 q 62 789 69 774 q 54 829 54 804 l 54 829 l 54 968 q 79 1017 54 1006 q 133 1006 104 1029 l 133 1006 q 216 981 163 982 q 327 993 269 979 q 445 1020 385 1007 q 553 1040 506 1033 q 632 1031 601 1047 q 663 971 663 1015 l 663 971 l 663 817 q 644 778 663 792 q 601 779 625 765 l 601 779 q 557 803 579 793 q 509 818 535 814 q 465 826 483 822 q 417 826 447 829 q 373 822 386 822 q 326 813 360 822 q 285 803 292 804 q 241 791 278 801 q 203 781 204 781 z "},"ö":{"ha":790,"x_min":17,"x_max":772,"o":"m 356 822 q 283 793 328 793 q 209 822 238 793 q 181 897 181 850 l 181 897 q 209 973 181 944 q 283 1001 238 1001 q 357 973 329 1001 q 385 897 385 944 l 385 897 q 356 822 385 850 z m 392 767 l 392 767 q 542 742 474 768 q 655 673 611 717 q 729 572 699 629 q 766 452 760 515 q 765 325 772 389 q 728 203 758 261 q 656 101 699 146 q 548 29 613 57 q 406 0 483 1 l 406 0 q 255 24 324 -1 q 142 92 186 49 q 65 193 97 136 q 26 314 33 250 q 23 442 18 378 q 58 564 28 506 q 131 667 88 622 q 242 740 174 713 q 392 767 310 767 z m 394 267 l 394 267 q 449 305 431 267 q 467 388 468 343 q 447 471 467 433 q 394 508 428 508 l 394 508 q 346 483 365 508 q 322 422 326 458 q 323 351 318 386 q 347 290 328 315 q 394 267 367 265 z m 584 822 q 510 793 556 793 q 436 822 464 793 q 408 897 408 850 l 408 897 q 436 973 408 944 q 510 1001 464 1001 q 584 973 556 1001 q 613 897 613 944 l 613 897 q 584 822 613 850 z "},"÷":{"ha":671,"x_min":31,"x_max":640,"o":"m 417 689 q 332 656 385 656 q 247 689 279 656 q 214 776 214 722 l 214 776 q 223 826 214 803 q 247 864 232 849 q 284 888 263 879 q 332 897 306 897 l 332 897 q 417 864 385 897 q 450 776 450 831 q 417 689 450 722 z m 64 617 l 604 619 q 630 608 621 619 q 639 575 639 596 l 639 575 l 639 422 q 630 390 639 401 q 604 378 621 378 l 604 378 q 64 390 264 378 l 64 390 q 40 402 49 390 q 31 433 31 414 l 31 433 l 31 572 q 40 605 31 593 q 64 617 49 617 l 64 617 z m 332 335 l 332 335 q 417 301 385 335 q 450 214 450 268 q 417 127 450 160 q 332 94 385 94 q 247 127 279 94 q 214 214 214 160 l 214 214 q 229 278 214 250 q 271 320 244 306 q 332 335 297 335 z "},"ø":{"ha":790,"x_min":14,"x_max":776,"o":"m 632 811 l 608 703 q 711 598 671 663 q 764 461 751 533 q 764 313 776 389 q 717 174 751 238 q 619 64 682 111 q 475 1 556 17 l 475 1 l 465 -51 q 453 -83 465 -71 q 422 -94 442 -94 l 422 -94 l 269 -94 q 237 -82 250 -94 q 226 -51 224 -69 l 226 -51 l 236 25 q 121 107 169 54 q 49 224 72 160 q 20 358 26 288 q 35 494 14 428 q 93 617 56 561 q 196 710 131 672 q 342 758 261 749 l 342 758 l 351 811 q 394 857 360 857 l 394 857 l 589 857 q 620 844 608 857 q 632 811 632 832 l 632 811 z m 396 260 l 396 260 q 450 299 431 261 q 468 381 469 336 q 447 464 467 426 q 394 501 428 501 l 394 501 q 346 476 365 501 q 322 416 326 451 q 323 344 318 381 q 347 284 328 308 q 396 260 367 260 z "},"ù":{"ha":749,"x_min":42,"x_max":704,"o":"m 694 688 l 694 688 q 699 394 694 638 q 703 53 703 151 l 703 53 q 688 15 703 29 q 650 0 674 0 l 650 0 l 378 0 q 347 12 354 0 q 354 44 340 24 l 354 44 q 383 92 367 64 q 413 147 399 121 q 440 198 428 174 q 460 236 451 222 l 460 236 l 467 250 q 478 289 488 281 l 478 289 q 450 268 468 296 l 450 268 q 320 92 383 158 q 208 10 257 26 q 120 18 158 -6 q 62 110 82 42 q 43 279 42 178 l 43 279 q 44 688 44 403 l 44 688 q 100 740 44 740 l 100 740 l 265 740 q 303 726 289 740 q 318 688 318 713 l 318 688 l 318 371 q 334 290 318 319 q 369 261 350 261 q 405 290 389 261 q 421 371 421 319 l 421 371 l 421 688 q 435 726 421 713 q 474 740 450 740 l 474 740 l 639 740 q 679 726 664 740 q 694 688 694 711 z m 290 804 l 290 804 l 179 1090 q 181 1102 176 1097 q 194 1107 186 1107 l 194 1107 l 354 1107 q 376 1090 372 1107 l 376 1090 l 428 804 q 414 789 432 789 l 414 789 l 313 789 q 290 804 297 789 z "},"ú":{"ha":749,"x_min":42,"x_max":704,"o":"m 694 688 l 694 688 q 699 394 694 638 q 703 53 703 151 l 703 53 q 688 15 703 29 q 650 0 674 0 l 650 0 l 378 0 q 347 12 354 0 q 354 44 340 24 l 354 44 q 383 92 367 64 q 413 147 399 121 q 440 198 428 174 q 460 236 451 222 l 460 236 l 467 250 q 478 289 488 281 l 478 289 q 450 268 468 296 l 450 268 q 320 92 383 158 q 208 10 257 26 q 120 18 158 -6 q 62 110 82 42 q 43 279 42 178 l 43 279 q 44 688 44 403 l 44 688 q 100 740 44 740 l 100 740 l 265 740 q 303 726 289 740 q 318 688 318 713 l 318 688 l 318 371 q 334 290 318 319 q 369 261 350 261 q 405 290 389 261 q 421 371 421 319 l 421 371 l 421 688 q 435 726 421 713 q 474 740 450 740 l 474 740 l 639 740 q 679 726 664 740 q 694 688 694 711 z m 413 794 l 311 794 q 297 811 293 794 l 297 811 l 349 1097 q 371 1114 353 1114 l 371 1114 l 531 1114 q 544 1109 539 1114 q 546 1097 549 1104 l 546 1097 l 435 811 q 413 794 428 794 l 413 794 z "},"û":{"ha":749,"x_min":42,"x_max":704,"o":"m 694 688 l 694 688 q 699 394 694 638 q 703 53 703 151 l 703 53 q 688 15 703 29 q 650 0 674 0 l 650 0 l 378 0 q 347 12 354 0 q 354 44 340 24 l 354 44 q 383 92 367 64 q 413 147 399 121 q 440 198 428 174 q 460 236 451 222 l 460 236 l 467 250 q 478 289 488 281 l 478 289 q 450 268 468 296 l 450 268 q 320 92 383 158 q 208 10 257 26 q 120 18 158 -6 q 62 110 82 42 q 43 279 42 178 l 43 279 q 44 688 44 403 l 44 688 q 100 740 44 740 l 100 740 l 265 740 q 303 726 289 740 q 318 688 318 713 l 318 688 l 318 371 q 334 290 318 319 q 369 261 350 261 q 405 290 389 261 q 421 371 421 319 l 421 371 l 421 688 q 435 726 421 713 q 474 740 450 740 l 474 740 l 639 740 q 679 726 664 740 q 694 688 694 711 z m 296 801 l 208 824 q 201 843 194 829 l 201 843 l 288 1026 q 308 1040 293 1040 l 308 1040 l 438 1040 q 461 1022 453 1040 l 461 1022 l 544 843 q 538 824 551 828 l 538 824 l 451 801 q 432 810 439 799 l 432 810 l 374 929 l 315 810 q 296 801 308 797 l 296 801 z "},"ü":{"ha":749,"x_min":42,"x_max":704,"o":"m 694 688 l 694 688 q 699 394 694 638 q 703 53 703 151 l 703 53 q 688 15 703 29 q 650 0 674 0 l 650 0 l 378 0 q 347 12 354 0 q 354 44 340 24 l 354 44 q 383 92 367 64 q 413 147 399 121 q 440 198 428 174 q 460 236 451 222 l 460 236 l 467 250 q 478 289 488 281 l 478 289 q 450 268 468 296 l 450 268 q 320 92 383 158 q 208 10 257 26 q 120 18 158 -6 q 62 110 82 42 q 43 279 42 178 l 43 279 q 44 688 44 403 l 44 688 q 100 740 44 740 l 100 740 l 265 740 q 303 726 289 740 q 318 688 318 713 l 318 688 l 318 371 q 334 290 318 319 q 369 261 350 261 q 405 290 389 261 q 421 371 421 319 l 421 371 l 421 688 q 435 726 421 713 q 474 740 450 740 l 474 740 l 639 740 q 679 726 664 740 q 694 688 694 711 z m 265 781 l 265 781 q 192 809 219 781 q 164 883 164 838 l 164 883 q 176 939 164 915 q 213 976 189 963 q 266 989 236 989 q 319 976 296 989 q 355 939 342 963 q 368 883 368 915 l 368 883 q 355 829 368 853 q 319 793 342 806 q 265 781 296 781 z m 547 793 q 493 781 524 781 q 440 793 463 781 q 404 829 417 806 q 392 883 392 853 l 392 883 q 419 960 392 931 q 493 989 447 989 l 493 989 q 547 976 524 989 q 582 939 569 963 q 594 883 594 915 l 594 883 q 582 829 594 853 q 547 793 569 806 z "},"ý":{"ha":836,"x_min":32,"x_max":788,"o":"m 550 742 l 733 742 q 772 727 757 742 q 786 689 788 713 l 786 689 l 786 57 q 754 -101 786 -31 q 669 -217 722 -172 q 547 -291 615 -261 q 405 -333 479 -321 q 260 -344 331 -344 q 126 -331 189 -343 l 126 -331 q 86 -317 99 -325 q 74 -293 74 -310 l 74 -293 l 74 -69 q 81 -48 74 -58 q 99 -33 88 -37 q 126 -35 111 -29 l 126 -35 q 248 -62 182 -58 q 375 -50 314 -67 q 487 -1 436 -33 q 568 84 538 32 q 600 197 599 136 l 600 197 q 591 217 600 211 q 574 217 582 222 q 565 199 565 211 l 565 199 q 465 28 565 83 l 465 28 q 256 14 369 -26 l 256 14 q 68 210 124 61 l 68 210 q 42 329 49 264 l 42 329 q 32 678 32 415 l 32 678 q 85 742 32 742 l 85 742 l 269 742 q 322 689 322 742 l 322 689 q 322 522 322 689 l 322 522 q 413 208 333 208 l 413 208 q 440 217 429 208 q 463 254 451 225 q 481 335 474 283 q 492 475 488 386 q 496 689 496 564 l 496 689 q 510 727 496 713 q 550 742 525 742 l 550 742 z m 451 786 l 350 786 q 336 801 332 786 l 336 801 l 388 1088 q 410 1104 392 1104 l 410 1104 l 569 1104 q 583 1099 578 1104 q 585 1088 588 1094 l 585 1088 l 474 801 q 451 786 467 786 l 451 786 z "},"ÿ":{"ha":836,"x_min":32,"x_max":788,"o":"m 550 742 l 733 742 q 772 727 757 742 q 786 689 788 713 l 786 689 l 786 57 q 754 -101 786 -31 q 669 -216 722 -171 q 547 -291 615 -261 q 405 -333 479 -321 q 260 -344 331 -344 q 126 -331 189 -343 l 126 -331 q 104 -325 113 -328 q 88 -318 96 -322 q 77 -308 81 -314 q 74 -293 74 -301 l 74 -293 l 74 -69 q 81 -48 74 -58 q 99 -33 88 -37 q 126 -33 111 -29 l 126 -33 q 248 -62 182 -58 q 375 -49 314 -67 q 487 0 436 -32 q 568 84 538 32 q 600 197 599 136 l 600 197 q 591 217 600 211 q 574 217 582 222 q 565 199 565 211 l 565 199 q 465 28 565 83 l 465 28 q 256 15 369 -26 l 256 15 q 69 210 124 63 l 69 210 q 42 329 49 264 l 42 329 q 32 678 32 417 l 32 678 q 85 742 32 742 l 85 742 l 269 742 q 322 689 322 742 l 322 689 q 322 522 322 689 l 322 522 q 413 208 333 208 l 413 208 q 440 217 429 208 q 463 254 451 225 q 481 335 474 283 q 492 475 488 386 q 496 689 496 564 l 496 689 q 510 728 496 714 q 550 742 525 742 l 550 742 z m 522 789 l 522 789 q 449 817 476 789 q 421 892 421 844 l 421 892 q 449 967 421 939 q 522 996 476 996 l 522 996 q 576 983 553 996 q 612 947 599 971 q 625 892 625 924 l 625 892 q 617 849 625 868 q 597 817 610 831 q 565 796 583 803 q 522 789 546 789 z m 296 789 l 296 789 q 222 817 250 789 q 193 892 193 844 l 193 892 q 222 967 193 939 q 296 996 250 996 l 296 996 q 349 983 325 996 q 385 947 372 971 q 397 892 397 924 l 397 892 q 390 849 397 868 q 369 817 382 831 q 337 796 356 803 q 296 789 318 789 z "},"Ă":{"ha":989,"x_min":-7,"x_max":997,"o":"m 414 1042 l 414 1042 l 331 1221 q 339 1239 324 1236 l 339 1239 l 425 1263 q 443 1254 438 1265 l 443 1254 l 501 1135 l 561 1254 q 579 1263 567 1267 l 579 1263 l 667 1239 q 675 1221 681 1235 l 675 1221 l 589 1038 q 567 1024 582 1024 l 567 1024 l 438 1024 q 414 1042 422 1024 z m 990 53 l 990 53 q 981 15 996 31 q 942 0 965 0 l 942 0 l 697 0 q 658 15 674 0 q 642 53 643 29 l 642 53 q 614 268 635 144 l 614 268 l 368 268 q 335 53 344 138 l 335 53 q 325 26 332 38 q 306 7 318 14 q 279 0 294 0 l 279 0 l 47 0 q 8 15 24 0 q -1 53 -7 31 l -1 53 q 120 507 32 213 q 258 921 208 801 l 258 921 q 276 946 265 935 q 302 963 288 957 q 333 969 317 969 l 333 969 l 656 969 q 700 956 679 969 q 729 921 721 942 l 729 921 q 856 537 775 813 q 990 53 936 261 z m 418 517 l 418 517 l 565 517 q 524 678 543 617 l 524 678 q 499 735 508 724 q 482 734 490 746 q 458 678 474 722 l 458 678 q 418 517 440 619 z "},"Ć":{"ha":892,"x_min":4,"x_max":871,"o":"m 582 599 l 582 599 q 569 681 582 644 q 534 735 556 717 q 486 763 513 754 q 432 762 460 771 q 381 734 404 753 q 340 680 357 715 q 318 599 324 644 l 318 599 q 394 331 297 399 q 672 371 492 264 l 672 371 q 713 381 693 383 q 744 360 733 378 l 744 360 l 839 190 q 829 114 865 143 l 829 114 q 632 17 736 46 q 431 4 528 -11 q 252 67 335 19 q 111 199 169 114 q 32 390 53 283 l 32 390 q 32 663 4 536 l 32 663 q 185 930 71 829 q 440 1047 299 1031 l 440 1047 q 440 1049 440 1047 q 440 1050 440 1050 l 440 1050 l 492 1336 q 514 1353 496 1353 l 514 1353 l 675 1353 q 688 1348 683 1353 q 689 1336 692 1343 l 689 1336 l 578 1050 q 572 1042 576 1046 l 572 1042 q 749 951 674 1021 q 856 765 825 881 l 856 765 q 869 599 869 711 l 869 599 q 854 561 869 575 q 815 547 839 547 l 815 547 l 635 547 q 608 553 619 547 q 589 572 596 560 q 582 599 582 583 z "},"ć":{"ha":789,"x_min":15,"x_max":776,"o":"m 563 318 l 735 276 q 767 253 758 271 q 765 214 776 235 l 765 214 q 617 58 717 115 q 406 0 518 0 l 406 0 q 239 33 314 0 q 117 117 164 65 q 45 238 71 169 q 18 376 19 306 q 40 515 17 447 q 108 638 64 583 q 227 727 153 692 q 393 765 301 763 l 393 765 q 613 719 510 771 q 764 568 715 668 l 764 568 q 766 531 775 547 q 733 508 757 514 l 733 508 l 563 465 q 517 472 539 460 q 468 501 494 485 q 414 518 442 517 l 414 518 q 313 453 340 521 q 317 321 285 386 q 421 263 350 256 l 421 263 q 462 275 442 264 q 494 298 482 286 q 525 317 507 310 q 563 318 543 324 l 563 318 z m 460 789 l 358 789 q 344 804 339 789 l 344 804 l 396 1090 q 418 1107 400 1107 l 418 1107 l 578 1107 q 591 1102 586 1107 q 593 1090 596 1097 l 593 1090 l 482 804 q 460 789 475 789 l 460 789 z "},"Č":{"ha":892,"x_min":4,"x_max":871,"o":"m 582 599 l 582 599 q 569 681 582 644 q 534 735 556 717 q 486 763 513 754 q 432 762 460 771 q 381 735 404 753 q 340 681 357 717 q 318 599 324 644 l 318 599 q 394 331 297 399 q 672 371 492 264 l 672 371 q 713 381 693 383 q 744 360 733 378 l 744 360 l 839 190 q 829 114 865 143 l 829 114 q 632 17 736 46 q 432 4 528 -11 q 253 67 336 19 q 111 199 169 114 q 32 390 53 283 l 32 390 q 32 663 4 536 l 32 663 q 194 938 72 836 q 463 1049 315 1039 l 463 1049 l 415 1049 q 392 1067 400 1049 l 392 1067 l 308 1246 q 317 1265 301 1261 l 317 1265 l 401 1288 q 421 1279 415 1292 l 421 1279 l 479 1160 l 539 1279 q 557 1288 544 1292 l 557 1288 l 644 1265 q 651 1246 658 1260 l 651 1246 l 567 1063 q 544 1049 560 1049 l 544 1049 l 519 1049 q 729 969 638 1042 q 856 765 821 896 l 856 765 q 869 599 869 711 l 869 599 q 854 561 869 575 q 815 547 839 547 l 815 547 l 636 547 q 608 553 619 547 q 589 572 596 560 q 582 599 582 583 z "},"č":{"ha":789,"x_min":15,"x_max":776,"o":"m 563 318 l 735 276 q 767 253 758 271 q 765 214 776 235 l 765 214 q 617 58 717 115 q 406 0 518 0 l 406 0 q 239 33 314 0 q 117 117 164 65 q 45 238 71 169 q 18 376 19 306 q 40 515 17 447 q 108 638 64 583 q 227 727 153 692 q 393 765 301 763 l 393 765 q 613 719 510 771 q 764 568 715 668 l 764 568 q 766 531 775 547 q 733 508 757 514 l 733 508 l 563 465 q 517 472 539 460 q 468 501 494 485 q 414 518 442 517 l 414 518 q 313 453 340 521 q 317 321 285 386 q 421 263 350 256 l 421 263 q 462 275 442 264 q 494 298 482 286 q 525 317 507 310 q 563 318 543 324 l 563 318 z m 351 810 l 351 810 l 268 990 q 276 1008 263 1004 l 276 1008 l 363 1031 q 381 1024 375 1035 l 381 1024 l 439 904 l 499 1024 q 517 1031 504 1035 l 517 1031 l 604 1008 q 613 990 618 1004 l 613 990 l 526 806 q 506 793 521 793 l 506 793 l 375 793 q 351 810 360 793 z "},"Ď":{"ha":924,"x_min":36,"x_max":907,"o":"m 849 746 l 849 746 q 903 477 906 622 q 850 214 901 332 l 850 214 q 794 121 828 164 q 719 49 761 78 q 632 6 678 19 q 538 6 586 -7 q 447 53 490 18 q 361 162 403 89 q 289 338 319 235 l 289 338 q 272 358 283 354 q 252 353 260 363 q 251 325 244 343 l 251 325 q 306 215 253 324 q 376 53 358 106 l 376 53 q 374 17 383 31 q 340 3 364 3 l 340 3 l 92 3 q 53 18 68 3 q 39 57 38 33 l 39 57 q 65 919 64 408 l 65 919 q 72 947 65 936 q 91 965 79 958 q 118 972 103 971 l 118 972 q 205 978 174 976 q 294 981 236 979 q 390 980 353 982 q 480 972 426 978 q 571 954 533 965 q 653 925 608 943 q 731 883 699 907 q 795 824 764 858 q 849 746 826 789 z m 618 471 l 618 471 q 544 642 626 592 q 328 661 461 692 l 328 661 l 336 454 q 354 376 339 410 q 394 324 369 342 q 447 300 418 307 q 504 303 475 293 q 558 333 533 313 q 599 389 582 353 q 618 471 615 425 z m 299 1047 l 299 1047 l 215 1228 q 222 1246 208 1242 l 222 1246 l 308 1268 q 326 1261 321 1272 l 326 1261 l 385 1142 l 444 1261 q 464 1268 451 1272 l 464 1268 l 550 1246 q 558 1228 564 1242 l 558 1228 l 472 1044 q 451 1031 467 1031 l 451 1031 l 322 1031 q 299 1047 307 1031 z "},"Ě":{"ha":850,"x_min":50,"x_max":817,"o":"m 763 685 l 376 686 q 358 679 365 686 q 350 660 350 672 l 350 660 l 350 589 q 358 569 350 576 q 376 563 365 563 l 376 563 l 682 563 q 720 548 706 563 q 735 510 735 533 l 735 510 l 735 463 q 720 424 735 439 q 682 410 706 410 l 682 410 l 376 410 q 358 403 365 410 q 350 383 350 396 l 350 383 l 350 311 q 358 292 350 299 q 376 285 365 285 l 376 285 l 763 285 q 801 270 786 285 q 815 232 815 256 l 815 232 l 815 53 q 801 15 815 29 q 763 0 786 0 l 763 0 l 103 0 q 65 15 79 0 q 50 53 50 29 l 50 53 l 58 917 q 73 955 58 940 q 111 969 88 969 l 111 969 l 351 969 q 388 955 378 969 q 388 921 399 940 l 388 921 q 328 824 369 890 q 258 708 288 758 q 224 649 228 658 l 224 649 q 222 618 217 629 q 240 611 226 607 q 260 635 253 615 l 260 635 q 293 698 269 658 q 344 778 317 738 q 397 858 371 819 q 439 919 422 896 l 439 919 l 456 943 q 514 969 478 969 l 514 969 l 763 969 q 801 955 786 969 q 815 917 815 940 l 815 917 l 815 738 q 801 699 815 714 q 763 685 786 685 l 763 685 z m 326 1047 l 326 1047 l 243 1228 q 251 1246 238 1242 l 251 1246 l 338 1268 q 356 1261 350 1272 l 356 1261 l 414 1142 l 474 1261 q 492 1268 479 1272 l 492 1268 l 579 1246 q 588 1228 593 1242 l 588 1228 l 501 1044 q 481 1031 496 1031 l 481 1031 l 350 1031 q 326 1047 335 1031 z "},"ě":{"ha":815,"x_min":17,"x_max":803,"o":"m 799 450 l 799 450 q 788 412 801 426 q 749 397 774 397 l 749 397 l 301 397 q 319 312 300 347 q 366 263 338 276 q 426 253 394 250 q 481 275 457 256 l 481 275 q 563 306 526 315 l 563 306 l 735 264 q 767 240 758 257 q 765 201 776 222 l 765 201 q 619 51 718 103 q 404 0 519 -1 l 404 0 q 236 34 311 1 q 115 119 161 67 q 44 240 69 172 q 17 379 18 308 q 41 518 17 450 q 111 640 65 586 q 231 728 157 694 q 399 765 306 763 l 399 765 q 580 735 494 768 q 726 628 665 703 q 799 450 788 554 z m 314 461 l 314 461 l 507 461 q 449 513 488 499 q 371 513 410 526 q 314 461 332 499 z m 322 806 l 322 806 l 239 986 q 246 1004 232 1000 l 246 1004 l 332 1026 q 351 1019 344 1031 l 351 1019 l 408 900 l 468 1019 q 488 1026 475 1031 l 488 1026 l 574 1004 q 582 986 588 1000 l 582 986 l 496 803 q 475 789 490 789 l 475 789 l 346 789 q 322 806 331 789 z "},"ı":{"ha":383,"x_min":44,"x_max":344,"o":"m 332 681 l 332 681 q 331 487 332 632 q 333 244 331 342 q 342 53 335 146 l 342 53 q 328 15 344 29 q 286 0 313 0 l 286 0 l 101 0 q 60 15 76 0 q 46 53 44 29 l 46 53 q 48 367 49 147 q 51 681 47 586 l 51 681 q 67 718 53 704 q 108 733 82 732 l 108 733 q 275 733 190 736 l 275 733 q 316 718 300 732 q 332 681 332 704 z "},"Ł":{"ha":797,"x_min":-7,"x_max":799,"o":"m 429 303 l 746 303 q 784 288 769 303 q 799 250 799 274 l 799 250 l 799 58 q 784 20 799 35 q 746 6 769 6 l 746 6 l 181 6 q 142 20 157 6 q 128 58 126 35 l 128 58 q 135 226 131 117 q 140 367 139 336 l 140 367 l 74 343 q 32 361 43 332 l 32 361 l -1 454 q -1 478 -7 467 q 18 494 4 490 l 18 494 l 146 543 q 154 922 153 760 l 154 922 q 169 960 154 946 q 207 975 183 975 l 207 975 l 375 975 q 413 960 399 975 q 428 922 428 946 l 428 922 l 429 650 l 524 685 q 567 669 556 699 l 567 669 l 606 565 q 583 524 617 536 l 583 524 l 429 469 l 429 303 z "},"ł":{"ha":608,"x_min":-4,"x_max":619,"o":"m 569 649 l 608 544 q 586 504 619 517 l 586 504 l 447 454 q 458 54 449 175 l 458 54 q 444 16 461 31 q 403 1 428 1 l 403 1 l 218 1 q 177 16 193 1 q 163 54 161 31 l 163 54 q 164 354 164 143 l 164 354 l 76 322 q 35 342 46 313 l 35 342 l 1 433 q 1 458 -4 447 q 21 475 7 469 l 21 475 l 164 529 q 168 919 164 808 l 168 919 q 175 947 168 935 q 194 965 182 958 q 225 972 207 971 l 225 972 q 392 972 306 975 l 392 972 q 432 957 417 971 q 447 919 447 943 l 447 919 q 447 635 449 886 l 447 635 l 526 665 q 569 649 558 678 l 569 649 z "},"Ń":{"ha":942,"x_min":39,"x_max":903,"o":"m 461 1006 l 361 1006 q 346 1022 342 1006 l 346 1022 l 397 1307 q 421 1325 403 1325 l 421 1325 l 581 1325 q 593 1320 589 1325 q 594 1307 597 1315 l 594 1307 l 483 1022 q 461 1006 476 1006 l 461 1006 z m 875 919 l 875 919 q 878 698 875 819 q 885 495 882 576 q 893 265 888 414 q 901 56 899 115 l 901 56 q 888 17 903 32 q 849 3 872 3 l 849 3 l 594 3 q 526 56 554 3 l 526 56 q 329 463 386 338 l 329 463 l 331 56 q 316 17 331 32 q 276 3 301 3 l 276 3 l 93 3 q 54 17 69 3 q 40 56 39 32 l 40 56 q 49 265 43 117 q 57 494 54 413 q 63 698 60 576 q 67 919 67 819 l 67 919 q 81 958 67 943 q 119 972 96 972 l 119 972 l 396 972 q 438 958 419 972 q 464 919 457 943 l 464 919 q 519 727 496 799 q 553 626 542 656 q 597 526 565 597 q 656 396 629 456 l 656 396 q 681 374 661 372 q 697 400 701 376 l 697 400 q 693 408 696 404 l 693 408 q 653 497 675 450 q 624 558 632 544 q 605 606 617 571 q 590 653 593 642 q 579 714 588 665 q 567 797 571 763 q 553 919 564 832 l 553 919 q 566 958 550 943 q 607 972 582 972 l 607 972 l 822 972 q 860 958 846 972 q 875 919 875 943 z "},"ń":{"ha":836,"x_min":46,"x_max":801,"o":"m 447 779 l 346 779 q 332 794 326 779 l 332 794 l 383 1081 q 406 1099 388 1099 l 406 1099 l 565 1099 q 578 1094 574 1099 q 581 1081 583 1089 l 581 1081 l 469 794 q 447 779 463 779 l 447 779 z m 792 413 l 792 413 q 801 53 801 326 l 801 53 q 775 15 801 31 q 722 0 749 0 l 722 0 l 564 0 q 524 14 539 0 q 511 53 508 28 l 511 53 q 511 221 511 53 l 511 221 q 421 535 499 533 l 421 535 q 338 53 318 533 l 338 53 q 334 32 338 42 q 323 15 331 22 q 306 4 315 8 q 283 0 296 0 l 283 0 l 100 0 q 61 15 76 0 q 47 53 46 29 l 47 53 l 50 682 q 65 720 50 706 q 103 735 79 735 l 103 735 l 331 735 q 347 716 346 735 q 339 675 349 697 l 339 675 q 307 609 324 642 q 278 553 290 576 q 255 510 265 529 q 239 482 244 492 l 239 482 l 233 472 q 231 432 213 443 l 231 432 q 257 447 244 422 l 257 447 q 258 453 258 450 l 258 453 q 342 610 292 544 q 448 705 393 675 q 560 732 503 735 q 664 695 617 729 q 746 588 711 661 q 792 413 781 515 z "},"Ň":{"ha":942,"x_min":39,"x_max":903,"o":"m 346 1038 l 346 1038 l 263 1218 q 271 1236 257 1232 l 271 1236 l 357 1258 q 375 1251 369 1263 l 375 1251 l 433 1132 l 493 1251 q 511 1258 499 1264 l 511 1258 l 599 1236 q 607 1218 613 1232 l 607 1218 l 521 1035 q 500 1021 515 1021 l 500 1021 l 369 1021 q 346 1038 354 1021 z m 875 919 l 875 919 q 878 698 875 819 q 885 495 882 576 q 893 265 888 414 q 901 56 899 115 l 901 56 q 888 17 903 32 q 849 3 872 3 l 849 3 l 594 3 q 526 56 554 3 l 526 56 q 329 463 386 338 l 329 463 l 331 56 q 316 17 331 32 q 276 3 301 3 l 276 3 l 93 3 q 54 17 69 3 q 40 56 39 32 l 40 56 q 49 265 43 117 q 57 494 54 413 q 63 698 60 576 q 67 919 67 819 l 67 919 q 81 958 67 943 q 119 972 96 972 l 119 972 l 396 972 q 425 966 411 972 q 449 947 439 960 q 464 919 458 935 l 464 919 q 508 763 490 822 q 542 659 525 704 q 569 589 558 614 q 606 508 581 564 q 656 396 632 451 l 656 396 q 681 374 661 372 q 697 400 701 376 l 697 400 q 693 410 696 404 l 693 410 q 649 505 674 453 q 616 578 624 557 q 597 626 608 599 q 581 694 586 653 q 571 778 576 736 q 553 919 565 819 l 553 919 q 566 958 550 943 q 607 972 582 972 l 607 972 l 822 972 q 860 958 846 972 q 875 919 875 943 z "},"ň":{"ha":836,"x_min":46,"x_max":801,"o":"m 351 801 l 351 801 l 268 981 q 276 999 263 994 l 276 999 l 363 1022 q 381 1014 375 1025 l 381 1014 l 439 894 l 499 1014 q 517 1022 504 1026 l 517 1022 l 604 999 q 613 981 618 994 l 613 981 l 526 797 q 506 783 521 783 l 506 783 l 376 783 q 351 801 361 783 z m 792 413 l 792 413 q 801 53 801 326 l 801 53 q 775 15 801 31 q 722 0 749 0 l 722 0 l 564 0 q 524 14 539 0 q 511 53 508 28 l 511 53 q 511 221 511 53 l 511 221 q 421 535 499 533 l 421 535 q 338 53 318 533 l 338 53 q 331 26 338 38 q 312 7 324 14 q 283 0 300 0 l 283 0 l 100 0 q 61 15 76 0 q 47 53 46 29 l 47 53 l 50 682 q 65 720 50 706 q 103 735 79 735 l 103 735 l 331 735 q 347 716 346 735 q 339 675 349 697 l 339 675 q 307 609 324 642 q 278 553 290 576 q 255 510 265 529 q 239 482 244 492 l 239 482 l 233 472 q 231 432 213 443 l 231 432 q 257 447 244 422 l 257 447 q 258 453 258 450 l 258 453 q 342 610 292 544 q 448 705 393 675 q 560 732 503 735 q 664 695 617 729 q 746 588 711 661 q 792 413 781 515 z "},"Œ":{"ha":1499,"x_min":6,"x_max":1465,"o":"m 1413 678 l 1026 679 q 1007 672 1014 679 q 1000 653 1000 665 l 1000 653 l 1000 582 q 1007 563 1000 569 q 1026 556 1014 556 l 1026 556 l 1332 556 q 1370 541 1356 556 q 1385 501 1385 526 l 1385 501 l 1385 456 q 1370 417 1385 432 q 1332 403 1356 403 l 1332 403 l 1026 403 q 1007 396 1014 403 q 1000 376 1000 389 l 1000 376 l 1000 304 q 1007 285 1000 292 q 1026 278 1014 278 l 1026 278 l 1413 278 q 1451 263 1436 278 q 1465 224 1465 249 l 1465 224 l 1465 46 q 1451 8 1465 22 q 1413 -7 1436 -7 l 1413 -7 l 753 -7 q 716 6 731 -7 q 700 40 701 18 l 700 40 q 444 -33 592 -33 l 444 -33 q 231 24 324 -33 q 92 172 138 81 q 26 375 46 264 q 31 597 6 486 q 107 800 57 708 q 249 950 157 892 q 457 1008 342 1008 l 457 1008 q 708 924 600 1010 l 708 924 q 760 963 718 963 l 760 963 l 1001 963 q 1038 948 1028 963 q 1036 914 1049 933 l 1036 914 q 984 827 1019 885 q 918 720 949 769 q 878 651 888 671 l 878 651 q 889 604 883 628 l 889 604 q 910 628 901 608 l 910 628 q 974 741 925 664 q 1064 876 1022 818 l 1064 876 l 1106 936 q 1164 963 1126 963 l 1164 963 l 1413 963 q 1451 948 1436 963 q 1465 910 1465 933 l 1465 910 l 1465 731 q 1451 692 1465 707 q 1413 678 1436 678 l 1413 678 z m 457 235 l 457 235 q 520 280 494 232 q 553 397 546 328 q 555 537 560 467 q 525 657 550 607 q 463 710 500 707 l 463 710 q 400 665 425 713 q 368 547 375 617 q 367 408 361 478 q 397 288 372 338 q 457 235 421 238 z "},"œ":{"ha":1297,"x_min":17,"x_max":1285,"o":"m 1231 392 l 1231 392 l 783 392 q 794 309 779 343 q 834 260 808 275 q 894 248 860 246 q 963 269 929 250 l 963 269 q 974 276 967 272 q 984 283 981 281 q 994 288 988 285 q 1003 293 1000 292 q 1012 297 1007 294 q 1020 301 1017 300 q 1028 301 1024 301 q 1036 301 1032 301 q 1044 300 1040 301 l 1044 300 l 1217 258 q 1249 234 1240 251 q 1249 196 1258 217 l 1249 196 q 1151 78 1214 126 q 1014 9 1089 29 q 860 -6 939 -11 l 860 -6 q 638 75 726 4 l 638 75 q 406 -7 542 -4 l 406 -7 q 255 17 324 -8 q 142 85 186 42 q 65 187 97 129 q 26 308 33 244 q 23 435 18 371 q 58 558 28 500 q 131 660 88 615 q 242 733 174 706 q 392 760 310 760 l 392 760 q 642 679 542 763 l 642 679 q 875 760 738 754 l 875 760 q 1058 731 972 764 q 1207 624 1144 699 q 1281 444 1269 549 l 1281 444 q 1270 406 1285 421 q 1231 392 1256 392 z m 796 456 l 989 456 q 931 507 971 493 q 853 507 892 521 q 796 456 814 493 l 796 456 z m 396 260 l 396 260 q 450 298 431 260 q 469 381 469 336 q 448 464 468 426 q 394 501 428 501 l 394 501 q 346 476 365 501 q 322 415 326 451 q 323 344 318 379 q 347 283 328 308 q 396 260 367 258 z "},"Ś":{"ha":926,"x_min":26,"x_max":907,"o":"m 639 582 l 639 582 q 788 535 725 575 q 878 438 850 494 q 906 315 907 381 q 876 190 906 249 q 785 85 847 131 q 639 25 724 39 l 639 25 q 388 9 549 6 q 117 39 228 13 l 117 39 q 70 70 88 46 q 53 128 53 94 l 53 128 l 53 346 q 70 390 53 376 q 117 393 88 403 l 117 393 q 346 349 232 356 q 532 361 460 342 l 532 361 q 572 399 571 371 l 572 399 q 547 428 575 422 l 547 428 q 528 428 539 429 l 528 428 q 353 415 447 414 l 353 415 q 229 435 286 417 q 135 482 172 453 q 70 549 97 511 q 35 628 43 586 q 29 714 26 671 q 53 798 32 757 q 107 873 75 839 q 190 933 139 907 q 301 968 240 958 l 301 968 q 535 983 392 986 q 789 954 678 981 l 789 954 q 835 923 818 947 q 853 865 853 899 l 853 865 l 853 665 q 835 623 853 635 q 789 619 818 611 l 789 619 q 593 655 682 653 q 408 632 504 657 l 408 632 q 361 590 364 619 l 361 590 q 388 560 360 565 l 388 560 q 410 560 397 557 l 410 560 q 639 582 538 592 z m 489 1032 l 389 1032 q 374 1049 369 1032 l 374 1049 l 425 1335 q 449 1351 429 1351 l 449 1351 l 608 1351 q 621 1347 617 1351 q 622 1335 625 1342 l 622 1335 l 511 1049 q 489 1032 504 1032 l 489 1032 z "},"ś":{"ha":743,"x_min":25,"x_max":721,"o":"m 510 442 l 510 442 q 627 405 578 436 q 698 331 676 374 q 719 237 719 288 q 697 141 719 186 q 625 60 674 96 q 510 14 576 25 l 510 14 q 311 2 438 0 q 97 25 185 4 l 97 25 q 61 49 75 31 q 47 93 47 68 l 47 93 l 47 260 q 61 293 47 283 q 97 296 75 303 l 97 296 q 425 272 272 240 l 425 272 q 457 303 457 281 l 457 303 q 432 324 457 324 l 432 324 q 422 322 426 324 l 422 322 q 285 314 356 313 l 285 314 q 147 344 206 315 q 60 416 88 374 q 28 510 32 458 q 47 607 25 561 q 120 690 69 653 q 243 738 171 726 l 243 738 q 428 749 315 751 q 628 726 540 747 l 628 726 q 655 714 643 724 q 672 690 667 704 q 678 658 678 675 l 678 658 l 678 506 q 665 472 678 482 q 628 469 651 463 l 628 469 q 474 497 543 496 q 328 479 404 499 l 328 479 q 290 446 290 469 l 290 446 q 314 424 292 426 l 314 424 q 329 425 321 422 l 329 425 q 510 442 426 449 z m 403 786 l 301 786 q 288 801 283 786 l 288 801 l 339 1088 q 361 1104 343 1104 l 361 1104 l 521 1104 q 534 1099 529 1104 q 536 1088 539 1094 l 536 1088 l 425 801 q 403 786 418 786 l 403 786 z "},"Š":{"ha":926,"x_min":25,"x_max":907,"o":"m 396 1049 l 396 1049 l 310 1232 q 318 1250 304 1246 l 318 1250 l 404 1272 q 424 1265 417 1276 l 424 1265 l 483 1146 l 540 1265 q 560 1272 547 1276 l 560 1272 l 646 1250 q 653 1232 660 1246 l 653 1232 l 569 1051 q 546 1035 561 1035 l 546 1035 l 417 1035 q 396 1049 401 1035 z m 639 582 l 639 582 q 788 535 725 575 q 878 438 850 494 q 906 315 907 381 q 876 190 906 249 q 785 85 847 131 q 639 25 724 39 l 639 25 q 388 9 549 6 q 117 39 228 13 l 117 39 q 70 70 88 46 q 53 128 53 94 l 53 128 l 53 346 q 70 390 53 376 q 117 393 88 403 l 117 393 q 346 349 232 356 q 532 361 460 342 l 532 361 q 572 399 571 371 l 572 399 q 547 428 575 422 l 547 428 q 528 428 539 429 l 528 428 q 353 415 447 414 l 353 415 q 216 440 278 418 q 115 497 154 461 q 53 577 76 532 q 28 670 31 622 q 41 767 25 718 q 90 856 57 815 q 178 926 124 896 q 301 968 232 957 l 301 968 q 535 983 392 986 q 789 954 678 981 l 789 954 q 835 923 818 947 q 853 865 853 899 l 853 865 l 853 665 q 835 623 853 635 q 789 619 818 611 l 789 619 q 593 655 682 653 q 408 632 504 657 l 408 632 q 361 590 364 619 l 361 590 q 388 560 360 565 l 388 560 q 410 560 397 557 l 410 560 q 639 582 538 592 z "},"š":{"ha":743,"x_min":25,"x_max":721,"o":"m 510 442 l 510 442 q 627 405 578 436 q 698 331 676 374 q 719 237 719 288 q 697 141 719 186 q 625 60 674 96 q 510 14 576 25 l 510 14 q 311 2 438 0 q 97 25 185 4 l 97 25 q 72 39 83 29 q 53 63 60 49 q 47 93 47 76 l 47 93 l 47 260 q 61 293 47 283 q 97 296 75 303 l 97 296 q 425 272 272 240 l 425 272 q 457 303 457 281 l 457 303 q 432 324 457 324 l 432 324 q 422 322 426 324 l 422 322 q 285 314 356 313 l 285 314 q 147 344 206 315 q 60 416 88 374 q 28 510 32 458 q 47 607 25 561 q 120 690 69 653 q 243 738 171 726 l 243 738 q 427 749 314 751 q 628 726 540 747 l 628 726 q 655 714 643 724 q 672 690 667 704 q 678 658 678 675 l 678 658 l 678 506 q 665 472 678 482 q 628 469 651 463 l 628 469 q 474 497 543 496 q 328 479 404 499 l 328 479 q 290 446 290 469 l 290 446 q 314 424 292 426 l 314 424 q 329 425 321 422 l 329 425 q 510 442 426 449 z m 322 786 l 322 786 l 236 969 q 244 989 231 983 l 244 989 l 332 1011 q 350 1003 344 1015 l 350 1003 l 410 883 l 468 1003 q 486 1011 474 1014 l 486 1011 l 572 989 q 581 969 586 985 l 581 969 l 497 790 q 474 772 489 772 l 474 772 l 343 772 q 322 786 328 772 z "},"Ÿ":{"ha":1007,"x_min":-24,"x_max":1031,"o":"m 697 979 l 997 979 q 1025 965 1021 979 q 1013 926 1029 950 l 1013 926 q 686 460 858 700 l 686 460 l 697 63 q 682 20 699 31 q 636 10 665 10 l 636 10 l 357 10 q 306 63 306 10 l 306 63 l 300 460 l -6 926 q -18 965 -22 950 q 10 979 -14 979 l 10 979 l 322 979 q 356 974 339 979 q 390 956 374 968 q 414 926 406 943 l 414 926 q 476 790 443 869 l 476 790 q 490 752 489 760 q 482 710 492 744 l 482 710 q 462 663 475 689 q 438 617 449 636 q 425 594 426 597 l 425 594 q 430 570 417 575 q 451 579 443 565 l 451 579 l 606 926 q 631 957 615 944 q 664 974 647 969 q 697 979 681 979 l 697 979 z m 463 1060 q 390 1032 435 1032 q 316 1060 344 1032 q 288 1135 288 1089 l 288 1135 q 316 1210 288 1182 q 390 1239 344 1239 l 390 1239 q 443 1226 419 1239 q 479 1190 467 1214 q 492 1135 492 1167 l 492 1135 q 463 1060 492 1089 z m 691 1060 q 617 1032 663 1032 q 543 1060 571 1032 q 515 1135 515 1089 l 515 1135 q 543 1210 515 1182 q 617 1239 571 1239 l 617 1239 q 670 1226 647 1239 q 706 1190 693 1214 q 719 1135 719 1167 l 719 1135 q 691 1060 719 1089 z "},"Ź":{"ha":936,"x_min":7,"x_max":960,"o":"m 422 1047 l 422 1047 l 336 1231 q 344 1250 331 1244 l 344 1250 l 431 1272 q 450 1264 443 1276 l 450 1264 l 510 1144 l 567 1264 q 586 1272 574 1275 l 586 1272 l 672 1250 q 679 1231 686 1246 l 679 1231 l 596 1051 q 572 1033 588 1033 l 572 1033 l 443 1033 q 422 1047 428 1033 z m 649 344 l 871 343 q 907 329 894 343 q 918 290 919 315 l 918 290 l 904 65 q 889 26 904 42 q 851 11 874 11 l 851 11 l 67 10 q 22 16 38 10 q 8 42 7 22 q 31 93 8 61 l 31 93 l 399 667 l 83 668 q 48 683 61 668 q 38 721 35 697 l 38 721 l 50 928 q 54 946 51 938 q 61 960 57 954 q 72 972 65 967 q 86 978 78 976 q 103 981 94 981 l 103 981 l 839 983 q 896 874 958 981 l 896 874 q 762 659 838 779 q 609 417 686 539 q 476 203 532 294 l 476 203 q 479 169 461 175 l 479 169 q 508 188 494 165 l 508 188 q 538 242 522 213 q 565 290 553 271 l 565 290 q 583 316 574 306 q 599 332 592 326 q 616 340 607 338 q 632 344 625 343 q 649 344 639 344 l 649 344 z "},"ź":{"ha":765,"x_min":35,"x_max":728,"o":"m 439 783 l 339 783 q 325 800 319 783 l 325 800 l 376 1086 q 399 1103 381 1103 l 399 1103 l 558 1103 q 572 1098 567 1103 q 574 1086 576 1093 l 574 1086 l 463 800 q 439 783 456 783 l 439 783 z m 701 486 l 701 486 q 619 415 671 458 q 540 347 568 371 q 474 280 513 322 q 403 188 436 238 l 403 188 q 395 166 394 175 q 405 158 396 157 q 424 172 414 160 l 424 172 q 486 249 431 182 l 486 249 q 546 283 515 283 l 546 283 l 672 285 q 725 232 725 285 l 725 232 l 726 56 q 710 15 726 31 q 668 0 694 -1 l 668 0 l 83 0 q 48 14 61 0 q 35 50 35 28 l 35 50 l 36 183 q 79 261 36 229 l 79 261 l 346 456 l 94 458 q 53 475 68 460 q 36 515 38 490 l 36 515 l 36 679 q 53 719 38 704 q 94 735 68 735 l 94 735 l 668 735 q 710 719 694 735 q 726 679 726 703 l 726 679 l 726 543 q 701 486 726 508 z "},"ž":{"ha":765,"x_min":35,"x_max":728,"o":"m 701 486 l 701 486 q 619 415 671 458 q 540 347 568 371 q 474 280 513 322 q 403 188 436 238 l 403 188 q 395 166 394 175 q 405 158 396 157 q 424 172 414 160 l 424 172 q 486 249 431 182 l 486 249 q 546 283 515 283 l 546 283 l 672 285 q 725 232 725 285 l 725 232 l 726 56 q 710 15 726 31 q 668 0 694 -1 l 668 0 l 83 0 q 48 14 61 0 q 35 50 35 28 l 35 50 l 36 183 q 79 261 36 229 l 79 261 l 346 456 l 94 458 q 53 475 68 460 q 36 515 38 490 l 36 515 l 36 679 q 53 719 38 704 q 94 735 68 735 l 94 735 l 668 735 q 710 719 694 735 q 726 679 726 703 l 726 679 l 726 543 q 701 486 726 508 z m 324 785 l 324 785 l 238 968 q 244 986 231 982 l 244 986 l 332 1010 q 351 1001 344 1014 l 351 1001 l 410 882 l 468 1001 q 488 1010 475 1013 l 488 1010 l 574 986 q 581 968 588 982 l 581 968 l 497 789 q 474 771 489 771 l 474 771 l 344 771 q 324 785 329 771 z "},"μ":{"ha":842,"x_min":43,"x_max":836,"o":"m 794 299 l 796 299 q 824 288 814 299 q 835 258 835 276 l 835 258 l 835 182 q 824 153 835 164 q 796 143 814 143 l 796 143 l 757 143 q 619 190 674 143 l 619 190 q 463 135 551 129 q 332 217 375 142 l 332 217 l 333 61 q 319 22 333 36 q 279 7 304 7 l 279 7 l 96 7 q 58 22 72 7 q 43 61 43 36 l 43 61 l 57 822 q 71 860 57 846 q 110 875 85 875 l 110 875 l 282 875 q 321 860 307 875 q 335 822 335 846 l 335 822 l 335 504 q 351 424 335 453 q 388 394 368 394 q 423 424 407 394 q 439 504 439 453 l 439 504 l 439 822 q 453 860 439 846 q 492 875 468 875 l 492 875 l 657 875 q 713 822 713 875 l 713 822 q 714 414 713 536 l 714 414 l 714 381 q 736 321 714 343 q 794 299 758 299 l 794 299 z "},"†":{"ha":640,"x_min":28,"x_max":614,"o":"m 457 800 l 561 801 q 599 792 585 801 q 614 768 614 783 l 614 768 l 614 669 q 599 646 614 656 q 561 639 583 636 l 561 639 l 457 639 l 458 63 q 444 24 458 39 q 406 10 429 10 l 406 10 l 222 10 q 183 24 199 10 q 169 63 167 39 l 169 63 l 178 639 l 81 639 q 53 642 65 639 q 34 653 40 646 q 28 669 28 661 l 28 669 l 28 767 q 42 790 28 781 q 81 799 57 799 l 81 799 l 181 799 l 182 926 q 197 965 182 950 q 236 979 211 979 l 236 979 l 403 979 q 442 965 428 979 q 457 926 457 950 l 457 926 l 457 800 z "},"‰":{"ha":1621,"x_min":21,"x_max":1593,"o":"m 571 979 l 764 979 q 787 974 776 979 q 802 962 797 969 q 807 943 807 954 l 807 943 l 610 46 q 598 22 610 32 q 567 13 586 13 l 567 13 l 415 13 q 381 22 394 13 q 371 46 368 32 l 371 46 l 526 943 q 571 979 533 979 l 571 979 z m 233 979 l 233 979 q 335 954 290 979 q 403 890 381 929 q 437 803 426 851 q 436 708 447 756 q 402 622 425 661 q 335 558 379 582 q 235 533 290 533 l 235 533 q 133 558 178 533 q 65 622 88 582 q 31 708 42 661 q 32 803 21 756 q 66 890 43 851 q 133 954 89 929 q 233 979 178 979 z m 229 672 l 229 672 q 272 690 254 672 q 294 731 289 707 q 295 781 299 756 q 274 823 292 806 q 231 840 257 840 l 231 840 q 200 831 214 840 q 179 806 186 821 q 169 774 172 792 q 170 738 167 756 q 181 705 174 719 q 200 681 188 690 q 229 672 213 672 z m 1385 457 l 1385 457 q 1467 442 1429 457 q 1528 400 1504 426 q 1568 340 1551 374 q 1588 270 1585 307 q 1588 197 1592 233 q 1567 126 1585 160 q 1526 67 1550 93 q 1466 26 1503 42 q 1385 11 1429 11 l 1385 11 q 1303 26 1340 11 q 1242 67 1265 42 q 1201 126 1218 93 q 1181 197 1185 160 q 1181 270 1178 233 q 1202 340 1185 307 q 1243 400 1219 374 q 1303 442 1267 426 q 1385 457 1340 457 z m 1381 150 l 1381 150 q 1422 167 1404 150 q 1444 209 1439 185 q 1445 258 1449 233 q 1424 301 1442 283 q 1382 318 1407 318 l 1382 318 q 1341 301 1357 318 q 1322 258 1325 283 q 1322 209 1318 233 q 1342 167 1326 185 q 1381 150 1357 150 z m 928 457 l 928 457 q 1010 442 972 457 q 1072 400 1047 426 q 1113 340 1096 374 q 1133 270 1129 307 q 1132 197 1136 233 q 1111 126 1128 160 q 1070 67 1094 93 q 1009 26 1046 42 q 929 11 972 11 l 929 11 q 847 26 885 11 q 785 67 810 42 q 744 126 761 93 q 724 197 728 160 q 725 270 721 233 q 746 340 729 307 q 786 400 763 374 q 847 442 810 426 q 928 457 885 457 z m 924 150 l 924 150 q 966 167 949 150 q 988 209 983 185 q 989 258 992 233 q 969 301 986 283 q 925 318 951 318 l 925 318 q 885 301 901 318 q 865 258 868 283 q 865 209 861 233 q 885 167 869 185 q 924 150 901 150 z "},"‹":{"ha":364,"x_min":36,"x_max":322,"o":"m 306 517 l 151 418 q 142 412 142 413 q 151 404 142 411 l 151 404 l 306 307 q 322 281 322 300 l 322 281 l 322 176 q 317 160 322 165 q 306 160 313 156 l 306 160 l 51 328 q 36 353 36 339 l 36 353 l 36 471 q 51 496 36 485 l 51 496 l 306 664 q 317 663 313 668 q 322 649 322 658 l 322 649 l 322 543 q 306 517 322 524 l 306 517 z "},"›":{"ha":364,"x_min":42,"x_max":328,"o":"m 57 664 l 311 496 q 328 471 328 485 l 328 471 l 328 353 q 311 328 328 339 l 311 328 l 57 160 q 47 160 51 156 q 42 176 42 165 l 42 176 l 42 281 q 57 307 42 300 l 57 307 l 213 404 q 221 412 221 411 q 213 418 221 413 l 213 418 l 57 517 q 42 543 42 524 l 42 543 l 42 649 q 47 663 42 658 q 57 664 51 668 l 57 664 z "},"€":{"ha":1047,"x_min":31,"x_max":1004,"o":"m 717 568 l 717 568 q 698 664 717 624 q 649 719 679 704 q 587 734 619 735 q 523 710 554 733 q 472 646 492 686 l 472 646 l 608 646 q 643 624 643 646 l 643 624 l 643 543 q 608 518 643 518 l 608 518 q 449 519 526 518 l 449 519 q 449 493 449 506 l 449 493 l 607 493 q 642 471 642 493 l 642 471 l 642 390 q 607 367 642 367 l 607 367 q 475 367 542 367 l 475 367 q 599 276 514 285 q 807 340 683 267 l 807 340 q 848 350 828 353 q 878 328 868 347 l 878 328 l 974 158 q 963 83 1000 113 l 963 83 q 767 -13 871 15 q 566 -26 663 -42 q 387 36 469 -11 q 246 168 304 83 q 167 360 188 253 l 167 360 q 165 371 165 365 l 165 371 q 65 374 113 372 l 65 374 q 54 374 60 374 q 44 377 49 375 q 38 382 40 379 q 33 388 35 385 q 32 396 32 392 l 32 396 l 32 469 q 41 485 32 479 q 65 492 50 492 l 65 492 l 154 493 q 154 524 154 507 l 154 524 q 67 525 106 524 l 67 525 q 55 526 60 525 q 46 530 50 528 q 39 535 42 532 q 35 541 36 538 q 33 547 33 544 l 33 547 l 33 622 q 42 638 33 632 q 67 644 51 644 l 67 644 l 169 644 q 263 838 199 754 q 409 964 328 921 q 581 1017 490 1007 q 753 1000 672 1026 q 898 905 833 974 q 989 735 963 836 l 989 735 q 1004 568 1004 681 l 1004 568 q 989 531 1004 544 q 950 517 974 517 l 950 517 l 769 517 q 742 522 754 517 q 724 540 731 528 q 717 568 717 551 z "},"™":{"ha":593,"x_min":31,"x_max":558,"o":"m 44 981 l 222 981 q 235 967 235 981 l 235 967 l 235 914 q 222 903 235 903 l 222 903 q 165 904 208 903 l 165 904 l 172 758 q 158 744 172 744 l 158 744 l 99 744 q 82 758 82 744 l 82 758 q 90 904 90 903 l 90 904 q 44 903 57 903 q 31 914 31 903 l 31 914 l 31 967 q 44 981 31 981 l 44 981 z m 551 967 l 551 967 q 558 758 551 932 l 558 758 q 544 744 558 744 l 544 744 l 501 744 q 488 758 488 744 l 488 758 l 488 857 q 439 758 467 811 l 439 758 q 424 744 432 744 l 424 744 l 390 744 q 375 758 381 744 l 375 758 q 325 856 374 760 l 325 856 l 326 758 q 314 744 326 744 l 314 744 l 268 744 q 256 758 256 744 l 256 758 q 263 967 263 929 l 263 967 q 275 981 263 981 l 275 981 l 343 981 q 358 967 354 981 l 358 967 l 407 829 l 456 967 q 471 981 460 981 l 471 981 l 539 981 q 551 967 551 981 z "},"":{"ha":1272,"x_min":-7,"x_max":1271,"o":"m 1244 708 l 1244 708 q 1264 682 1257 700 q 1267 647 1271 664 l 1267 647 l 1213 435 q 1185 397 1203 397 q 1128 417 1168 396 l 1128 417 q 1062 443 1089 435 q 1004 451 1035 451 q 956 435 974 451 q 926 378 938 418 q 914 274 914 339 l 914 274 l 914 57 q 899 19 914 33 q 861 4 885 4 l 861 4 l 664 4 q 626 19 640 4 q 611 57 611 33 l 611 57 q 610 568 608 171 l 610 568 l 450 568 q 433 549 433 568 l 433 549 l 460 53 q 446 15 461 29 q 407 0 431 0 l 407 0 l 171 0 q 131 15 146 0 q 117 53 117 29 l 117 53 l 113 549 q 107 563 113 557 q 93 568 101 568 l 93 568 l 22 568 q 9 573 14 568 q 4 586 4 578 l 4 586 l 4 614 q 9 627 4 622 q 22 632 14 632 l 22 632 l 126 632 q 48 681 79 649 q 5 750 17 713 q 2 826 -7 788 q 38 897 11 865 q 117 949 65 929 q 236 969 168 969 l 236 969 l 928 969 q 966 955 951 969 q 981 917 981 940 l 981 917 l 981 714 q 978 696 981 703 l 978 696 q 975 688 976 690 l 975 688 q 917 528 943 593 q 882 439 890 463 l 882 439 q 882 414 872 414 l 882 414 q 907 446 889 414 l 907 446 q 919 471 911 454 l 919 471 q 980 582 961 549 q 1028 660 999 615 q 1076 718 1058 706 q 1123 741 1094 731 q 1179 742 1151 751 q 1244 708 1207 732 z m 433 632 l 610 632 q 610 678 610 665 l 610 678 l 421 679 q 370 698 394 679 q 331 744 346 717 q 310 790 317 771 q 300 819 303 808 l 300 819 q 276 842 294 844 l 276 842 q 268 807 258 835 l 268 807 q 283 772 272 794 q 316 715 294 750 q 369 656 338 681 q 433 632 400 632 l 433 632 z "},"":{"ha":1315,"x_min":-7,"x_max":1308,"o":"m 1304 240 l 1304 240 q 1304 64 1308 150 l 1304 64 q 1290 22 1304 38 q 1251 7 1275 7 l 1251 7 q 1158 6 1229 6 q 981 6 1088 6 q 826 7 874 7 l 826 7 q 753 26 767 7 q 739 117 739 44 l 739 117 q 742 350 738 189 q 746 568 746 511 l 746 568 l 450 568 q 433 549 433 568 l 433 549 l 460 53 q 454 25 461 38 q 435 6 447 13 q 407 0 422 0 l 407 0 l 171 0 q 131 15 146 0 q 117 53 117 29 l 117 53 l 113 549 q 107 563 113 557 q 93 568 101 568 l 93 568 l 22 568 q 9 573 14 568 q 4 586 4 578 l 4 586 l 4 614 q 9 627 4 622 q 22 632 14 632 l 22 632 l 126 632 q 48 681 79 649 q 5 750 17 713 q 2 826 -7 788 q 38 897 11 865 q 117 949 65 929 q 236 969 168 969 l 236 969 l 653 969 q 691 955 676 969 q 706 917 706 940 l 706 917 l 706 822 l 747 822 q 748 861 747 836 q 749 899 749 886 l 749 899 q 765 936 749 922 q 806 951 781 950 l 806 951 q 972 951 892 954 l 972 951 q 1003 944 990 950 q 1022 926 1015 938 q 1029 899 1029 914 l 1029 899 q 1032 822 1032 851 l 1032 822 l 1119 822 q 1135 808 1135 822 l 1135 808 l 1135 772 q 1121 758 1135 758 l 1121 758 l 1032 758 q 1033 349 1033 635 l 1033 349 q 1048 311 1033 325 q 1086 297 1063 297 l 1086 297 l 1251 297 q 1279 290 1268 297 q 1297 271 1290 283 q 1304 240 1304 258 z m 890 735 l 890 735 q 907 747 908 735 l 907 747 q 886 758 907 758 l 886 758 l 706 758 l 706 735 q 639 678 706 678 l 639 678 l 421 679 q 378 692 399 679 q 345 724 358 706 q 322 763 332 742 q 306 799 311 785 q 300 819 301 813 l 300 819 q 276 842 294 844 l 276 842 q 268 807 258 835 l 268 807 q 276 788 271 800 q 292 755 281 776 q 317 713 303 733 q 349 674 332 693 q 389 644 367 656 q 433 632 411 632 l 433 632 l 747 632 q 790 712 753 689 q 890 735 826 735 z "},"":{"ha":1411,"x_min":-7,"x_max":1367,"o":"m 1358 692 l 1358 692 q 1362 399 1358 642 q 1365 57 1365 156 l 1365 57 q 1351 19 1365 33 q 1313 4 1336 4 l 1313 4 l 1040 4 q 1010 16 1017 4 q 1017 49 1004 28 l 1017 49 q 1065 132 1036 81 q 1111 218 1093 183 l 1111 218 l 1129 254 q 1140 293 1150 285 l 1140 293 q 1113 272 1131 300 l 1113 272 q 984 97 1047 163 q 871 15 921 31 q 783 22 821 -1 q 725 114 744 46 q 706 283 706 182 l 706 283 q 707 678 707 408 l 707 678 l 421 679 q 378 692 399 679 q 345 724 358 706 q 322 763 332 742 q 306 799 311 785 q 300 819 301 813 l 300 819 q 276 842 294 844 l 276 842 q 268 807 258 835 l 268 807 q 283 772 272 794 q 316 715 294 750 q 369 656 338 681 q 433 632 400 632 l 433 632 l 615 632 q 629 627 624 632 q 635 614 635 622 l 635 614 l 635 586 q 629 573 635 578 q 615 568 624 568 l 615 568 l 450 568 q 433 549 433 568 l 433 549 l 460 53 q 446 15 461 29 q 407 0 431 0 l 407 0 l 171 0 q 131 15 146 0 q 117 53 117 29 l 117 53 l 113 549 q 107 563 113 557 q 93 568 101 568 l 93 568 l 22 568 q 9 573 14 568 q 4 586 4 578 l 4 586 l 4 614 q 9 627 4 622 q 22 632 14 632 l 22 632 l 126 632 q 48 681 79 649 q 5 750 17 713 q 2 826 -7 788 q 38 897 11 865 q 117 949 65 929 q 236 969 168 969 l 236 969 l 928 969 q 966 955 951 969 q 981 917 981 940 l 981 917 l 981 763 q 981 760 981 761 q 981 760 981 760 l 981 760 l 981 375 q 997 294 981 324 q 1032 265 1013 265 q 1068 294 1051 265 q 1085 375 1085 324 l 1085 375 l 1085 692 q 1099 731 1085 717 q 1138 744 1113 744 l 1138 744 l 1303 744 q 1342 730 1326 744 q 1358 692 1358 715 z "},"":{"ha":1496,"x_min":-7,"x_max":1447,"o":"m 1208 744 l 1392 744 q 1431 730 1417 744 q 1444 692 1446 715 l 1444 692 l 1444 60 q 1413 -99 1444 -28 q 1328 -214 1382 -169 q 1206 -289 1274 -258 q 1064 -331 1139 -319 q 919 -341 989 -342 q 785 -328 849 -340 l 785 -328 q 745 -315 758 -322 q 732 -292 732 -307 l 732 -292 l 732 -68 q 749 -37 732 -50 q 785 -32 765 -24 l 785 -32 q 907 -60 842 -57 q 1033 -47 972 -64 q 1145 2 1094 -31 q 1227 86 1196 35 q 1258 200 1258 138 l 1258 200 q 1250 219 1258 214 q 1233 219 1242 225 q 1224 201 1224 214 l 1224 201 q 1125 31 1224 85 l 1125 31 q 914 17 1028 -24 l 914 17 q 728 213 783 64 l 728 213 q 700 332 707 267 l 700 332 q 692 679 692 418 l 692 679 l 692 681 l 421 682 q 385 691 403 682 q 356 715 368 700 q 333 745 343 729 q 315 778 322 761 q 305 806 308 796 q 300 822 301 817 l 300 822 q 276 844 294 847 l 276 844 q 268 810 258 838 l 268 810 q 283 774 272 796 q 316 718 294 753 q 369 659 338 683 q 433 635 400 635 l 433 635 l 615 635 q 629 630 624 635 q 635 617 635 625 l 635 617 l 635 589 q 629 576 635 581 q 615 571 624 571 l 615 571 l 450 571 q 433 551 433 571 l 433 551 l 460 56 q 446 17 461 32 q 407 3 431 3 l 407 3 l 171 3 q 131 17 146 3 q 117 56 117 32 l 117 56 l 113 551 q 107 565 113 560 q 93 571 101 571 l 93 571 l 22 571 q 9 576 14 571 q 4 589 4 581 l 4 589 l 4 617 q 9 630 4 625 q 22 635 14 635 l 22 635 l 126 635 q 48 683 79 651 q 5 753 17 715 q 2 829 -7 790 q 38 900 11 868 q 117 952 65 932 q 236 972 168 972 l 236 972 l 928 972 q 966 958 951 972 q 981 919 981 943 l 981 919 l 981 693 q 981 692 981 693 q 981 692 981 692 l 981 692 q 982 524 981 692 l 982 524 q 1072 210 993 210 l 1072 210 q 1092 214 1083 210 q 1109 231 1100 218 q 1125 265 1118 243 q 1138 322 1132 286 q 1147 408 1143 358 q 1153 530 1151 458 q 1156 692 1156 601 l 1156 692 q 1170 730 1156 715 q 1208 744 1185 744 l 1208 744 z "},"":{"ha":1594,"x_min":46,"x_max":1557,"o":"m 896 738 l 896 738 q 994 752 944 747 q 1101 758 1044 757 q 1212 752 1158 760 q 1317 731 1265 744 q 1411 690 1368 717 q 1487 626 1454 663 q 1538 535 1519 589 q 1556 415 1556 482 l 1556 415 l 1556 57 q 1541 19 1556 33 q 1503 4 1526 4 l 1503 4 l 1288 4 q 1256 17 1264 4 q 1260 50 1249 29 l 1260 50 l 1343 204 q 1351 243 1364 235 l 1351 243 q 1326 221 1340 251 l 1326 221 q 1173 42 1272 97 q 972 4 1074 -12 l 972 4 l 481 4 q 472 4 479 4 q 463 4 465 4 q 456 5 461 4 q 447 7 450 6 q 440 10 444 8 q 432 15 435 13 q 424 23 429 18 q 415 34 419 28 q 406 49 411 40 l 406 49 q 308 265 358 128 l 308 265 q 281 286 299 289 l 281 286 q 271 251 260 279 l 271 251 q 299 192 283 225 q 322 143 315 158 q 340 101 329 128 q 363 38 350 74 l 363 38 q 360 14 367 24 q 338 4 353 4 l 338 4 l 103 4 q 62 19 78 4 q 47 57 46 33 l 47 57 q 49 489 50 151 q 53 921 49 826 l 53 921 q 69 959 54 944 q 110 974 83 974 l 110 974 l 276 974 q 306 967 293 974 q 326 948 319 960 q 333 921 333 936 l 333 921 q 326 742 333 879 q 318 522 318 604 l 318 522 q 419 577 383 536 q 464 699 454 618 l 464 699 q 506 739 468 739 l 506 739 l 726 739 q 756 728 744 739 q 767 699 768 717 l 767 699 q 732 497 763 571 q 639 381 701 422 q 461 314 576 340 l 461 314 q 437 306 436 308 q 463 304 438 304 l 463 304 q 779 306 514 304 l 779 306 q 874 448 800 393 q 1079 504 947 503 l 1079 504 q 1274 456 1196 504 l 1274 456 q 1192 525 1268 504 l 1192 525 q 1086 540 1135 540 q 996 528 1038 540 q 896 492 954 517 l 896 492 q 859 497 875 483 q 843 528 843 510 l 843 528 l 843 700 q 856 723 843 715 q 896 738 869 731 z m 1083 181 l 1083 181 q 1135 217 1121 181 q 1134 288 1150 253 q 1082 324 1118 324 l 1082 324 q 1024 288 1040 324 q 1026 215 1008 251 q 1083 181 1043 179 z "},"":{"ha":1535,"x_min":46,"x_max":1522,"o":"m 1519 451 l 1519 451 q 1519 429 1522 439 q 1509 413 1515 419 q 1492 401 1503 406 q 1469 397 1482 397 l 1469 397 l 1022 397 q 1044 329 1025 360 q 1091 284 1064 299 q 1149 269 1118 269 q 1201 289 1179 269 l 1201 289 q 1283 319 1247 329 l 1283 319 l 1456 278 q 1488 254 1479 272 q 1488 215 1497 236 l 1488 215 q 1327 51 1436 110 q 1099 1 1218 -7 l 1099 1 q 1042 8 1072 3 l 1042 8 l 481 8 q 472 8 479 8 q 463 8 465 8 q 456 9 461 8 q 447 11 450 10 q 440 15 444 13 q 432 19 435 17 q 424 27 429 22 q 415 38 419 32 q 406 53 411 44 l 406 53 q 308 269 358 132 l 308 269 q 281 290 299 293 l 281 290 q 271 256 260 283 l 271 256 q 299 196 283 229 q 322 147 315 163 q 340 105 329 132 q 363 42 350 78 l 363 42 q 360 18 367 28 q 338 8 353 8 l 338 8 l 103 8 q 62 23 78 8 q 47 61 46 38 l 47 61 q 49 493 50 156 q 53 925 49 831 l 53 925 q 69 963 54 949 q 110 978 83 978 l 110 978 l 276 978 q 306 971 293 978 q 326 952 319 964 q 333 925 333 940 l 333 925 q 326 746 333 883 q 318 526 318 608 l 318 526 q 419 581 383 540 q 464 703 454 622 l 464 703 q 506 743 468 743 l 506 743 l 726 743 q 756 732 744 743 q 767 703 768 721 l 767 703 q 732 501 763 575 q 639 385 701 426 q 461 318 576 344 l 461 318 q 436 310 436 313 q 463 308 436 308 l 463 308 q 746 310 507 308 l 746 310 q 748 467 731 389 q 809 611 765 546 q 933 719 853 676 q 1114 767 1013 763 l 1114 767 q 1297 738 1211 771 q 1446 631 1383 706 q 1519 451 1508 556 z m 1035 463 l 1035 463 l 1228 463 q 1170 513 1210 499 q 1092 514 1131 528 q 1035 463 1053 500 z "},"":{"ha":1142,"x_min":46,"x_max":1103,"o":"m 1090 586 l 1090 586 q 1091 447 1092 529 q 1090 316 1090 364 q 1093 197 1090 268 q 1101 53 1096 125 l 1101 53 q 1096 26 1103 38 q 1076 7 1089 14 q 1046 0 1063 0 l 1046 0 l 861 0 q 860 0 861 0 l 860 0 l 481 0 q 472 0 479 0 q 463 0 465 0 q 456 1 461 0 q 447 3 450 1 q 440 6 444 4 q 432 11 435 8 q 424 19 429 14 q 415 30 419 24 q 406 44 411 36 l 406 44 q 308 261 358 124 l 308 261 q 281 282 299 285 l 281 282 q 271 247 260 275 l 271 247 q 299 188 283 221 q 322 139 315 154 q 340 97 329 124 q 363 33 350 69 l 363 33 q 360 10 367 19 q 338 0 353 0 l 338 0 l 103 0 q 62 15 78 0 q 47 53 46 29 l 47 53 q 49 485 50 147 q 53 917 49 822 l 53 917 q 69 955 54 940 q 110 969 83 969 l 110 969 l 276 969 q 306 963 293 969 q 326 944 319 956 q 333 917 333 932 l 333 917 q 326 738 333 875 q 318 518 318 600 l 318 518 q 419 573 383 532 q 464 694 454 614 l 464 694 q 506 735 468 735 l 506 735 l 726 735 q 756 724 744 735 q 767 694 768 713 l 767 694 q 732 492 763 567 q 639 377 701 418 q 461 310 576 336 l 461 310 q 436 301 436 304 q 463 299 436 299 l 463 299 q 807 301 518 300 l 807 301 q 811 586 806 471 l 811 586 q 826 625 811 611 q 867 639 842 639 l 867 639 q 1033 639 949 643 l 1033 639 q 1064 633 1051 639 q 1083 615 1076 626 q 1090 586 1090 603 z m 1064 868 q 1093 789 1093 836 q 1064 710 1093 742 q 992 670 1035 678 q 908 670 950 663 q 838 710 867 678 q 808 789 808 742 q 838 868 808 836 q 908 908 867 900 q 992 908 950 915 q 1064 868 1035 900 z "},"":{"ha":1513,"x_min":46,"x_max":1492,"o":"m 1113 768 l 1113 768 q 1251 747 1188 768 q 1358 690 1314 726 q 1433 606 1401 654 q 1478 502 1464 557 q 1492 389 1492 447 q 1477 276 1492 331 q 1432 172 1463 221 q 1359 85 1401 122 q 1257 24 1317 47 q 1128 0 1197 1 l 1128 0 q 997 17 1058 -1 l 997 17 l 481 17 q 472 17 479 17 q 463 17 465 17 q 456 17 461 17 q 447 19 450 18 q 440 23 444 21 q 432 28 435 25 q 424 35 429 31 q 415 47 419 40 q 406 61 411 53 l 406 61 q 308 278 358 140 l 308 278 q 281 299 299 301 l 281 299 q 271 264 260 292 l 271 264 q 299 204 283 238 q 322 156 315 171 q 340 113 329 140 q 363 50 350 86 l 363 50 q 360 26 367 36 q 338 17 353 17 l 338 17 l 103 17 q 62 31 78 17 q 47 69 46 46 l 47 69 q 49 501 50 164 q 53 933 49 839 l 53 933 q 60 961 53 950 q 79 979 67 972 q 110 986 92 986 l 110 986 l 276 986 q 306 979 293 986 q 326 960 319 972 q 333 933 333 949 l 333 933 q 326 754 333 892 q 318 535 318 617 l 318 535 q 419 590 383 549 q 464 711 454 631 l 464 711 q 506 751 468 751 l 506 751 l 726 751 q 756 740 744 751 q 767 711 768 729 l 767 711 q 732 509 763 583 q 639 394 701 435 q 461 326 576 353 l 461 326 q 437 319 436 321 q 463 317 438 317 l 463 317 q 747 318 510 317 l 747 318 q 751 477 735 399 q 812 621 768 556 q 934 726 856 686 q 1113 768 1013 767 z m 1117 279 l 1117 279 q 1171 317 1151 281 q 1190 395 1190 353 q 1169 473 1189 438 q 1115 508 1150 508 l 1115 508 q 1067 485 1086 508 q 1044 427 1047 461 q 1045 360 1040 393 q 1069 303 1050 326 q 1117 279 1089 279 z "},"":{"ha":1508,"x_min":46,"x_max":1464,"o":"m 1454 692 l 1454 692 q 1458 399 1454 642 q 1463 57 1463 156 l 1463 57 q 1448 19 1463 33 q 1410 4 1433 4 l 1410 4 l 1138 4 q 1107 16 1114 4 q 1114 49 1100 28 l 1114 49 q 1162 132 1133 81 q 1208 218 1190 183 l 1208 218 l 1226 254 q 1238 293 1247 285 l 1238 293 q 1210 272 1228 300 l 1210 272 q 1051 65 1126 133 q 918 0 975 -3 l 918 0 l 481 0 q 472 0 479 0 q 463 0 465 0 q 456 1 461 0 q 447 3 450 1 q 440 6 444 4 q 432 11 435 8 q 424 19 429 14 q 415 30 419 24 q 406 44 411 36 l 406 44 q 308 261 358 124 l 308 261 q 281 282 299 285 l 281 282 q 271 247 260 275 l 271 247 q 299 188 283 221 q 322 139 315 154 q 340 97 329 124 q 363 33 350 69 l 363 33 q 360 10 367 19 q 338 0 353 0 l 338 0 l 103 0 q 62 15 78 0 q 47 53 46 29 l 47 53 q 49 485 50 147 q 53 917 49 822 l 53 917 q 60 944 53 933 q 79 963 67 956 q 110 969 92 969 l 110 969 l 276 969 q 306 963 293 969 q 326 944 319 956 q 333 917 333 932 l 333 917 q 326 738 333 875 q 318 518 318 600 l 318 518 q 419 573 383 532 q 464 694 454 614 l 464 694 q 506 735 468 735 l 506 735 l 726 735 q 756 724 744 735 q 767 694 768 713 l 767 694 q 732 492 763 567 q 639 377 701 418 q 461 310 576 336 l 461 310 q 436 302 436 304 q 463 300 436 300 l 463 300 q 803 301 519 300 l 803 301 q 804 692 804 371 l 804 692 q 860 744 804 744 l 860 744 l 1025 744 q 1063 731 1049 744 q 1078 692 1078 717 l 1078 692 l 1078 375 q 1094 294 1078 324 q 1129 265 1110 265 q 1165 294 1149 265 q 1181 375 1181 324 l 1181 375 l 1181 692 q 1195 731 1181 717 q 1233 744 1210 744 l 1233 744 l 1399 744 q 1439 730 1424 744 q 1454 692 1454 715 z "},"":{"ha":1613,"x_min":47,"x_max":1563,"o":"m 1325 744 l 1508 744 q 1547 730 1532 744 q 1561 692 1563 715 l 1561 692 l 1561 60 q 1529 -99 1561 -28 q 1444 -214 1497 -169 q 1323 -289 1390 -258 q 1181 -331 1256 -319 q 1035 -341 1106 -342 q 901 -328 964 -340 l 901 -328 q 862 -315 875 -322 q 849 -292 849 -307 l 849 -292 l 849 -68 q 856 -47 849 -57 q 874 -31 863 -36 q 901 -32 886 -26 l 901 -32 q 1003 -58 949 -53 q 1108 -56 1057 -64 q 1208 -27 1160 -49 q 1293 26 1257 -6 q 1351 103 1329 58 q 1375 200 1374 149 l 1375 200 q 1367 219 1375 214 q 1349 219 1358 225 q 1340 201 1340 214 l 1340 201 q 1303 85 1340 133 q 1210 15 1267 36 q 1088 3 1153 -6 l 1088 3 l 482 3 q 474 3 481 3 q 465 3 467 3 q 457 3 463 3 q 449 6 451 4 q 441 9 446 7 q 433 14 436 11 q 426 22 431 17 q 417 33 421 26 q 407 47 413 39 l 407 47 q 310 264 360 126 l 310 264 q 282 285 300 288 l 282 285 q 272 250 261 278 l 272 250 q 301 190 285 224 q 324 142 317 157 q 341 99 331 126 q 364 36 351 72 l 364 36 q 361 13 368 22 q 339 3 354 3 l 339 3 l 104 3 q 63 17 79 3 q 49 56 47 32 l 49 56 q 51 488 51 150 q 54 919 50 825 l 54 919 q 61 947 54 936 q 81 965 68 958 q 111 972 93 972 l 111 972 l 278 972 q 319 958 303 972 q 335 919 335 943 l 335 919 q 327 740 335 878 q 319 521 319 603 l 319 521 q 420 576 385 535 q 465 697 456 617 l 465 697 q 507 738 469 738 l 507 738 l 728 738 q 758 726 746 738 q 768 697 769 715 l 768 697 q 733 495 764 569 q 640 380 703 421 q 463 313 578 339 l 463 313 q 438 304 438 307 q 464 301 439 301 l 464 301 q 821 304 519 303 l 821 304 q 817 332 818 324 l 817 332 q 807 679 807 418 l 807 679 q 860 744 807 744 l 860 744 l 1044 744 q 1097 692 1097 744 l 1097 692 q 1097 524 1097 692 l 1097 524 q 1189 210 1110 210 l 1189 210 q 1208 214 1200 210 q 1226 231 1217 218 q 1241 265 1235 243 q 1253 322 1247 286 q 1264 408 1260 358 q 1270 530 1268 458 q 1272 692 1272 601 l 1272 692 q 1287 730 1272 715 q 1325 744 1301 744 l 1325 744 z "},"":{"ha":807,"x_min":-231,"x_max":768,"o":"m 272 640 l 272 640 q 314 625 299 639 q 329 588 329 611 l 329 588 q 336 241 331 507 q 340 -142 342 -25 l 340 -142 q 320 -224 340 -187 q 271 -282 300 -260 q 197 -319 242 -304 q 113 -340 153 -333 q 22 -348 74 -346 q -59 -349 -29 -350 q -129 -346 -89 -349 q -172 -343 -169 -343 l -172 -343 q -211 -328 -197 -343 q -226 -286 -225 -312 l -226 -286 q -226 -110 -229 -200 l -226 -110 q -210 -68 -225 -83 q -172 -53 -196 -53 l -172 -53 l -7 -53 q 31 -39 17 -53 q 46 -1 46 -25 l 46 -1 q 49 588 46 482 l 49 588 q 65 625 50 611 q 106 640 81 639 l 106 640 q 272 640 188 644 z m 282 701 q 183 667 244 667 q 84 701 121 667 q 47 790 47 735 q 84 879 47 846 q 183 913 121 913 q 282 879 244 913 q 319 790 319 846 q 282 701 319 735 z m 756 588 l 756 588 q 763 240 757 506 q 767 -142 768 -25 l 767 -142 q 754 -224 767 -187 q 723 -282 742 -260 q 676 -319 704 -304 q 622 -340 647 -333 q 563 -348 597 -346 q 506 -349 528 -350 q 456 -346 485 -349 q 419 -343 426 -343 l 419 -343 q 381 -328 394 -343 q 367 -286 367 -312 l 367 -286 q 367 -110 363 -200 l 367 -110 q 373 -79 367 -92 q 391 -60 379 -67 q 419 -53 403 -53 l 419 -53 q 462 -40 451 -53 q 472 -1 472 -28 l 472 -1 q 476 588 472 482 l 476 588 q 492 625 476 611 q 533 640 507 639 l 533 640 q 700 640 614 644 l 700 640 q 740 625 725 639 q 756 588 756 611 z m 708 701 q 609 667 671 667 q 510 701 547 667 q 474 790 474 735 q 510 879 474 846 q 609 913 547 913 q 708 879 671 913 q 746 790 746 846 q 708 701 746 735 z "},"":{"ha":1194,"x_min":17,"x_max":1156,"o":"m 574 219 l 574 219 q 482 88 539 140 q 364 15 425 35 q 240 1 303 -4 q 129 35 178 6 q 49 117 81 64 q 18 239 18 171 l 18 239 q 35 334 18 289 q 86 418 51 379 q 183 480 121 457 q 326 503 244 503 l 326 503 q 521 454 442 503 l 521 454 q 439 524 514 503 l 439 524 q 333 539 382 539 q 243 528 285 539 q 143 490 201 517 l 143 490 q 106 495 122 482 q 89 526 89 508 l 89 526 l 89 699 q 102 722 89 714 q 143 736 115 731 l 143 736 q 256 753 199 747 q 380 757 314 758 q 505 744 446 756 q 619 708 564 733 q 714 646 674 683 q 778 549 754 608 q 803 414 803 489 l 803 414 l 803 56 q 788 17 803 32 q 750 3 774 3 l 750 3 l 533 3 q 503 15 511 3 q 506 49 496 28 l 506 49 l 589 203 q 599 242 611 233 l 599 242 q 574 219 588 250 z m 329 322 l 329 322 q 271 286 288 322 q 272 214 254 250 q 331 179 289 178 l 331 179 q 383 215 368 179 q 381 287 397 251 q 329 322 365 322 z m 1143 590 l 1143 590 q 1149 247 1143 515 q 1154 -139 1156 -21 l 1154 -139 q 1102 -267 1153 -221 q 953 -331 1051 -314 q 711 -351 856 -349 q 379 -346 567 -353 l 379 -346 q 94 -340 196 -342 l 94 -340 q 56 -325 71 -340 q 42 -283 42 -310 l 42 -283 q 42 -107 38 -197 l 42 -107 q 56 -65 42 -81 q 94 -50 71 -50 l 94 -50 l 806 -50 q 834 -44 822 -50 q 852 -26 846 -37 q 858 1 858 -14 l 858 1 q 863 590 858 485 l 863 590 q 879 628 864 614 q 919 643 894 642 l 919 643 q 1086 643 1001 647 l 1086 643 q 1116 636 1103 643 q 1136 617 1129 629 q 1143 590 1143 606 z m 1065 686 q 997 669 1033 669 q 928 686 960 669 q 878 731 897 703 q 860 793 860 760 l 860 793 q 900 879 860 843 q 996 915 940 915 l 996 915 q 1065 899 1033 915 q 1114 855 1096 883 q 1132 793 1132 826 q 1114 731 1132 760 q 1065 686 1096 703 z "},"":{"ha":1174,"x_min":15,"x_max":1135,"o":"m 378 -4 l 378 -4 q 219 38 289 1 q 106 127 149 74 q 40 247 63 181 q 18 383 17 314 q 44 519 19 453 q 115 638 69 585 q 232 724 160 690 q 393 761 304 757 l 393 761 q 576 733 490 765 q 725 625 663 700 q 800 446 788 550 l 800 446 q 788 407 803 422 q 750 392 774 392 l 750 392 l 303 392 q 324 324 304 354 q 370 278 343 293 q 428 264 397 264 q 481 283 458 264 l 481 283 q 563 314 526 324 l 563 314 l 735 272 q 767 249 758 267 q 767 210 776 231 l 767 210 q 606 46 715 104 q 378 -4 497 -12 z m 314 457 l 507 457 q 449 508 489 493 q 371 508 410 522 q 314 457 332 494 l 314 457 z m 1122 590 l 1122 590 q 1128 247 1122 515 q 1132 -139 1133 -21 l 1132 -139 q 1081 -267 1132 -221 q 933 -331 1031 -314 q 690 -351 835 -349 q 358 -346 546 -353 l 358 -346 q 74 -340 175 -342 l 74 -340 q 35 -325 49 -340 q 19 -283 21 -310 l 19 -283 q 19 -107 17 -197 l 19 -107 q 35 -65 21 -81 q 74 -50 50 -50 l 74 -50 l 785 -50 q 823 -36 808 -50 q 838 1 838 -22 l 838 1 q 842 590 838 485 l 842 590 q 858 628 843 614 q 899 643 872 642 l 899 643 q 1065 643 981 647 l 1065 643 q 1095 636 1082 643 q 1115 617 1108 629 q 1122 590 1122 606 z m 975 669 l 975 669 q 876 703 914 669 q 839 793 839 738 l 839 793 q 856 857 839 829 q 903 900 872 885 q 975 915 935 915 l 975 915 q 1074 882 1036 915 q 1111 793 1111 849 l 1111 793 q 1094 728 1111 756 q 1047 685 1078 700 q 975 669 1015 669 z "},"":{"ha":1175,"x_min":17,"x_max":1136,"o":"m 1124 590 l 1124 590 q 1129 247 1124 515 q 1133 -139 1135 -21 l 1133 -139 q 1083 -267 1133 -221 q 934 -331 1032 -314 q 692 -351 836 -349 q 360 -346 547 -353 l 360 -346 q 75 -340 176 -342 l 75 -340 q 36 -325 50 -340 q 21 -283 22 -310 l 21 -283 q 21 -107 18 -197 l 21 -107 q 37 -65 22 -81 q 75 -50 51 -50 l 75 -50 l 786 -50 q 824 -36 810 -50 q 839 1 839 -22 l 839 1 q 843 590 839 485 l 843 590 q 859 628 844 614 q 900 643 874 642 l 900 643 q 1067 643 982 647 l 1067 643 q 1097 636 1083 643 q 1117 617 1110 629 q 1124 590 1124 606 z m 1075 703 q 976 669 1038 669 q 878 703 915 669 q 840 793 840 738 q 878 882 840 849 q 976 915 915 915 q 1075 882 1038 915 q 1113 793 1113 849 q 1075 703 1113 738 z m 406 -14 l 406 -14 q 255 10 324 -15 q 142 78 186 35 q 65 180 97 122 q 26 301 33 238 q 23 429 18 365 q 58 551 28 493 q 131 653 88 608 q 242 726 174 699 q 392 754 310 753 l 392 754 q 578 713 497 754 q 701 605 660 672 q 763 456 743 538 q 762 293 782 375 q 701 143 742 211 q 582 32 660 75 q 406 -14 504 -11 z m 394 494 l 394 494 q 356 482 372 494 q 333 449 340 469 q 321 404 325 429 q 322 355 317 379 q 335 310 326 331 q 359 278 343 290 q 394 265 375 265 l 394 265 q 449 303 431 267 q 467 381 468 339 q 447 459 467 424 q 394 494 428 494 z "},"":{"ha":1338,"x_min":49,"x_max":1329,"o":"m 938 768 l 938 768 q 1125 727 1043 768 q 1249 619 1207 686 q 1310 470 1290 551 q 1309 307 1329 389 q 1248 157 1289 225 q 1129 46 1207 89 q 953 0 1051 3 l 953 0 q 774 36 853 -1 q 649 136 694 74 q 582 276 603 199 q 569 433 561 353 l 569 433 q 568 433 569 433 l 568 433 q 501 460 528 451 q 444 468 475 468 q 396 451 414 468 q 365 395 378 435 q 353 292 353 356 l 353 292 l 353 74 q 338 35 353 50 q 300 21 324 21 l 300 21 l 103 21 q 65 35 79 21 q 50 74 50 50 l 50 74 q 49 706 49 147 l 49 706 q 56 734 49 722 q 74 752 63 746 q 101 758 86 758 l 101 758 l 379 756 q 413 741 403 756 q 415 704 424 726 l 415 704 q 356 544 383 610 q 321 457 329 479 l 321 457 q 321 431 313 431 l 321 431 q 346 463 329 431 l 346 463 q 360 488 351 471 l 360 488 q 405 573 390 546 q 444 640 419 600 q 481 696 468 681 q 515 733 494 711 q 551 757 536 754 q 589 761 567 760 q 633 753 611 763 q 683 725 656 743 l 683 725 q 699 716 686 724 q 721 703 713 708 l 721 703 q 938 768 813 767 z m 942 279 l 942 279 q 997 317 978 281 q 1015 395 1015 353 q 994 473 1014 438 q 940 508 975 508 l 940 508 q 893 485 913 508 q 869 427 874 461 q 870 360 865 393 q 894 303 875 326 q 942 279 914 279 z "},"":{"ha":1378,"x_min":49,"x_max":1365,"o":"m 1363 451 l 1363 451 q 1351 413 1365 428 q 1311 397 1336 397 l 1311 397 l 865 397 q 886 329 867 360 q 933 284 906 299 q 990 269 960 269 q 1043 289 1021 269 l 1043 289 q 1125 319 1089 329 l 1125 319 l 1297 278 q 1330 254 1321 272 q 1329 215 1339 236 l 1329 215 q 1169 51 1278 110 q 940 1 1060 -7 l 940 1 q 774 46 847 7 q 658 144 701 85 q 596 274 615 203 q 582 419 576 344 l 582 419 q 574 422 579 419 q 568 425 569 425 l 568 425 q 501 451 528 443 q 444 460 475 460 q 396 443 414 460 q 365 387 378 426 q 353 282 353 347 l 353 282 l 353 65 q 338 27 353 42 q 300 13 324 13 l 300 13 l 103 13 q 65 27 79 13 q 50 65 50 42 l 50 65 q 49 697 49 138 l 49 697 q 56 726 49 714 q 74 744 63 738 q 101 750 86 750 l 101 750 l 379 747 q 413 733 403 747 q 415 696 424 718 l 415 696 q 356 536 383 601 q 321 447 329 471 l 321 447 q 321 422 313 422 l 321 422 q 346 454 329 422 l 346 454 q 360 479 351 463 l 360 479 q 420 590 401 557 q 469 669 439 624 q 517 726 499 714 q 563 749 535 739 q 619 750 590 760 q 683 717 647 740 l 683 717 q 701 706 686 715 q 728 690 717 696 l 728 690 q 956 767 822 761 l 956 767 q 1139 738 1053 771 q 1288 631 1225 706 q 1363 451 1350 556 z m 876 463 l 876 463 l 1069 463 q 1012 513 1051 499 q 933 514 972 528 q 876 463 894 500 z "},"":{"ha":1321,"x_min":49,"x_max":1276,"o":"m 1268 688 l 1268 688 q 1272 394 1268 638 q 1276 53 1275 151 l 1276 53 q 1262 15 1276 29 q 1224 0 1247 0 l 1224 0 l 950 0 q 920 12 926 0 q 926 44 914 24 l 926 44 q 975 128 947 76 q 1021 214 1003 179 l 1021 214 l 1039 250 q 1050 289 1061 281 l 1050 289 q 1024 268 1040 296 l 1024 268 q 894 92 957 158 q 781 10 831 26 q 693 18 731 -6 q 635 110 656 42 q 617 279 615 178 l 617 279 q 617 393 617 326 l 617 393 q 567 413 607 396 q 501 439 528 431 q 444 447 475 447 q 396 431 414 447 q 365 374 378 414 q 353 269 353 335 l 353 269 l 353 53 q 338 15 353 29 q 300 0 324 0 l 300 0 l 103 0 q 65 15 79 0 q 50 53 50 29 l 50 53 q 49 685 49 125 l 49 685 q 56 713 49 701 q 74 731 63 725 q 101 738 86 738 l 101 738 l 379 735 q 413 720 403 735 q 415 683 424 706 l 415 683 q 356 524 383 589 q 321 435 329 458 l 321 435 q 321 410 313 410 l 321 410 q 346 442 329 410 l 346 442 q 358 463 350 449 l 358 463 q 402 545 388 519 q 439 610 417 571 q 475 666 461 649 q 507 703 489 683 q 541 731 525 722 q 575 740 557 739 l 575 740 q 583 740 578 740 l 583 740 l 838 740 q 877 726 863 740 q 892 688 892 713 l 892 688 l 892 371 q 908 290 892 319 q 943 261 924 261 q 978 290 963 261 q 994 371 994 319 l 994 371 l 994 688 q 1009 726 994 713 q 1047 740 1024 740 l 1047 740 l 1213 740 q 1252 726 1236 740 q 1268 688 1268 711 z "},"":{"ha":1135,"x_min":-37,"x_max":1128,"o":"m 1124 235 l 1124 235 q 1124 58 1128 144 l 1124 58 q 1108 17 1122 32 q 1071 1 1094 1 l 1071 1 q 996 1 1061 1 q 840 0 931 0 q 636 0 749 0 q 426 1 524 0 q 244 1 329 1 q 131 1 160 1 l 131 1 q 58 20 72 1 q 43 111 43 39 l 43 111 q 47 360 43 186 q 51 613 51 535 l 51 613 q 89 703 51 678 q 196 729 126 729 l 196 729 q 213 742 213 729 l 213 742 q 192 753 211 753 l 192 753 l -22 753 q -36 767 -36 753 l -36 767 l -36 803 q -22 817 -36 817 l -22 817 l 53 817 q 53 856 53 831 q 54 893 54 881 l 54 893 q 69 931 54 917 q 111 946 85 944 l 111 946 q 278 946 196 949 l 278 946 q 318 931 303 944 q 335 893 333 917 l 335 893 q 338 817 338 844 l 338 817 l 567 817 q 567 856 567 831 q 568 893 568 881 l 568 893 q 575 920 568 908 q 595 938 582 932 q 625 946 608 944 l 625 946 q 792 946 710 949 l 792 946 q 833 931 818 944 q 849 893 847 917 l 849 893 q 851 817 851 846 l 851 817 l 939 817 q 953 803 953 817 l 953 803 l 954 767 q 940 753 954 753 l 940 753 l 851 753 q 853 343 853 629 l 853 343 q 867 306 853 319 q 906 292 882 292 l 906 292 l 1071 292 q 1108 276 1094 292 q 1124 235 1122 261 z m 710 729 l 710 729 q 726 742 728 729 l 726 742 q 706 753 725 753 l 706 753 l 338 753 q 339 343 339 629 l 339 343 q 353 306 339 319 q 392 292 367 292 l 392 292 l 557 292 q 558 292 557 292 q 560 292 560 292 l 560 292 q 565 613 565 558 l 565 613 q 585 684 565 657 q 635 720 604 711 q 710 729 665 729 z "},"":{"ha":1261,"x_min":-36,"x_max":1224,"o":"m 563 738 l 563 738 q 676 754 618 749 q 800 758 735 760 q 925 746 865 757 q 1040 710 985 735 q 1135 647 1094 685 q 1199 550 1175 610 q 1222 415 1222 490 l 1222 415 l 1222 57 q 1208 19 1222 33 q 1169 4 1193 4 l 1169 4 l 954 4 q 924 17 932 4 q 926 50 915 29 l 926 50 l 1010 204 q 1018 243 1031 235 l 1018 243 q 994 221 1007 251 l 994 221 q 917 105 964 154 q 821 33 871 56 q 716 2 771 10 q 614 10 661 -6 l 614 10 q 351 10 538 10 q 131 11 165 11 l 131 11 q 58 30 72 11 q 43 121 43 49 l 43 121 q 45 272 43 182 q 49 458 47 361 q 51 622 51 556 l 51 622 q 71 694 51 667 q 120 730 90 721 q 196 739 150 739 l 196 739 q 213 751 214 739 l 213 751 q 192 763 211 763 l 192 763 l -22 763 q -36 776 -36 763 l -36 776 l -36 813 q -22 826 -36 826 l -22 826 l 53 826 q 53 865 53 840 q 54 903 54 890 l 54 903 q 61 930 54 918 q 81 948 68 942 q 111 956 93 954 l 111 956 q 278 956 196 958 l 278 956 q 318 940 303 954 q 335 903 333 926 l 335 903 q 338 826 338 856 l 338 826 l 424 826 q 439 813 439 826 l 439 813 l 440 776 q 425 763 440 763 l 425 763 l 338 763 q 338 353 338 639 l 338 353 q 352 315 338 329 q 392 301 367 301 l 392 301 l 446 301 q 538 447 464 390 q 747 504 613 503 l 747 504 q 942 456 863 504 l 942 456 q 860 525 935 504 l 860 525 q 753 540 803 540 q 663 528 704 540 q 563 492 622 517 l 563 492 q 526 497 543 483 q 510 528 510 510 l 510 528 l 510 700 q 523 723 510 715 q 563 738 536 731 z m 750 181 l 750 181 q 802 217 788 181 q 801 288 817 253 q 749 324 786 324 l 749 324 q 707 309 724 324 q 687 273 690 294 q 688 231 683 251 q 709 194 692 210 q 750 181 726 179 z "},"":{"ha":1224,"x_min":-36,"x_max":1211,"o":"m 1208 451 l 1208 451 q 1207 429 1210 439 q 1197 413 1204 419 q 1181 401 1190 406 q 1158 397 1171 397 l 1158 397 l 711 397 q 733 329 713 360 q 780 284 753 299 q 838 269 807 269 q 890 289 868 269 l 890 289 q 972 319 935 329 l 972 319 l 1143 278 q 1176 253 1167 271 q 1175 215 1185 236 l 1175 215 q 1015 51 1124 110 q 786 1 906 -7 l 786 1 q 701 15 742 4 l 701 15 q 699 15 699 15 l 699 15 l 131 15 q 58 34 72 15 q 43 125 43 53 l 43 125 q 47 374 43 200 q 51 626 51 549 l 51 626 q 71 698 51 671 q 120 734 90 725 q 196 743 150 743 l 196 743 q 213 756 214 743 l 213 756 q 192 767 211 767 l 192 767 l -21 767 q -36 781 -36 767 l -36 781 l -36 817 q -21 831 -36 831 l -21 831 l 53 831 q 53 847 53 839 q 53 862 53 854 q 53 877 53 869 q 54 892 54 885 q 54 907 54 900 l 54 907 q 69 944 54 931 q 111 960 85 958 l 111 960 q 278 960 196 963 l 278 960 q 307 952 294 958 q 326 934 319 946 q 335 907 333 922 l 335 907 q 338 831 338 860 l 338 831 l 424 831 q 439 817 439 831 l 439 817 l 440 781 q 425 767 440 767 l 425 767 l 338 767 q 338 357 338 643 l 338 357 q 352 319 338 333 q 392 306 367 306 l 392 306 l 435 306 q 436 464 419 385 q 497 610 453 543 q 620 719 540 676 q 803 767 700 763 l 803 767 q 985 738 899 771 q 1135 631 1072 706 q 1208 451 1197 556 z m 724 463 l 724 463 l 917 463 q 858 513 897 499 q 780 514 819 528 q 724 463 740 500 z "}}}
